Dekko-Regular.ufo
<glyph name="hyphen" format="1">
  <advance width="745"/>
  <unicode hex="002D"/>
  <outline>
    <contour>
      <point x="215" y="686" type="curve" smooth="yes"/>
      <point x="193" y="686"/>
      <point x="183" y="694"/>
      <point x="169" y="694" type="curve" smooth="yes"/>
      <point x="129" y="694"/>
      <point x="99" y="661"/>
      <point x="99" y="605" type="curve" smooth="yes"/>
      <point x="99" y="515"/>
      <point x="142" y="502"/>
      <point x="179" y="502" type="curve" smooth="yes"/>
      <point x="243" y="502"/>
      <point x="293" y="517"/>
      <point x="346" y="517" type="curve" smooth="yes"/>
      <point x="418" y="517"/>
      <point x="481" y="499"/>
      <point x="547" y="499" type="curve" smooth="yes"/>
      <point x="570" y="499"/>
      <point x="639" y="518"/>
      <point x="639" y="590" type="curve" smooth="yes"/>
      <point x="639" y="652"/>
      <point x="612" y="694"/>
      <point x="570" y="694" type="curve" smooth="yes"/>
      <point x="450" y="694"/>
      <point x="332" y="686"/>
    </contour>
  </outline>
</glyph>
<glyph name="slash" format="1">
  <advance width="621"/>
  <unicode hex="002F"/>
  <outline>
    <contour>
      <point x="31" y="-81" type="curve"/>
      <point x="31" y="-160"/>
      <point x="95" y="-183"/>
      <point x="129" y="-183" type="curve" smooth="yes"/>
      <point x="155" y="-183"/>
      <point x="187" y="-124"/>
      <point x="187" y="-71" type="curve"/>
      <point x="381" y="722"/>
      <point x="463" y="1035"/>
      <point x="563" y="1315" type="curve" smooth="yes"/>
      <point x="567" y="1325"/>
      <point x="571" y="1341"/>
      <point x="571" y="1350" type="curve" smooth="yes"/>
      <point x="571" y="1414"/>
      <point x="547" y="1449"/>
      <point x="507" y="1449" type="curve" smooth="yes"/>
      <point x="478" y="1449"/>
      <point x="441" y="1381"/>
      <point x="429" y="1343" type="curve" smooth="yes"/>
      <point x="303" y="963"/>
      <point x="139" y="344"/>
    </contour>
  </outline>
</glyph>
<glyph name="one" format="1">
  <advance width="529"/>
  <unicode hex="0031"/>
  <outline>
    <contour>
      <point x="220" y="1121" type="curve"/>
      <point x="213" y="844"/>
      <point x="175" y="448"/>
      <point x="175" y="228" type="curve"/>
      <point x="175" y="95"/>
      <point x="188" y="-5"/>
      <point x="274" y="-5" type="curve" smooth="yes"/>
      <point x="310" y="-5"/>
      <point x="343" y="40"/>
      <point x="343" y="99" type="curve" smooth="yes"/>
      <point x="343" y="143"/>
      <point x="339" y="203"/>
      <point x="332" y="250" type="curve"/>
      <point x="330" y="602"/>
      <point x="366" y="971"/>
      <point x="374" y="1253" type="curve"/>
      <point x="374" y="1340"/>
      <point x="296" y="1373"/>
      <point x="274" y="1373" type="curve" smooth="yes"/>
      <point x="236" y="1373"/>
      <point x="85" y="1241"/>
      <point x="85" y="1183" type="curve" smooth="yes"/>
      <point x="85" y="1118"/>
      <point x="205" y="1156"/>
    </contour>
  </outline>
</glyph>
<glyph name="eight" format="1">
  <advance width="971"/>
  <unicode hex="0038"/>
  <outline>
    <contour>
      <point x="425" y="-29" type="curve" smooth="yes"/>
      <point x="602" y="-29"/>
      <point x="723" y="106"/>
      <point x="723" y="300" type="curve" smooth="yes"/>
      <point x="723" y="406"/>
      <point x="638" y="578"/>
      <point x="583" y="679" type="curve"/>
      <point x="650" y="727"/>
      <point x="742" y="878"/>
      <point x="789" y="937" type="curve"/>
      <point x="844" y="962"/>
      <point x="876" y="1010"/>
      <point x="876" y="1094" type="curve" smooth="yes"/>
      <point x="876" y="1221"/>
      <point x="802" y="1381"/>
      <point x="683" y="1381" type="curve" smooth="yes"/>
      <point x="512" y="1381"/>
      <point x="228" y="1336"/>
      <point x="228" y="1046" type="curve" smooth="yes"/>
      <point x="228" y="944"/>
      <point x="276" y="818"/>
      <point x="330" y="749" type="curve"/>
      <point x="203" y="638"/>
      <point x="147" y="391"/>
      <point x="147" y="237" type="curve" smooth="yes"/>
      <point x="147" y="9"/>
      <point x="282" y="-29"/>
    </contour>
    <contour>
      <point x="388" y="1008" type="curve" smooth="yes"/>
      <point x="391" y="1113"/>
      <point x="563" y="1160"/>
      <point x="647" y="1160" type="curve" smooth="yes"/>
      <point x="683" y="1160"/>
      <point x="730" y="1156"/>
      <point x="740" y="1135" type="curve"/>
      <point x="667" y="1067"/>
      <point x="565" y="827"/>
      <point x="491" y="827" type="curve" smooth="yes"/>
      <point x="472" y="827"/>
      <point x="388" y="988"/>
    </contour>
    <contour>
      <point x="300" y="300" type="curve" smooth="yes"/>
      <point x="300" y="358"/>
      <point x="340" y="631"/>
      <point x="404" y="631" type="curve" smooth="yes"/>
      <point x="447" y="631"/>
      <point x="564" y="464"/>
      <point x="564" y="315" type="curve" smooth="yes"/>
      <point x="564" y="222"/>
      <point x="470" y="203"/>
      <point x="409" y="203" type="curve" smooth="yes"/>
      <point x="332" y="203"/>
      <point x="300" y="222"/>
    </contour>
  </outline>
</glyph>
<glyph name="F" format="1">
  <advance width="970"/>
  <unicode hex="0046"/>
  <outline>
    <contour>
      <point x="244" y="1211" type="curve" smooth="yes"/>
      <point x="169" y="1211"/>
      <point x="160" y="1042"/>
      <point x="160" y="970" type="curve" smooth="yes"/>
      <point x="150" y="263" type="line" smooth="yes"/>
      <point x="150" y="228"/>
      <point x="139" y="198"/>
      <point x="139" y="134" type="curve" smooth="yes"/>
      <point x="139" y="53"/>
      <point x="159" y="-8"/>
      <point x="228" y="-8" type="curve" smooth="yes"/>
      <point x="287" y="-8"/>
      <point x="297" y="71"/>
      <point x="297" y="132" type="curve" smooth="yes"/>
      <point x="293" y="502" type="line"/>
      <point x="344" y="502"/>
      <point x="387" y="511"/>
      <point x="641" y="540" type="curve" smooth="yes"/>
      <point x="736" y="552"/>
      <point x="783" y="547"/>
      <point x="783" y="655" type="curve" smooth="yes"/>
      <point x="783" y="684"/>
      <point x="781" y="753"/>
      <point x="724" y="753" type="curve" smooth="yes"/>
      <point x="706" y="753"/>
      <point x="684" y="750"/>
      <point x="664" y="743" type="curve"/>
      <point x="476" y="715" type="line" smooth="yes"/>
      <point x="456" y="710"/>
      <point x="382" y="705"/>
      <point x="337" y="705" type="curve" smooth="yes"/>
      <point x="311" y="705"/>
      <point x="293" y="706"/>
      <point x="292" y="710" type="curve"/>
      <point x="293" y="849"/>
      <point x="297" y="934"/>
      <point x="303" y="993" type="curve"/>
      <point x="311" y="988"/>
      <point x="339" y="987"/>
      <point x="371" y="987" type="curve" smooth="yes"/>
      <point x="678" y="987"/>
      <point x="734" y="999"/>
      <point x="753" y="999" type="curve"/>
      <point x="814" y="983"/>
      <point x="868" y="970"/>
      <point x="879" y="970" type="curve" smooth="yes"/>
      <point x="932" y="970"/>
      <point x="952" y="1008"/>
      <point x="952" y="1074" type="curve" smooth="yes"/>
      <point x="952" y="1132"/>
      <point x="894" y="1202"/>
      <point x="850" y="1202" type="curve" smooth="yes"/>
      <point x="818" y="1202"/>
      <point x="790" y="1196"/>
      <point x="765" y="1191" type="curve"/>
      <point x="397" y="1191" type="line" smooth="yes"/>
      <point x="347" y="1191"/>
      <point x="293" y="1211"/>
    </contour>
    <contour>
      <point x="545" y="-297" type="move" name="btm"/>
    </contour>
    <contour>
      <point x="582" y="1497" type="move" name="top"/>
    </contour>
  </outline>
</glyph>
<glyph name="J" format="1">
  <advance width="792"/>
  <unicode hex="004A"/>
  <outline>
    <contour>
      <point x="146" y="258" type="curve" smooth="yes"/>
      <point x="94" y="258"/>
      <point x="66" y="189"/>
      <point x="66" y="142" type="curve" smooth="yes"/>
      <point x="66" y="8"/>
      <point x="200" y="-18"/>
      <point x="258" y="-18" type="curve" smooth="yes"/>
      <point x="413" y="-18"/>
      <point x="547" y="58"/>
      <point x="645" y="248" type="curve" smooth="yes"/>
      <point x="666" y="292"/>
      <point x="688" y="565"/>
      <point x="688" y="696" type="curve" smooth="yes"/>
      <point x="688" y="940"/>
      <point x="715" y="1219"/>
      <point x="626" y="1219" type="curve" smooth="yes"/>
      <point x="563" y="1219"/>
      <point x="542" y="1142"/>
      <point x="542" y="1074" type="curve" smooth="yes"/>
      <point x="542" y="820"/>
      <point x="535" y="619"/>
      <point x="535" y="391" type="curve" smooth="yes"/>
      <point x="535" y="277"/>
      <point x="400" y="181"/>
      <point x="284" y="181" type="curve" smooth="yes"/>
      <point x="213" y="181"/>
      <point x="193" y="258"/>
    </contour>
    <contour>
      <point x="378" y="-297" type="move" name="btm"/>
    </contour>
    <contour>
      <point x="625" y="1497" type="move" name="top"/>
    </contour>
  </outline>
</glyph>
<glyph name="X" format="1">
  <advance width="769"/>
  <unicode hex="0058"/>
  <outline>
    <contour>
      <point x="691" y="1133" type="curve" smooth="yes"/>
      <point x="696" y="1146"/>
      <point x="697" y="1157"/>
      <point x="697" y="1171" type="curve" smooth="yes"/>
      <point x="697" y="1204"/>
      <point x="679" y="1231"/>
      <point x="652" y="1231" type="curve" smooth="yes"/>
      <point x="557" y="1231"/>
      <point x="515" y="1052"/>
      <point x="374" y="783" type="curve"/>
      <point x="319" y="879"/>
      <point x="212" y="1209"/>
      <point x="129" y="1219" type="curve"/>
      <point x="101" y="1219"/>
      <point x="74" y="1156"/>
      <point x="74" y="1117" type="curve" smooth="yes"/>
      <point x="74" y="1015"/>
      <point x="187" y="820"/>
      <point x="210" y="775" type="curve" smooth="yes"/>
      <point x="250" y="684"/>
      <point x="279" y="647"/>
      <point x="292" y="621" type="curve"/>
      <point x="256" y="537" type="line" smooth="yes"/>
      <point x="215" y="441"/>
      <point x="84" y="181"/>
      <point x="84" y="126" type="curve" smooth="yes"/>
      <point x="84" y="45"/>
      <point x="112" y="-20"/>
      <point x="173" y="-20" type="curve" smooth="yes"/>
      <point x="237" y="-20"/>
      <point x="244" y="55"/>
      <point x="244" y="129" type="curve" smooth="yes"/>
      <point x="244" y="175"/>
      <point x="337" y="332"/>
      <point x="356" y="394" type="curve"/>
      <point x="458" y="142"/>
      <point x="518" y="-29"/>
      <point x="651" y="-29" type="curve" smooth="yes"/>
      <point x="691" y="-29"/>
      <point x="702" y="5"/>
      <point x="702" y="60" type="curve" smooth="yes"/>
      <point x="702" y="173"/>
      <point x="643" y="175"/>
      <point x="607" y="240" type="curve" smooth="yes"/>
      <point x="560" y="332"/>
      <point x="439" y="562"/>
      <point x="439" y="610" type="curve"/>
      <point x="499" y="755"/>
      <point x="626" y="952"/>
    </contour>
    <contour>
      <point x="387" y="-297" type="move" name="btm"/>
    </contour>
    <contour>
      <point x="397" y="1497" type="move" name="top"/>
    </contour>
  </outline>
</glyph>
<glyph name="f" format="1">
  <advance width="767"/>
  <unicode hex="0066"/>
  <outline>
    <contour>
      <point x="374" y="305" type="curve" smooth="yes"/>
      <point x="377" y="495"/>
      <point x="387" y="647"/>
      <point x="387" y="810" type="curve" smooth="yes"/>
      <point x="387" y="975"/>
      <point x="409" y="1310"/>
      <point x="596" y="1310" type="curve" smooth="yes"/>
      <point x="668" y="1310"/>
      <point x="706" y="1248"/>
      <point x="769" y="1248" type="curve" smooth="yes"/>
      <point x="804" y="1248"/>
      <point x="808" y="1317"/>
      <point x="808" y="1345" type="curve" smooth="yes"/>
      <point x="808" y="1439"/>
      <point x="649" y="1501"/>
      <point x="596" y="1501" type="curve" smooth="yes"/>
      <point x="322" y="1501"/>
      <point x="247" y="1005"/>
      <point x="240" y="671" type="curve" smooth="yes"/>
      <point x="238" y="508"/>
      <point x="229" y="364"/>
      <point x="229" y="218" type="curve" smooth="yes"/>
      <point x="229" y="23"/>
      <point x="248" y="-10"/>
      <point x="342" y="-10" type="curve" smooth="yes"/>
      <point x="374" y="-10"/>
      <point x="397" y="12"/>
      <point x="397" y="74" type="curve" smooth="yes"/>
      <point x="397" y="177"/>
      <point x="374" y="274"/>
    </contour>
    <contour>
      <point x="409" y="726" type="curve" smooth="yes"/>
      <point x="466" y="726"/>
      <point x="511" y="724"/>
      <point x="652" y="716" type="curve"/>
      <point x="684" y="716"/>
      <point x="745" y="719"/>
      <point x="745" y="820" type="curve" smooth="yes"/>
      <point x="745" y="897"/>
      <point x="712" y="913"/>
      <point x="684" y="913" type="curve" smooth="yes"/>
      <point x="666" y="913"/>
      <point x="645" y="909"/>
      <point x="626" y="907" type="curve"/>
      <point x="247" y="907" type="line"/>
      <point x="103" y="913" type="line" smooth="yes"/>
      <point x="69" y="913"/>
      <point x="36" y="860"/>
      <point x="36" y="814" type="curve" smooth="yes"/>
      <point x="36" y="767"/>
      <point x="66" y="716"/>
      <point x="101" y="716" type="curve" smooth="yes"/>
      <point x="200" y="716"/>
      <point x="284" y="726"/>
    </contour>
    <contour>
      <point x="421" y="-297" type="move" name="btm"/>
    </contour>
    <contour>
      <point x="79" y="1777" type="move" name="top"/>
    </contour>
  </outline>
</glyph>
<glyph name="h" format="1">
  <advance width="998"/>
  <unicode hex="0068"/>
  <outline>
    <contour>
      <point x="736" y="85" type="curve" smooth="yes"/>
      <point x="736" y="25"/>
      <point x="765" y="-25"/>
      <point x="814" y="-25" type="curve" smooth="yes"/>
      <point x="891" y="-25"/>
      <point x="889" y="95"/>
      <point x="891" y="150" type="curve" smooth="yes"/>
      <point x="901" y="476" type="line"/>
      <point x="901" y="678"/>
      <point x="834" y="949"/>
      <point x="491" y="949" type="curve" smooth="yes"/>
      <point x="399" y="949"/>
      <point x="266" y="875"/>
      <point x="248" y="760" type="curve"/>
      <point x="253" y="881" type="line"/>
      <point x="253" y="1048"/>
      <point x="266" y="1233"/>
      <point x="266" y="1394" type="curve" smooth="yes"/>
      <point x="266" y="1398" type="line" smooth="yes"/>
      <point x="266" y="1443"/>
      <point x="238" y="1484"/>
      <point x="205" y="1484" type="curve" smooth="yes"/>
      <point x="155" y="1484"/>
      <point x="122" y="1400"/>
      <point x="122" y="1355" type="curve" smooth="yes"/>
      <point x="122" y="1003"/>
      <point x="105" y="454"/>
      <point x="105" y="99" type="curve" smooth="yes"/>
      <point x="105" y="2"/>
      <point x="159" y="-5"/>
      <point x="183" y="-5" type="curve" smooth="yes"/>
      <point x="247" y="-5"/>
      <point x="247" y="63"/>
      <point x="248" y="120" type="curve"/>
      <point x="248" y="590" type="line" smooth="yes"/>
      <point x="248" y="660"/>
      <point x="367" y="757"/>
      <point x="489" y="757" type="curve" smooth="yes"/>
      <point x="740" y="757"/>
      <point x="760" y="586"/>
      <point x="760" y="462" type="curve" smooth="yes"/>
      <point x="760" y="439" type="line" smooth="yes"/>
      <point x="760" y="317"/>
      <point x="736" y="212"/>
    </contour>
    <contour>
      <point x="502" y="-297" type="move" name="btm"/>
    </contour>
    <contour>
      <point x="202" y="1548" type="move" name="top"/>
    </contour>
  </outline>
</glyph>
<glyph name="m" format="1">
  <advance width="1496"/>
  <unicode hex="006D"/>
  <outline>
    <contour>
      <point x="1194" y="99" type="curve" smooth="yes"/>
      <point x="1194" y="50"/>
      <point x="1236" y="-23"/>
      <point x="1288" y="-23" type="curve" smooth="yes"/>
      <point x="1355" y="-23"/>
      <point x="1381" y="192"/>
      <point x="1381" y="406" type="curve" smooth="yes"/>
      <point x="1381" y="769"/>
      <point x="1237" y="920"/>
      <point x="1013" y="920" type="curve" smooth="yes"/>
      <point x="914" y="920"/>
      <point x="753" y="839"/>
      <point x="724" y="694" type="curve"/>
      <point x="724" y="881"/>
      <point x="533" y="949"/>
      <point x="443" y="949" type="curve" smooth="yes"/>
      <point x="356" y="949"/>
      <point x="268" y="877"/>
      <point x="240" y="802" type="curve"/>
      <point x="240" y="804"/>
      <point x="240" y="810"/>
      <point x="240" y="820" type="curve" smooth="yes"/>
      <point x="240" y="905"/>
      <point x="212" y="926"/>
      <point x="181" y="926" type="curve" smooth="yes"/>
      <point x="103" y="926"/>
      <point x="112" y="745"/>
      <point x="112" y="436" type="curve" smooth="yes"/>
      <point x="112" y="373"/>
      <point x="114" y="289"/>
      <point x="114" y="181" type="curve" smooth="yes"/>
      <point x="114" y="165"/>
      <point x="112" y="150"/>
      <point x="112" y="134" type="curve" smooth="yes"/>
      <point x="112" y="124" type="line" smooth="yes"/>
      <point x="112" y="14"/>
      <point x="144" y="-12"/>
      <point x="198" y="-12" type="curve" smooth="yes"/>
      <point x="218" y="-12"/>
      <point x="273" y="25"/>
      <point x="274" y="89" type="curve"/>
      <point x="256" y="319" type="line" smooth="yes"/>
      <point x="253" y="384"/>
      <point x="248" y="461"/>
      <point x="248" y="528" type="curve" smooth="yes"/>
      <point x="248" y="567" type="line" smooth="yes"/>
      <point x="248" y="702"/>
      <point x="293" y="757"/>
      <point x="441" y="757" type="curve" smooth="yes"/>
      <point x="555" y="757"/>
      <point x="626" y="616"/>
      <point x="625" y="502" type="curve" smooth="yes"/>
      <point x="621" y="203" type="line" smooth="yes"/>
      <point x="621" y="183"/>
      <point x="610" y="105"/>
      <point x="610" y="101" type="curve" smooth="yes"/>
      <point x="610" y="8"/>
      <point x="661" y="-8"/>
      <point x="709" y="-8" type="curve" smooth="yes"/>
      <point x="747" y="-8"/>
      <point x="775" y="49"/>
      <point x="775" y="114" type="curve" smooth="yes"/>
      <point x="775" y="120"/>
      <point x="767" y="169"/>
      <point x="767" y="175" type="curve" smooth="yes"/>
      <point x="777" y="582" type="line"/>
      <point x="812" y="674"/>
      <point x="934" y="734"/>
      <point x="1005" y="734" type="curve" smooth="yes"/>
      <point x="1156" y="734"/>
      <point x="1238" y="600"/>
      <point x="1238" y="492" type="curve" smooth="yes"/>
      <point x="1238" y="437"/>
      <point x="1237" y="391"/>
      <point x="1237" y="337" type="curve" smooth="yes"/>
      <point x="1237" y="228"/>
      <point x="1194" y="203"/>
    </contour>
    <contour>
      <point x="745" y="-297" type="move" name="btm"/>
    </contour>
    <contour>
      <point x="726" y="1515" type="move" name="top"/>
    </contour>
  </outline>
</glyph>
<glyph name="x" format="1">
  <advance width="808"/>
  <unicode hex="0078"/>
  <outline>
    <contour>
      <point x="334" y="729" type="line" smooth="yes"/>
      <point x="282" y="841"/>
      <point x="218" y="968"/>
      <point x="183" y="968" type="curve" smooth="yes"/>
      <point x="139" y="968"/>
      <point x="116" y="926"/>
      <point x="116" y="884" type="curve" smooth="yes"/>
      <point x="116" y="846"/>
      <point x="126" y="786"/>
      <point x="150" y="757" type="curve"/>
      <point x="215" y="655"/>
      <point x="248" y="552"/>
      <point x="305" y="461" type="curve"/>
      <point x="237" y="359"/>
      <point x="175" y="282"/>
      <point x="122" y="203" type="curve" smooth="yes"/>
      <point x="101" y="175"/>
      <point x="74" y="144"/>
      <point x="74" y="84" type="curve" smooth="yes"/>
      <point x="74" y="0"/>
      <point x="116" y="-18"/>
      <point x="165" y="-18" type="curve" smooth="yes"/>
      <point x="212" y="-18"/>
      <point x="238" y="74"/>
      <point x="243" y="120" type="curve"/>
      <point x="349" y="274"/>
      <point x="363" y="284"/>
      <point x="368" y="301" type="curve"/>
      <point x="423" y="210"/>
      <point x="570" y="-25"/>
      <point x="696" y="-25" type="curve" smooth="yes"/>
      <point x="732" y="-25"/>
      <point x="773" y="4"/>
      <point x="773" y="101" type="curve" smooth="yes"/>
      <point x="773" y="149"/>
      <point x="753" y="179"/>
      <point x="712" y="179" type="curve" smooth="yes"/>
      <point x="621" y="179"/>
      <point x="499" y="392"/>
      <point x="468" y="466" type="curve"/>
      <point x="542" y="590"/>
      <point x="626" y="706"/>
      <point x="726" y="804" type="curve"/>
      <point x="757" y="843"/>
      <point x="771" y="864"/>
      <point x="771" y="889" type="curve" smooth="yes"/>
      <point x="771" y="934"/>
      <point x="753" y="973"/>
      <point x="706" y="973" type="curve" smooth="yes"/>
      <point x="631" y="973"/>
      <point x="511" y="777"/>
      <point x="399" y="590" type="curve"/>
    </contour>
    <contour>
      <point x="423" y="-297" type="move" name="btm"/>
    </contour>
    <contour>
      <point x="387" y="1515" type="move" name="top"/>
    </contour>
  </outline>
</glyph>
<glyph name="y" format="1">
  <advance width="881"/>
  <unicode hex="0079"/>
  <outline>
    <contour>
      <point x="142" y="-392" type="curve" smooth="yes"/>
      <point x="142" y="-437"/>
      <point x="210" y="-501"/>
      <point x="243" y="-501" type="curve" smooth="yes"/>
      <point x="284" y="-501"/>
      <point x="311" y="-436"/>
      <point x="311" y="-383" type="curve" smooth="yes"/>
      <point x="311" y="-203"/>
      <point x="557" y="225"/>
      <point x="660" y="437" type="curve" smooth="yes"/>
      <point x="734" y="592"/>
      <point x="802" y="679"/>
      <point x="839" y="740" type="curve" smooth="yes"/>
      <point x="899" y="836"/>
      <point x="913" y="856"/>
      <point x="913" y="891" type="curve" smooth="yes"/>
      <point x="913" y="924"/>
      <point x="897" y="968"/>
      <point x="868" y="968" type="curve" smooth="yes"/>
      <point x="820" y="968"/>
      <point x="769" y="932"/>
      <point x="736" y="868" type="curve" smooth="yes"/>
      <point x="270" y="-36" type="line"/>
      <point x="213" y="-136"/>
      <point x="144" y="-320"/>
    </contour>
    <contour>
      <point x="456" y="254" type="line"/>
      <point x="421" y="315"/>
      <point x="273" y="686"/>
      <point x="203" y="885" type="curve" smooth="yes"/>
      <point x="187" y="928"/>
      <point x="175" y="968"/>
      <point x="142" y="968" type="curve" smooth="yes"/>
      <point x="101" y="968"/>
      <point x="66" y="926"/>
      <point x="63" y="859" type="curve" smooth="yes"/>
      <point x="63" y="839"/>
      <point x="71" y="800"/>
      <point x="85" y="767" type="curve" smooth="yes"/>
      <point x="149" y="612"/>
      <point x="319" y="183"/>
      <point x="374" y="74" type="curve"/>
    </contour>
    <contour>
      <point x="726" y="-297" type="move" name="btm"/>
    </contour>
    <contour>
      <point x="452" y="1515" type="move" name="top"/>
    </contour>
  </outline>
</glyph>
<glyph name="Oslash" format="1">
  <advance width="1184"/>
  <unicode hex="00D8"/>
  <outline>
    <contour>
      <point x="1102" y="595" type="curve" smooth="yes"/>
      <point x="1102" y="775"/>
      <point x="1054" y="930"/>
      <point x="987" y="1035" type="curve"/>
      <point x="1025" y="1083" type="line" smooth="yes"/>
      <point x="1035" y="1094"/>
      <point x="1047" y="1121"/>
      <point x="1047" y="1159" type="curve" smooth="yes"/>
      <point x="1047" y="1216"/>
      <point x="1005" y="1243"/>
      <point x="977" y="1243" type="curve" smooth="yes"/>
      <point x="958" y="1243"/>
      <point x="920" y="1202"/>
      <point x="899" y="1183" type="curve" smooth="yes"/>
      <point x="871" y="1154" type="line"/>
      <point x="868" y="1154"/>
      <point x="863" y="1157"/>
      <point x="860" y="1157" type="curve" smooth="yes"/>
      <point x="790" y="1192"/>
      <point x="705" y="1221"/>
      <point x="619" y="1221" type="curve" smooth="yes"/>
      <point x="354" y="1221"/>
      <point x="76" y="1052"/>
      <point x="76" y="595" type="curve" smooth="yes"/>
      <point x="76" y="458"/>
      <point x="144" y="287"/>
      <point x="218" y="183" type="curve"/>
      <point x="163" y="91" type="line"/>
      <point x="159" y="79"/>
      <point x="150" y="58"/>
      <point x="150" y="49" type="curve" smooth="yes"/>
      <point x="150" y="-5"/>
      <point x="213" y="-66"/>
      <point x="238" y="-66" type="curve" smooth="yes"/>
      <point x="273" y="-66"/>
      <point x="313" y="0"/>
      <point x="337" y="50" type="curve"/>
      <point x="408" y="14"/>
      <point x="508" y="-23"/>
      <point x="586" y="-23" type="curve" smooth="yes"/>
      <point x="856" y="-23"/>
      <point x="1102" y="229"/>
    </contour>
    <contour>
      <point x="218" y="616" type="curve" smooth="yes"/>
      <point x="218" y="894"/>
      <point x="423" y="1025"/>
      <point x="633" y="1025" type="curve" smooth="yes"/>
      <point x="681" y="1025"/>
      <point x="715" y="1018"/>
      <point x="750" y="998" type="curve"/>
      <point x="602" y="792"/>
      <point x="418" y="491"/>
      <point x="319" y="339" type="curve"/>
      <point x="256" y="418"/>
      <point x="218" y="523"/>
    </contour>
    <contour>
      <point x="437" y="218" type="curve"/>
      <point x="462" y="260"/>
      <point x="481" y="297"/>
      <point x="523" y="364" type="curve" smooth="yes"/>
      <point x="681" y="621" type="line" smooth="yes"/>
      <point x="736" y="710"/>
      <point x="815" y="831"/>
      <point x="874" y="899" type="curve"/>
      <point x="922" y="833"/>
      <point x="963" y="715"/>
      <point x="963" y="602" type="curve" smooth="yes"/>
      <point x="963" y="324"/>
      <point x="779" y="175"/>
      <point x="578" y="175" type="curve" smooth="yes"/>
      <point x="528" y="175"/>
      <point x="473" y="189"/>
    </contour>
  </outline>
</glyph>
<glyph name="oslash" format="1">
  <advance width="968"/>
  <unicode hex="00F8"/>
  <outline>
    <contour>
      <point x="105" y="29" type="curve" smooth="yes"/>
      <point x="105" y="-26"/>
      <point x="136" y="-66"/>
      <point x="193" y="-66" type="curve" smooth="yes"/>
      <point x="229" y="-66"/>
      <point x="282" y="23"/>
      <point x="289" y="39" type="curve"/>
      <point x="337" y="14"/>
      <point x="429" y="-23"/>
      <point x="476" y="-23" type="curve" smooth="yes"/>
      <point x="684" y="-23"/>
      <point x="884" y="175"/>
      <point x="884" y="462" type="curve" smooth="yes"/>
      <point x="884" y="595"/>
      <point x="853" y="710"/>
      <point x="808" y="792" type="curve"/>
      <point x="868" y="841"/>
      <point x="889" y="859"/>
      <point x="889" y="909" type="curve" smooth="yes"/>
      <point x="889" y="960"/>
      <point x="871" y="988"/>
      <point x="831" y="988" type="curve" smooth="yes"/>
      <point x="790" y="988"/>
      <point x="732" y="930"/>
      <point x="709" y="901" type="curve"/>
      <point x="652" y="940"/>
      <point x="582" y="963"/>
      <point x="501" y="963" type="curve" smooth="yes"/>
      <point x="297" y="963"/>
      <point x="79" y="829"/>
      <point x="79" y="462" type="curve" smooth="yes"/>
      <point x="79" y="368"/>
      <point x="124" y="243"/>
      <point x="173" y="160" type="curve"/>
      <point x="150" y="129"/>
      <point x="105" y="91"/>
    </contour>
    <contour>
      <point x="205" y="481" type="curve" smooth="yes"/>
      <point x="205" y="681"/>
      <point x="368" y="775"/>
      <point x="525" y="775" type="curve" smooth="yes"/>
      <point x="562" y="775"/>
      <point x="578" y="775"/>
      <point x="592" y="767" type="curve"/>
      <point x="517" y="660" type="line" smooth="yes"/>
      <point x="456" y="574"/>
      <point x="382" y="473"/>
      <point x="344" y="408" type="curve"/>
      <point x="266" y="293" type="line"/>
      <point x="256" y="309"/>
      <point x="205" y="400"/>
    </contour>
    <contour>
      <point x="753" y="463" type="curve" smooth="yes"/>
      <point x="751" y="273"/>
      <point x="610" y="163"/>
      <point x="468" y="163" type="curve" smooth="yes"/>
      <point x="433" y="163"/>
      <point x="399" y="175"/>
      <point x="373" y="187" type="curve"/>
      <point x="462" y="315"/>
      <point x="600" y="535"/>
      <point x="696" y="666" type="curve"/>
      <point x="736" y="629"/>
      <point x="753" y="532"/>
    </contour>
  </outline>
</glyph>
<glyph name="Dcroat" format="1">
  <advance width="1178"/>
  <unicode hex="0110"/>
  <outline>
    <contour>
      <point x="153" y="686" type="curve" smooth="yes"/>
      <point x="114" y="686"/>
      <point x="130" y="694"/>
      <point x="105" y="694" type="curve" smooth="yes"/>
      <point x="66" y="694"/>
      <point x="36" y="661"/>
      <point x="36" y="605" type="curve" smooth="yes"/>
      <point x="36" y="515"/>
      <point x="79" y="502"/>
      <point x="116" y="502" type="curve" smooth="yes"/>
      <point x="179" y="502"/>
      <point x="229" y="517"/>
      <point x="283" y="517" type="curve" smooth="yes"/>
      <point x="354" y="517"/>
      <point x="418" y="499"/>
      <point x="483" y="499" type="curve" smooth="yes"/>
      <point x="507" y="499"/>
      <point x="574" y="518"/>
      <point x="574" y="590" type="curve" smooth="yes"/>
      <point x="574" y="652"/>
      <point x="550" y="694"/>
      <point x="507" y="694" type="curve" smooth="yes"/>
      <point x="387" y="694"/>
      <point x="268" y="686"/>
    </contour>
    <component base="D"/>
  </outline>
</glyph>
<glyph name="lslash" format="1">
  <advance width="552"/>
  <unicode hex="0142"/>
  <outline>
    <contour>
      <point x="363" y="678" type="curve"/>
      <point x="413" y="715"/>
      <point x="502" y="769"/>
      <point x="502" y="859" type="curve" smooth="yes"/>
      <point x="502" y="907"/>
      <point x="461" y="926"/>
      <point x="421" y="926" type="curve" smooth="yes"/>
      <point x="382" y="926"/>
      <point x="301" y="849"/>
      <point x="256" y="805" type="curve"/>
      <point x="99" y="679" type="line" smooth="yes"/>
      <point x="69" y="655"/>
      <point x="33" y="625"/>
      <point x="33" y="588" type="curve" smooth="yes"/>
      <point x="33" y="526"/>
      <point x="95" y="491"/>
      <point x="119" y="491" type="curve" smooth="yes"/>
      <point x="175" y="491"/>
      <point x="256" y="619"/>
    </contour>
    <component base="l" xOffset="20"/>
  </outline>
</glyph>
<glyph name="oe" format="1">
  <advance width="1662"/>
  <unicode hex="0153"/>
  <outline>
    <contour>
      <point x="863" y="448" type="curve" smooth="yes"/>
      <point x="863" y="491"/>
      <point x="875" y="544"/>
      <point x="879" y="590" type="curve" smooth="yes"/>
      <point x="879" y="600"/>
      <point x="879" y="615"/>
      <point x="875" y="625" type="curve" smooth="yes"/>
      <point x="814" y="802"/>
      <point x="681" y="965"/>
      <point x="515" y="965" type="curve" smooth="yes"/>
      <point x="301" y="965"/>
      <point x="84" y="829"/>
      <point x="84" y="462" type="curve" smooth="yes"/>
      <point x="84" y="243"/>
      <point x="268" y="-23"/>
      <point x="489" y="-23" type="curve" smooth="yes"/>
      <point x="623" y="-23"/>
      <point x="866" y="124"/>
      <point x="866" y="326" type="curve" smooth="yes"/>
      <point x="866" y="377"/>
      <point x="863" y="406"/>
    </contour>
    <contour>
      <point x="802" y="421" type="curve"/>
      <point x="781" y="322"/>
      <point x="775" y="287"/>
      <point x="775" y="273" type="curve" smooth="yes"/>
      <point x="775" y="266"/>
      <point x="775" y="263"/>
      <point x="777" y="260" type="curve" smooth="yes"/>
      <point x="850" y="105"/>
      <point x="1009" y="-20"/>
      <point x="1152" y="-20" type="curve" smooth="yes"/>
      <point x="1236" y="-20"/>
      <point x="1555" y="-12"/>
      <point x="1555" y="134" type="curve" smooth="yes"/>
      <point x="1555" y="200"/>
      <point x="1532" y="229"/>
      <point x="1485" y="229" type="curve" smooth="yes"/>
      <point x="1417" y="229"/>
      <point x="1325" y="160"/>
      <point x="1226" y="160" type="curve" smooth="yes"/>
      <point x="1126" y="160"/>
      <point x="944" y="179"/>
      <point x="897" y="329" type="curve"/>
      <point x="999" y="371"/>
      <point x="1126" y="411"/>
      <point x="1429" y="517" type="curve"/>
      <point x="1489" y="528"/>
      <point x="1551" y="542"/>
      <point x="1551" y="643" type="curve" smooth="yes"/>
      <point x="1551" y="850"/>
      <point x="1370" y="963"/>
      <point x="1221" y="963" type="curve" smooth="yes"/>
      <point x="993" y="963"/>
      <point x="833" y="815"/>
      <point x="773" y="598" type="curve" smooth="yes"/>
      <point x="773" y="595"/>
      <point x="773" y="590"/>
      <point x="773" y="586" type="curve" smooth="yes"/>
      <point x="773" y="525"/>
      <point x="802" y="472"/>
    </contour>
    <contour>
      <point x="1191" y="775" type="curve" smooth="yes"/>
      <point x="1299" y="775"/>
      <point x="1381" y="745"/>
      <point x="1406" y="689" type="curve"/>
      <point x="1295" y="645"/>
      <point x="1050" y="560"/>
      <point x="894" y="515" type="curve"/>
      <point x="932" y="715"/>
      <point x="1112" y="775"/>
    </contour>
    <contour>
      <point x="473" y="163" type="curve" smooth="yes"/>
      <point x="342" y="163"/>
      <point x="212" y="324"/>
      <point x="212" y="483" type="curve" smooth="yes"/>
      <point x="212" y="678"/>
      <point x="382" y="775"/>
      <point x="533" y="775" type="curve" smooth="yes"/>
      <point x="666" y="775"/>
      <point x="771" y="652"/>
      <point x="771" y="471" type="curve" smooth="yes"/>
      <point x="771" y="274"/>
      <point x="621" y="163"/>
    </contour>
    <contour>
      <point x="818" y="-297" type="move" name="btm"/>
    </contour>
  </outline>
</glyph>
<glyph name="tbar" format="1">
  <advance width="804"/>
  <unicode hex="0167"/>
  <outline>
    <contour>
      <point x="639" y="421" type="line" smooth="yes"/>
      <point x="649" y="421"/>
      <point x="661" y="418"/>
      <point x="671" y="418" type="curve" smooth="yes"/>
      <point x="694" y="418"/>
      <point x="712" y="429"/>
      <point x="712" y="497" type="curve" smooth="yes"/>
      <point x="712" y="580"/>
      <point x="681" y="595"/>
      <point x="651" y="595" type="curve" smooth="yes"/>
      <point x="540" y="595"/>
      <point x="292" y="571"/>
      <point x="203" y="571" type="curve" smooth="yes"/>
      <point x="169" y="571"/>
      <point x="139" y="578"/>
      <point x="119" y="578" type="curve" smooth="yes"/>
      <point x="91" y="578"/>
      <point x="50" y="525"/>
      <point x="50" y="476" type="curve" smooth="yes"/>
      <point x="50" y="433"/>
      <point x="74" y="392"/>
      <point x="126" y="392" type="curve"/>
    </contour>
    <component base="t"/>
  </outline>
</glyph>
<glyph name="ohorn" format="1">
  <advance width="968"/>
  <unicode hex="01A1"/>
  <outline>
    <contour>
      <point x="884" y="462" type="curve" smooth="yes"/>
      <point x="884" y="769"/>
      <point x="743" y="965"/>
      <point x="502" y="965" type="curve" smooth="yes"/>
      <point x="293" y="965"/>
      <point x="76" y="829"/>
      <point x="76" y="462" type="curve" smooth="yes"/>
      <point x="76" y="243"/>
      <point x="258" y="-23"/>
      <point x="478" y="-23" type="curve" smooth="yes"/>
      <point x="684" y="-23"/>
      <point x="884" y="175"/>
    </contour>
    <contour>
      <point x="468" y="163" type="curve" smooth="yes"/>
      <point x="334" y="163"/>
      <point x="205" y="324"/>
      <point x="205" y="483" type="curve" smooth="yes"/>
      <point x="205" y="678"/>
      <point x="374" y="775"/>
      <point x="526" y="775" type="curve" smooth="yes"/>
      <point x="655" y="775"/>
      <point x="753" y="652"/>
      <point x="753" y="471" type="curve" smooth="yes"/>
      <point x="753" y="274"/>
      <point x="612" y="163"/>
    </contour>
    <contour>
      <point x="909" y="970" type="curve" smooth="yes"/>
      <point x="946" y="970"/>
      <point x="1013" y="936"/>
      <point x="1013" y="884" type="curve" smooth="yes"/>
      <point x="1013" y="743"/>
      <point x="753" y="815"/>
      <point x="753" y="688" type="curve" smooth="yes"/>
      <point x="753" y="636"/>
      <point x="792" y="607"/>
      <point x="815" y="607" type="curve"/>
      <point x="1074" y="679"/>
      <point x="1156" y="740"/>
      <point x="1156" y="926" type="curve" smooth="yes"/>
      <point x="1156" y="1054"/>
      <point x="1054" y="1146"/>
      <point x="924" y="1146" type="curve" smooth="yes"/>
      <point x="849" y="1146"/>
      <point x="722" y="1109"/>
      <point x="722" y="1030" type="curve" smooth="yes"/>
      <point x="722" y="988"/>
      <point x="732" y="946"/>
      <point x="760" y="946" type="curve" smooth="yes"/>
      <point x="825" y="946"/>
      <point x="823" y="970"/>
    </contour>
    <contour>
      <point x="481" y="-297" type="move" name="btm"/>
    </contour>
    <contour>
      <point x="499" y="1515" type="move" name="top"/>
    </contour>
  </outline>
</glyph>
<glyph name="schwa" format="1">
  <advance width="938"/>
  <unicode hex="0259"/>
  <outline>
    <contour>
      <point x="387" y="804" type="curve" smooth="yes"/>
      <point x="483" y="804"/>
      <point x="676" y="798"/>
      <point x="722" y="645" type="curve"/>
      <point x="119" y="429" type="line" smooth="yes"/>
      <point x="84" y="418"/>
      <point x="60" y="368"/>
      <point x="60" y="301" type="curve" smooth="yes"/>
      <point x="60" y="91"/>
      <point x="240" y="-20"/>
      <point x="388" y="-20" type="curve" smooth="yes"/>
      <point x="684" y="-20"/>
      <point x="854" y="218"/>
      <point x="854" y="553" type="curve" smooth="yes"/>
      <point x="854" y="798"/>
      <point x="655" y="985"/>
      <point x="458" y="985" type="curve" smooth="yes"/>
      <point x="377" y="985"/>
      <point x="55" y="977"/>
      <point x="55" y="831" type="curve" smooth="yes"/>
      <point x="55" y="765"/>
      <point x="79" y="734"/>
      <point x="129" y="734" type="curve" smooth="yes"/>
      <point x="183" y="734"/>
      <point x="284" y="804"/>
    </contour>
    <contour>
      <point x="418" y="167" type="curve" smooth="yes"/>
      <point x="313" y="167"/>
      <point x="215" y="198"/>
      <point x="179" y="279" type="curve"/>
      <point x="295" y="324"/>
      <point x="571" y="448"/>
      <point x="732" y="495" type="curve"/>
      <point x="700" y="258"/>
      <point x="497" y="167"/>
    </contour>
  </outline>
</glyph>
<glyph name="commaaccent" format="1">
  <advance width="497"/>
  <unicode hex="0326"/>
  <outline>
    <contour>
      <point x="45" y="-429" type="curve" smooth="yes"/>
      <point x="45" y="-476"/>
      <point x="81" y="-505"/>
      <point x="122" y="-505" type="curve" smooth="yes"/>
      <point x="193" y="-505"/>
      <point x="354" y="-309"/>
      <point x="354" y="-228" type="curve" smooth="yes"/>
      <point x="354" y="-175"/>
      <point x="305" y="-119"/>
      <point x="250" y="-119" type="curve" smooth="yes"/>
      <point x="155" y="-119"/>
      <point x="142" y="-222"/>
      <point x="103" y="-293" type="curve" smooth="yes"/>
      <point x="85" y="-334"/>
      <point x="43" y="-371"/>
    </contour>
    <contour>
      <point x="248" y="1515" type="move" name="_top"/>
    </contour>
  </outline>
</glyph>
<glyph name="macronbelowcomb" format="1">
  <advance width="0"/>
  <unicode hex="0331"/>
  <outline>
    <contour>
      <point x="-228" y="-232" type="curve" name="hr00" smooth="yes"/>
      <point x="-258" y="-232"/>
      <point x="-292" y="-303"/>
      <point x="-292" y="-352" type="curve" smooth="yes"/>
      <point x="-292" y="-392"/>
      <point x="-270" y="-428"/>
      <point x="-220" y="-428" type="curve" smooth="yes"/>
      <point x="274" y="-428" type="line" smooth="yes"/>
      <point x="283" y="-428"/>
      <point x="295" y="-429"/>
      <point x="301" y="-429" type="curve" smooth="yes"/>
      <point x="328" y="-429"/>
      <point x="344" y="-419"/>
      <point x="344" y="-347" type="curve" smooth="yes"/>
      <point x="344" y="-268"/>
      <point x="324" y="-239"/>
      <point x="284" y="-239" type="curve" smooth="yes"/>
      <point x="99" y="-239"/>
      <point x="-66" y="-232"/>
    </contour>
    <contour>
      <point x="-2" y="-297" type="move" name="_btm"/>
    </contour>
  </outline>
</glyph>
<glyph name="eShort-deva" format="1">
  <advance width="1191"/>
  <unicode hex="090E"/>
  <outline>
    <component base="e-deva"/>
    <component base="eShortMatra-deva" xOffset="578" yOffset="-5"/>
    <contour>
      <point x="697" y="1411" type="move" name="bin"/>
    </contour>
  </outline>
</glyph>
<glyph name="e-deva" format="1">
  <advance width="1191"/>
  <unicode hex="090F"/>
  <outline>
    <contour>
      <point x="-5" y="1123" type="line"/>
      <point x="240" y="1123" type="line"/>
      <point x="223" y="1076"/>
      <point x="212" y="1028"/>
      <point x="212" y="987" type="curve" smooth="yes"/>
      <point x="212" y="934"/>
      <point x="228" y="779"/>
      <point x="228" y="732" type="curve" smooth="yes"/>
      <point x="228" y="607"/>
      <point x="189" y="473"/>
      <point x="139" y="400" type="curve"/>
      <point x="139" y="392"/>
      <point x="134" y="382"/>
      <point x="134" y="374" type="curve" smooth="yes"/>
      <point x="134" y="347"/>
      <point x="159" y="317"/>
      <point x="210" y="299" type="curve"/>
      <point x="416" y="179"/>
      <point x="639" y="43"/>
      <point x="844" y="-79" type="curve"/>
      <point x="993" y="-185"/>
      <point x="1083" y="-297"/>
      <point x="1083" y="-378" type="curve" smooth="yes"/>
      <point x="1083" y="-423"/>
      <point x="1070" y="-454"/>
      <point x="1048" y="-478" type="curve"/>
      <point x="1097" y="-555"/>
      <point x="1138" y="-590"/>
      <point x="1171" y="-590" type="curve" smooth="yes"/>
      <point x="1201" y="-590"/>
      <point x="1231" y="-523"/>
      <point x="1231" y="-431" type="curve" smooth="yes"/>
      <point x="1231" y="-240"/>
      <point x="993" y="-29"/>
      <point x="349" y="322" type="curve"/>
      <point x="347" y="322" type="line"/>
      <point x="384" y="371"/>
      <point x="400" y="448"/>
      <point x="400" y="547" type="curve" smooth="yes"/>
      <point x="400" y="598"/>
      <point x="387" y="815"/>
      <point x="387" y="874" type="curve" smooth="yes"/>
      <point x="387" y="1002"/>
      <point x="406" y="1092"/>
      <point x="439" y="1123" type="curve"/>
      <point x="846" y="1123" type="line"/>
      <point x="846" y="1028" type="line" smooth="yes"/>
      <point x="846" y="973"/>
      <point x="856" y="792"/>
      <point x="856" y="732" type="curve" smooth="yes"/>
      <point x="856" y="657"/>
      <point x="808" y="585"/>
      <point x="757" y="585" type="curve" smooth="yes"/>
      <point x="736" y="585"/>
      <point x="660" y="623"/>
      <point x="647" y="623" type="curve" smooth="yes"/>
      <point x="625" y="623"/>
      <point x="610" y="612"/>
      <point x="610" y="596" type="curve" smooth="yes"/>
      <point x="610" y="526"/>
      <point x="753" y="406"/>
      <point x="810" y="406" type="curve" smooth="yes"/>
      <point x="1133" y="406"/>
      <point x="932" y="1123"/>
      <point x="1097" y="1123" type="curve" smooth="yes"/>
      <point x="1213" y="1123" type="line"/>
      <point x="1213" y="1264" type="line"/>
      <point x="-5" y="1264" type="line"/>
    </contour>
    <contour>
      <point x="601" y="1257" type="move" name="bin"/>
    </contour>
    <contour>
      <point x="468" y="-96" type="move" name="bottom"/>
    </contour>
    <contour>
      <point x="1028" y="1257" type="move" name="top"/>
    </contour>
  </outline>
</glyph>
<glyph name="ga-deva" format="1">
  <advance width="1290"/>
  <unicode hex="0917"/>
  <outline>
    <contour>
      <point x="-20" y="1123" type="line"/>
      <point x="336" y="1123" type="line"/>
      <point x="336" y="777" type="line"/>
      <point x="329" y="777" type="line"/>
      <point x="317" y="798"/>
      <point x="281" y="805"/>
      <point x="234" y="805" type="curve" smooth="yes"/>
      <point x="159" y="805"/>
      <point x="104" y="726"/>
      <point x="104" y="639" type="curve" smooth="yes"/>
      <point x="104" y="483"/>
      <point x="281" y="311"/>
      <point x="438" y="311" type="curve" smooth="yes"/>
      <point x="532" y="311"/>
      <point x="491" y="532"/>
      <point x="560" y="532" type="curve" smooth="yes"/>
      <point x="576" y="532"/>
      <point x="611" y="497"/>
      <point x="621" y="497" type="curve" smooth="yes"/>
      <point x="637" y="497"/>
      <point x="651" y="523"/>
      <point x="651" y="547" type="curve" smooth="yes"/>
      <point x="651" y="580"/>
      <point x="625" y="596"/>
      <point x="506" y="661" type="curve"/>
      <point x="505" y="899" type="line" smooth="yes"/>
      <point x="503" y="1020"/>
      <point x="540" y="1123"/>
      <point x="611" y="1123" type="curve" smooth="yes"/>
      <point x="864" y="1123" type="line"/>
      <point x="864" y="283" type="line" smooth="yes"/>
      <point x="864" y="155"/>
      <point x="805" y="49"/>
      <point x="727" y="49" type="curve" smooth="yes"/>
      <point x="706" y="49"/>
      <point x="677" y="36"/>
      <point x="677" y="14" type="curve" smooth="yes"/>
      <point x="677" y="-29"/>
      <point x="805" y="-120"/>
      <point x="859" y="-120" type="curve" smooth="yes"/>
      <point x="948" y="-120"/>
      <point x="1028" y="-2"/>
      <point x="1028" y="142" type="curve" smooth="yes"/>
      <point x="1028" y="955" type="line" smooth="yes"/>
      <point x="1028" y="1050"/>
      <point x="1058" y="1123"/>
      <point x="1091" y="1123" type="curve" smooth="yes"/>
      <point x="1310" y="1123" type="line"/>
      <point x="1310" y="1264" type="line"/>
      <point x="1089" y="1264" type="line"/>
      <point x="985" y="1367" type="line"/>
      <point x="950" y="1394"/>
      <point x="932" y="1398"/>
      <point x="922" y="1400" type="curve"/>
      <point x="885" y="1400"/>
      <point x="844" y="1367"/>
      <point x="844" y="1312" type="curve" smooth="yes"/>
      <point x="844" y="1264" type="line"/>
      <point x="566" y="1264" type="line"/>
      <point x="517" y="1347"/>
      <point x="448" y="1400"/>
      <point x="393" y="1400" type="curve" smooth="yes"/>
      <point x="362" y="1400"/>
      <point x="336" y="1372"/>
      <point x="336" y="1330" type="curve" smooth="yes"/>
      <point x="336" y="1264" type="line"/>
      <point x="-20" y="1264" type="line"/>
    </contour>
    <contour>
      <point x="293" y="473" type="curve" smooth="yes"/>
      <point x="236" y="473"/>
      <point x="188" y="535"/>
      <point x="188" y="610" type="curve" smooth="yes"/>
      <point x="188" y="652"/>
      <point x="220" y="694"/>
      <point x="257" y="694" type="curve" smooth="yes"/>
      <point x="302" y="694"/>
      <point x="336" y="664"/>
      <point x="336" y="639" type="curve" smooth="yes"/>
      <point x="336" y="574"/>
      <point x="314" y="473"/>
    </contour>
    <contour>
      <point x="253" y="49" type="move" name="nukta"/>
    </contour>
    <contour>
      <point x="953" y="1267" type="move" name="top"/>
    </contour>
    <contour>
      <point x="428" y="1257" type="move" name="bin"/>
    </contour>
    <contour>
      <point x="831" y="-93" type="move" name="bottom"/>
    </contour>
  </outline>
</glyph>
<glyph name="pa-deva" format="1">
  <advance width="1331"/>
  <unicode hex="092A"/>
  <outline>
    <contour>
      <point x="-20" y="1123" type="line"/>
      <point x="297" y="1123" type="line"/>
      <point x="205" y="990"/>
      <point x="153" y="822"/>
      <point x="153" y="639" type="curve" smooth="yes"/>
      <point x="153" y="423"/>
      <point x="367" y="195"/>
      <point x="582" y="195" type="curve" smooth="yes"/>
      <point x="684" y="195"/>
      <point x="805" y="240"/>
      <point x="958" y="337" type="curve"/>
      <point x="958" y="183"/>
      <point x="903" y="49"/>
      <point x="826" y="49" type="curve" smooth="yes"/>
      <point x="798" y="49"/>
      <point x="773" y="36"/>
      <point x="773" y="14" type="curve" smooth="yes"/>
      <point x="773" y="-45"/>
      <point x="871" y="-149"/>
      <point x="936" y="-149" type="curve" smooth="yes"/>
      <point x="1048" y="-149"/>
      <point x="1123" y="71"/>
      <point x="1123" y="311" type="curve" smooth="yes"/>
      <point x="1123" y="437"/>
      <point x="1113" y="864"/>
      <point x="1113" y="987" type="curve" smooth="yes"/>
      <point x="1113" y="1060"/>
      <point x="1118" y="1123"/>
      <point x="1154" y="1123" type="curve" smooth="yes"/>
      <point x="1351" y="1123" type="line"/>
      <point x="1351" y="1264" type="line"/>
      <point x="1171" y="1264" type="line"/>
      <point x="1122" y="1345"/>
      <point x="1068" y="1400"/>
      <point x="1047" y="1400" type="curve" smooth="yes"/>
      <point x="995" y="1400"/>
      <point x="968" y="1337"/>
      <point x="968" y="1264" type="curve"/>
      <point x="-20" y="1264" type="line"/>
    </contour>
    <contour>
      <point x="419" y="347" type="curve" smooth="yes"/>
      <point x="349" y="347"/>
      <point x="289" y="421"/>
      <point x="289" y="517" type="curve" smooth="yes"/>
      <point x="289" y="726"/>
      <point x="381" y="952"/>
      <point x="560" y="1123" type="curve"/>
      <point x="960" y="1123" type="line"/>
      <point x="955" y="1057"/>
      <point x="950" y="940"/>
      <point x="950" y="767" type="curve" smooth="yes"/>
      <point x="950" y="706"/>
      <point x="958" y="489"/>
      <point x="958" y="431" type="curve"/>
      <point x="865" y="542" type="line"/>
      <point x="745" y="416"/>
      <point x="580" y="347"/>
    </contour>
    <contour>
      <point x="143" y="132" type="move" name="nukta"/>
    </contour>
    <contour>
      <point x="1078" y="1257" type="move" name="top"/>
    </contour>
    <contour>
      <point x="522" y="1257" type="move" name="bin"/>
    </contour>
    <contour>
      <point x="895" y="-84" type="move" name="bottom"/>
    </contour>
  </outline>
</glyph>
<glyph name="sa-deva" format="1">
  <advance width="1591"/>
  <unicode hex="0938"/>
  <outline>
    <contour>
      <point x="-20" y="1123" type="line"/>
      <point x="535" y="1123" type="line"/>
      <point x="544" y="1066"/>
      <point x="547" y="1008"/>
      <point x="547" y="932" type="curve" smooth="yes"/>
      <point x="547" y="874" type="line"/>
      <point x="542" y="874" type="line"/>
      <point x="501" y="899"/>
      <point x="450" y="916"/>
      <point x="392" y="916" type="curve" smooth="yes"/>
      <point x="248" y="916"/>
      <point x="134" y="790"/>
      <point x="134" y="652" type="curve" smooth="yes"/>
      <point x="134" y="578"/>
      <point x="190" y="456"/>
      <point x="273" y="364" type="curve" smooth="yes"/>
      <point x="693" y="-101" type="line" smooth="yes"/>
      <point x="700" y="-109"/>
      <point x="706" y="-119"/>
      <point x="708" y="-119" type="curve"/>
      <point x="710" y="-119" type="line"/>
      <point x="753" y="-119"/>
      <point x="796" y="-72"/>
      <point x="796" y="-29" type="curve" smooth="yes"/>
      <point x="796" y="41"/>
      <point x="630" y="141"/>
      <point x="512" y="248" type="curve"/>
      <point x="413" y="337" type="line"/>
      <point x="472" y="337" type="line" smooth="yes"/>
      <point x="567" y="337"/>
      <point x="660" y="418"/>
      <point x="686" y="532" type="curve"/>
      <point x="688" y="532" type="line"/>
      <point x="767" y="578"/>
      <point x="866" y="596"/>
      <point x="973" y="596" type="curve" smooth="yes"/>
      <point x="1035" y="596"/>
      <point x="1121" y="578"/>
      <point x="1226" y="532" type="curve"/>
      <point x="1227" y="532" type="line"/>
      <point x="1233" y="502"/>
      <point x="1238" y="448"/>
      <point x="1238" y="374" type="curve" smooth="yes"/>
      <point x="1238" y="210"/>
      <point x="1196" y="57"/>
      <point x="1114" y="57" type="curve" smooth="yes"/>
      <point x="1097" y="57"/>
      <point x="1076" y="45"/>
      <point x="1076" y="29" type="curve" smooth="yes"/>
      <point x="1076" y="-76"/>
      <point x="1178" y="-120"/>
      <point x="1248" y="-120" type="curve" smooth="yes"/>
      <point x="1330" y="-120"/>
      <point x="1372" y="63"/>
      <point x="1372" y="268" type="curve" smooth="yes"/>
      <point x="1372" y="1003" type="line" smooth="yes"/>
      <point x="1372" y="1107"/>
      <point x="1398" y="1123"/>
      <point x="1421" y="1123" type="curve" smooth="yes"/>
      <point x="1611" y="1123" type="line"/>
      <point x="1611" y="1264" type="line"/>
      <point x="1426" y="1264" type="line"/>
      <point x="1372" y="1332"/>
      <point x="1327" y="1396"/>
      <point x="1283" y="1396" type="curve" smooth="yes"/>
      <point x="1243" y="1396"/>
      <point x="1216" y="1357"/>
      <point x="1216" y="1264" type="curve"/>
      <point x="724" y="1264" type="line"/>
      <point x="655" y="1355"/>
      <point x="633" y="1396"/>
      <point x="582" y="1396" type="curve" smooth="yes"/>
      <point x="555" y="1396"/>
      <point x="525" y="1361"/>
      <point x="525" y="1264" type="curve"/>
      <point x="-20" y="1264" type="line"/>
    </contour>
    <contour>
      <point x="326" y="473" type="curve"/>
      <point x="293" y="481"/>
      <point x="266" y="505"/>
      <point x="266" y="532" type="curve" smooth="yes"/>
      <point x="266" y="639"/>
      <point x="339" y="740"/>
      <point x="427" y="740" type="curve" smooth="yes"/>
      <point x="439" y="740"/>
      <point x="471" y="736"/>
      <point x="489" y="732" type="curve"/>
      <point x="547" y="705" type="line"/>
      <point x="521" y="574"/>
      <point x="413" y="473"/>
    </contour>
    <contour>
      <point x="688" y="987" type="line" smooth="yes"/>
      <point x="688" y="1033"/>
      <point x="688" y="1099"/>
      <point x="712" y="1123" type="curve"/>
      <point x="1216" y="1123" type="line"/>
      <point x="1219" y="1013"/>
      <point x="1226" y="765"/>
      <point x="1227" y="710" type="curve"/>
      <point x="1117" y="757"/>
      <point x="1030" y="777"/>
      <point x="963" y="777" type="curve" smooth="yes"/>
      <point x="850" y="777"/>
      <point x="753" y="767"/>
      <point x="688" y="732" type="curve"/>
    </contour>
    <contour>
      <point x="172" y="58" type="move" name="nukta"/>
    </contour>
    <contour>
      <point x="1320" y="1257" type="move" name="top"/>
    </contour>
    <contour>
      <point x="863" y="1257" type="move" name="bin"/>
    </contour>
    <contour>
      <point x="1170" y="-62" type="move" name="bottom"/>
    </contour>
  </outline>
</glyph>
<glyph name="uuMatra-deva" format="1">
  <advance width="540"/>
  <unicode hex="0942"/>
  <outline>
    <contour>
      <point x="1" y="-364" type="curve" smooth="yes"/>
      <point x="1" y="-509"/>
      <point x="130" y="-655"/>
      <point x="257" y="-655" type="curve" smooth="yes"/>
      <point x="385" y="-655"/>
      <point x="502" y="-536"/>
      <point x="535" y="-378" type="curve"/>
      <point x="538" y="-378" type="line"/>
      <point x="555" y="-387"/>
      <point x="565" y="-410"/>
      <point x="595" y="-442" type="curve"/>
      <point x="598" y="-442" type="line"/>
      <point x="756" y="-630"/>
      <point x="861" y="-724"/>
      <point x="941" y="-732" type="curve"/>
      <point x="964" y="-732"/>
      <point x="1002" y="-720"/>
      <point x="1054" y="-693" type="curve"/>
      <point x="1021" y="-551" type="line"/>
      <point x="958" y="-573" type="line" smooth="yes"/>
      <point x="952" y="-576"/>
      <point x="941" y="-577"/>
      <point x="941" y="-577" type="curve"/>
      <point x="877" y="-577"/>
      <point x="813" y="-518"/>
      <point x="634" y="-315" type="curve" smooth="yes"/>
      <point x="518" y="-179"/>
      <point x="381" y="-101"/>
      <point x="268" y="-101" type="curve" smooth="yes"/>
      <point x="110" y="-101"/>
      <point x="1" y="-225"/>
    </contour>
    <contour>
      <point x="257" y="-528" type="curve" smooth="yes"/>
      <point x="196" y="-528"/>
      <point x="135" y="-476"/>
      <point x="135" y="-418" type="curve" smooth="yes"/>
      <point x="135" y="-335"/>
      <point x="234" y="-258"/>
      <point x="315" y="-258" type="curve" smooth="yes"/>
      <point x="376" y="-258"/>
      <point x="434" y="-296"/>
      <point x="434" y="-337" type="curve" smooth="yes"/>
      <point x="434" y="-427"/>
      <point x="325" y="-528"/>
    </contour>
    <contour>
      <point x="270" y="0" type="move" name="_bottom"/>
    </contour>
  </outline>
</glyph>
<glyph name="rVocalicMatra-deva" format="1">
  <advance width="540"/>
  <unicode hex="0943"/>
  <outline>
    <contour>
      <point x="-108" y="-352" type="curve" smooth="yes"/>
      <point x="-108" y="-600"/>
      <point x="92" y="-801"/>
      <point x="324" y="-801" type="curve" smooth="yes"/>
      <point x="359" y="-801" type="line" smooth="yes"/>
      <point x="536" y="-801"/>
      <point x="623" y="-775"/>
      <point x="623" y="-718" type="curve" smooth="yes"/>
      <point x="623" y="-681"/>
      <point x="542" y="-600"/>
      <point x="509" y="-600" type="curve" smooth="yes"/>
      <point x="462" y="-600"/>
      <point x="334" y="-667"/>
      <point x="285" y="-667" type="curve" smooth="yes"/>
      <point x="125" y="-667"/>
      <point x="19" y="-594"/>
      <point x="19" y="-494" type="curve" smooth="yes"/>
      <point x="19" y="-342"/>
      <point x="102" y="-268"/>
      <point x="251" y="-268" type="curve" smooth="yes"/>
      <point x="295" y="-268"/>
      <point x="449" y="-323"/>
      <point x="497" y="-323" type="curve" smooth="yes"/>
      <point x="536" y="-323"/>
      <point x="567" y="-311"/>
      <point x="567" y="-284" type="curve" smooth="yes"/>
      <point x="567" y="-218"/>
      <point x="477" y="-99"/>
      <point x="432" y="-99" type="curve" smooth="yes"/>
      <point x="285" y="-99" type="line" smooth="yes"/>
      <point x="72" y="-99"/>
      <point x="-108" y="-216"/>
    </contour>
    <contour>
      <point x="279" y="0" type="move" name="_bottom"/>
    </contour>
  </outline>
</glyph>
<glyph name="ueMatra-deva" format="1">
  <advance width="540"/>
  <unicode hex="0956"/>
  <outline>
    <contour>
      <point x="-106" y="-310"/>
      <point x="55" y="-416"/>
      <point x="291" y="-416" type="curve" smooth="yes"/>
      <point x="571" y="-416"/>
      <point x="722" y="-341"/>
      <point x="722" y="-190" type="curve" smooth="yes"/>
      <point x="722" y="-130"/>
      <point x="686" y="-99"/>
      <point x="656" y="-99" type="curve" smooth="yes"/>
      <point x="631" y="-99"/>
      <point x="582" y="-117"/>
      <point x="582" y="-179" type="curve" smooth="yes"/>
      <point x="582" y="-234"/>
      <point x="481" y="-266"/>
      <point x="293" y="-266" type="curve" smooth="yes"/>
      <point x="110" y="-266"/>
      <point x="34" y="-186"/>
      <point x="22" y="-145" type="curve" smooth="yes"/>
      <point x="11" y="-109"/>
      <point x="-21" y="-91"/>
      <point x="-53" y="-91" type="curve" smooth="yes"/>
      <point x="-77" y="-91"/>
      <point x="-106" y="-120"/>
      <point x="-106" y="-183" type="curve" smooth="yes"/>
    </contour>
  </outline>
</glyph>
<glyph name="llVocalicMatra-deva" format="1">
  <advance width="540"/>
  <unicode hex="0963"/>
  <outline>
    <contour>
      <point x="-109" y="-223" type="curve" smooth="yes"/>
      <point x="-109" y="-441"/>
      <point x="-18" y="-612"/>
      <point x="159" y="-612" type="curve" smooth="yes"/>
      <point x="166" y="-612"/>
      <point x="179" y="-599"/>
      <point x="179" y="-583" type="curve"/>
      <point x="161" y="-478"/>
      <point x="-10" y="-586"/>
      <point x="-10" y="-294" type="curve" smooth="yes"/>
      <point x="-10" y="-190"/>
      <point x="55" y="-97"/>
      <point x="146" y="-97" type="curve" smooth="yes"/>
      <point x="179" y="-97"/>
      <point x="213" y="-120"/>
      <point x="244" y="-148" type="curve"/>
      <point x="246" y="-148" type="line"/>
      <point x="223" y="-178"/>
      <point x="218" y="-202"/>
      <point x="218" y="-218" type="curve" smooth="yes"/>
      <point x="218" y="-249"/>
      <point x="291" y="-303"/>
      <point x="304" y="-303" type="curve" smooth="yes"/>
      <point x="307" y="-303"/>
      <point x="307" y="-303"/>
      <point x="307" y="-302" type="curve"/>
      <point x="317" y="-278" type="line"/>
      <point x="344" y="-197"/>
      <point x="425" y="-130"/>
      <point x="496" y="-130" type="curve" smooth="yes"/>
      <point x="559" y="-130"/>
      <point x="616" y="-193"/>
      <point x="616" y="-252" type="curve" smooth="yes"/>
      <point x="616" y="-505"/>
      <point x="313" y="-371"/>
      <point x="313" y="-530" type="curve" smooth="yes"/>
      <point x="313" y="-584"/>
      <point x="362" y="-643"/>
      <point x="410" y="-670" type="curve"/>
      <point x="380" y="-690" type="line"/>
      <point x="380" y="-704"/>
      <point x="373" y="-710"/>
      <point x="373" y="-725" type="curve" smooth="yes"/>
      <point x="373" y="-794"/>
      <point x="468" y="-850"/>
      <point x="572" y="-850" type="curve" smooth="yes"/>
      <point x="748" y="-850"/>
      <point x="925" y="-801"/>
      <point x="925" y="-751" type="curve" smooth="yes"/>
      <point x="925" y="-710"/>
      <point x="901" y="-687"/>
      <point x="869" y="-687" type="curve" smooth="yes"/>
      <point x="854" y="-687"/>
      <point x="832" y="-690"/>
      <point x="810" y="-705" type="curve" smooth="yes"/>
      <point x="730" y="-761"/>
      <point x="648" y="-787"/>
      <point x="547" y="-787" type="curve" smooth="yes"/>
      <point x="496" y="-787"/>
      <point x="456" y="-765"/>
      <point x="456" y="-736" type="curve" smooth="yes"/>
      <point x="456" y="-705"/>
      <point x="491" y="-687"/>
      <point x="532" y="-687" type="curve" smooth="yes"/>
      <point x="671" y="-687" type="line"/>
      <point x="677" y="-685"/>
      <point x="681" y="-685"/>
      <point x="681" y="-680" type="curve" smooth="yes"/>
      <point x="681" y="-656"/>
      <point x="645" y="-591"/>
      <point x="612" y="-591" type="curve" smooth="yes"/>
      <point x="593" y="-591"/>
      <point x="502" y="-627"/>
      <point x="483" y="-627" type="curve" smooth="yes"/>
      <point x="443" y="-627"/>
      <point x="404" y="-596"/>
      <point x="404" y="-570" type="curve" smooth="yes"/>
      <point x="404" y="-502"/>
      <point x="712" y="-530"/>
      <point x="712" y="-299" type="curve" smooth="yes"/>
      <point x="712" y="-187"/>
      <point x="553" y="-36"/>
      <point x="435" y="-36" type="curve" smooth="yes"/>
      <point x="398" y="-36"/>
      <point x="339" y="-64"/>
      <point x="274" y="-118" type="curve"/>
      <point x="268" y="-118" type="line"/>
      <point x="248" y="-39"/>
      <point x="189" y="12"/>
      <point x="105" y="12" type="curve" smooth="yes"/>
      <point x="-6" y="12"/>
      <point x="-109" y="-89"/>
    </contour>
    <contour>
      <point x="303" y="0" type="move" name="_bottom"/>
    </contour>
  </outline>
</glyph>
<glyph name="zero-deva" format="1">
  <advance width="1518"/>
  <unicode hex="0966"/>
  <outline>
    <contour>
      <point x="298" y="543" type="curve" smooth="yes"/>
      <point x="298" y="160"/>
      <point x="507" y="-144"/>
      <point x="749" y="-144" type="curve" smooth="yes"/>
      <point x="993" y="-144"/>
      <point x="1189" y="296"/>
      <point x="1189" y="802" type="curve" smooth="yes"/>
      <point x="1189" y="1156"/>
      <point x="990" y="1447"/>
      <point x="764" y="1447" type="curve" smooth="yes"/>
      <point x="507" y="1447"/>
      <point x="298" y="1027"/>
    </contour>
    <contour>
      <point x="626" y="16" type="curve" smooth="yes"/>
      <point x="520" y="16"/>
      <point x="414" y="199"/>
      <point x="414" y="416" type="curve" smooth="yes"/>
      <point x="414" y="771"/>
      <point x="647" y="1282"/>
      <point x="839" y="1282" type="curve" smooth="yes"/>
      <point x="960" y="1282"/>
      <point x="1075" y="1105"/>
      <point x="1075" y="895" type="curve" smooth="yes"/>
      <point x="1075" y="416"/>
      <point x="868" y="16"/>
    </contour>
  </outline>
</glyph>
<glyph name="aw-deva" format="1">
  <advance width="2237"/>
  <unicode hex="0975"/>
  <outline>
    <contour>
      <point x="2129" y="1555"/>
      <point x="2018" y="1813"/>
      <point x="1768" y="1813" type="curve" smooth="yes"/>
      <point x="1601" y="1813"/>
      <point x="1354" y="1783"/>
      <point x="1354" y="1889" type="curve" smooth="yes"/>
      <point x="1354" y="1921"/>
      <point x="1317" y="1951"/>
      <point x="1272" y="1951" type="curve" smooth="yes"/>
      <point x="1232" y="1951"/>
      <point x="1198" y="1917"/>
      <point x="1198" y="1879" type="curve" smooth="yes"/>
      <point x="1198" y="1662"/>
      <point x="1525" y="1697"/>
      <point x="1770" y="1697" type="curve" smooth="yes"/>
      <point x="1927" y="1697"/>
      <point x="2030" y="1464"/>
      <point x="2030" y="1264" type="curve"/>
      <point x="1941" y="1264" type="line"/>
      <point x="1923" y="1404"/>
      <point x="1846" y="1583"/>
      <point x="1644" y="1583" type="curve" smooth="yes"/>
      <point x="1416" y="1583"/>
      <point x="1178" y="1559"/>
      <point x="1178" y="1669" type="curve" smooth="yes"/>
      <point x="1178" y="1703"/>
      <point x="1138" y="1728"/>
      <point x="1099" y="1728" type="curve" smooth="yes"/>
      <point x="1061" y="1728"/>
      <point x="1024" y="1699"/>
      <point x="1024" y="1651" type="curve" smooth="yes"/>
      <point x="1024" y="1439"/>
      <point x="1345" y="1464"/>
      <point x="1636" y="1464" type="curve" smooth="yes"/>
      <point x="1781" y="1464"/>
      <point x="1819" y="1337"/>
      <point x="1846" y="1264" type="curve"/>
      <point x="2014" y="1200" type="line"/>
      <point x="2131" y="1264" type="line"/>
    </contour>
    <component base="aa-deva"/>
  </outline>
</glyph>
<glyph name="Germandbls" format="1">
  <advance width="1020"/>
  <unicode hex="1E9E"/>
  <outline>
    <contour>
      <point x="839" y="346" type="curve" smooth="yes"/>
      <point x="839" y="228"/>
      <point x="709" y="177"/>
      <point x="631" y="177" type="curve" smooth="yes"/>
      <point x="586" y="177"/>
      <point x="525" y="189"/>
      <point x="525" y="213" type="curve" smooth="yes"/>
      <point x="525" y="299"/>
      <point x="478" y="317"/>
      <point x="456" y="317" type="curve" smooth="yes"/>
      <point x="411" y="317"/>
      <point x="384" y="240"/>
      <point x="384" y="179" type="curve" smooth="yes"/>
      <point x="384" y="66"/>
      <point x="446" y="-29"/>
      <point x="605" y="-29" type="curve" smooth="yes"/>
      <point x="781" y="-29"/>
      <point x="973" y="101"/>
      <point x="973" y="367" type="curve" smooth="yes"/>
      <point x="973" y="478"/>
      <point x="905" y="559"/>
      <point x="773" y="599" type="curve" smooth="yes"/>
      <point x="588" y="655" type="line"/>
      <point x="641" y="710" type="line"/>
      <point x="790" y="879"/>
      <point x="901" y="1023"/>
      <point x="901" y="1099" type="curve" smooth="yes"/>
      <point x="901" y="1174"/>
      <point x="757" y="1256"/>
      <point x="612" y="1256" type="curve" smooth="yes"/>
      <point x="423" y="1256"/>
      <point x="215" y="1156"/>
      <point x="153" y="967" type="curve" smooth="yes"/>
      <point x="124" y="879"/>
      <point x="120" y="760"/>
      <point x="119" y="678" type="curve"/>
      <point x="119" y="91" type="line" smooth="yes"/>
      <point x="119" y="10"/>
      <point x="129" y="-29"/>
      <point x="212" y="-29" type="curve" smooth="yes"/>
      <point x="260" y="-29"/>
      <point x="267" y="-5"/>
      <point x="267" y="91" type="curve" smooth="yes"/>
      <point x="267" y="223"/>
      <point x="253" y="356"/>
      <point x="253" y="492" type="curve" smooth="yes"/>
      <point x="253" y="544"/>
      <point x="253" y="610"/>
      <point x="254" y="681" type="curve" smooth="yes"/>
      <point x="258" y="833"/>
      <point x="263" y="1066"/>
      <point x="562" y="1066" type="curve" smooth="yes"/>
      <point x="676" y="1066"/>
      <point x="697" y="1025"/>
      <point x="705" y="1008" type="curve"/>
      <point x="691" y="983"/>
      <point x="685" y="950"/>
      <point x="579" y="849" type="curve"/>
      <point x="516" y="774"/>
      <point x="409" y="625"/>
      <point x="409" y="582" type="curve" smooth="yes"/>
      <point x="409" y="429"/>
      <point x="839" y="481"/>
    </contour>
    <contour>
      <point x="545" y="-297" type="move" name="btm"/>
    </contour>
  </outline>
</glyph>
<glyph name="oneeighth" format="1">
  <advance width="1702"/>
  <unicode hex="215B"/>
  <outline>
    <contour>
      <point x="265" y="1291"/>
      <point x="289" y="1269"/>
      <point x="304" y="1234" type="curve"/>
      <point x="297" y="957"/>
      <point x="259" y="891"/>
      <point x="259" y="671" type="curve"/>
      <point x="259" y="538"/>
      <point x="272" y="438"/>
      <point x="358" y="438" type="curve" smooth="yes"/>
      <point x="394" y="438"/>
      <point x="427" y="483"/>
      <point x="427" y="542" type="curve" smooth="yes"/>
      <point x="427" y="586"/>
      <point x="423" y="646"/>
      <point x="416" y="693" type="curve"/>
      <point x="414" y="1045"/>
      <point x="450" y="1084"/>
      <point x="458" y="1366" type="curve"/>
      <point x="458" y="1453"/>
      <point x="380" y="1486"/>
      <point x="358" y="1486" type="curve" smooth="yes"/>
      <point x="320" y="1486"/>
      <point x="265" y="1414"/>
      <point x="265" y="1356" type="curve" smooth="yes"/>
    </contour>
    <contour>
      <point x="1284" y="-395" type="curve" smooth="yes"/>
      <point x="1447" y="-395"/>
      <point x="1526" y="-305"/>
      <point x="1526" y="-147" type="curve" smooth="yes"/>
      <point x="1526" y="-60"/>
      <point x="1476" y="127"/>
      <point x="1431" y="209" type="curve"/>
      <point x="1485" y="248"/>
      <point x="1560" y="344"/>
      <point x="1599" y="392" type="curve"/>
      <point x="1643" y="412"/>
      <point x="1669" y="452"/>
      <point x="1669" y="520" type="curve" smooth="yes"/>
      <point x="1669" y="623"/>
      <point x="1610" y="754"/>
      <point x="1512" y="754" type="curve" smooth="yes"/>
      <point x="1373" y="754"/>
      <point x="1097" y="686"/>
      <point x="1097" y="450" type="curve" smooth="yes"/>
      <point x="1097" y="367"/>
      <point x="1167" y="252"/>
      <point x="1211" y="196" type="curve"/>
      <point x="1108" y="105"/>
      <point x="1031" y="-53"/>
      <point x="1031" y="-178" type="curve" smooth="yes"/>
      <point x="1031" y="-364"/>
      <point x="1141" y="-395"/>
    </contour>
    <contour>
      <point x="1227" y="450" type="curve" smooth="yes"/>
      <point x="1230" y="536"/>
      <point x="1415" y="573"/>
      <point x="1484" y="573" type="curve" smooth="yes"/>
      <point x="1512" y="573"/>
      <point x="1551" y="570"/>
      <point x="1559" y="554" type="curve"/>
      <point x="1527" y="498"/>
      <point x="1427" y="298"/>
      <point x="1368" y="298" type="curve" smooth="yes"/>
      <point x="1352" y="298"/>
      <point x="1227" y="434"/>
    </contour>
    <contour>
      <point x="1155" y="-127" type="curve" smooth="yes"/>
      <point x="1155" y="-80"/>
      <point x="1179" y="105"/>
      <point x="1297" y="105" type="curve" smooth="yes"/>
      <point x="1351" y="105"/>
      <point x="1396" y="-124"/>
      <point x="1396" y="-164" type="curve" smooth="yes"/>
      <point x="1396" y="-196"/>
      <point x="1339" y="-206"/>
      <point x="1271" y="-206" type="curve" smooth="yes"/>
      <point x="1181" y="-206"/>
      <point x="1155" y="-190"/>
    </contour>
    <component base="fraction" xOffset="716"/>
  </outline>
</glyph>
<glyph name="product" format="1">
  <advance width="1030"/>
  <unicode hex="220F"/>
  <outline>
    <contour>
      <point x="839" y="-159" type="curve" smooth="yes"/>
      <point x="881" y="-159"/>
      <point x="907" y="-105"/>
      <point x="913" y="-53" type="curve"/>
      <point x="914" y="14"/>
      <point x="897" y="689"/>
      <point x="897" y="952" type="curve" smooth="yes"/>
      <point x="897" y="1057" type="line" smooth="yes"/>
      <point x="897" y="1123"/>
      <point x="885" y="1194"/>
      <point x="829" y="1194" type="curve" smooth="yes"/>
      <point x="815" y="1194"/>
      <point x="810" y="1192"/>
      <point x="192" y="1196" type="curve"/>
      <point x="159" y="1196"/>
      <point x="129" y="1147"/>
      <point x="129" y="1093" type="curve"/>
      <point x="119" y="-57" type="line" smooth="yes"/>
      <point x="119" y="-120"/>
      <point x="159" y="-153"/>
      <point x="184" y="-153" type="curve" smooth="yes"/>
      <point x="213" y="-153"/>
      <point x="258" y="-116"/>
      <point x="263" y="-66" type="curve" smooth="yes"/>
      <point x="266" y="25"/>
      <point x="266" y="184"/>
      <point x="263" y="987" type="curve"/>
      <point x="760" y="985" type="line"/>
      <point x="760" y="615"/>
      <point x="760" y="397"/>
      <point x="769" y="-8" type="curve"/>
      <point x="769" y="-116"/>
      <point x="790" y="-159"/>
    </contour>
    <contour>
      <point x="492" y="1429" type="move" name="top"/>
    </contour>
  </outline>
</glyph>
<glyph name="aiMatra_reph-deva" format="1">
  <advance width="540"/>
  <outline>
    <component base="aiMatra-deva" xOffset="-101"/>
    <component base="reph-deva" xOffset="76" yOffset="-6"/>
    <contour>
      <point x="587" y="1340" type="move" name="bin"/>
    </contour>
    <contour>
      <point x="216" y="1257" type="move" name="_top"/>
    </contour>
  </outline>
</glyph>
<glyph name="b_na-deva" format="1">
  <advance width="1352"/>
  <outline>
    <contour>
      <point x="205" y="-391"/>
      <point x="358" y="-424"/>
      <point x="459" y="-353" type="curve" smooth="yes"/>
      <point x="518" y="-312"/>
      <point x="515" y="-226"/>
      <point x="465" y="-154" type="curve" smooth="yes"/>
      <point x="430" y="-103"/>
      <point x="382" y="-54"/>
      <point x="346" y="-37" type="curve"/>
      <point x="348" y="-36" type="line"/>
      <point x="384" y="27"/>
      <point x="437" y="82"/>
      <point x="526" y="153" type="curve" smooth="yes"/>
      <point x="587" y="202"/>
      <point x="688" y="233"/>
      <point x="783" y="264" type="curve"/>
      <point x="754" y="345" type="line"/>
      <point x="673" y="345"/>
      <point x="509" y="306"/>
      <point x="397" y="228" type="curve" smooth="yes"/>
      <point x="312" y="169"/>
      <point x="217" y="74"/>
      <point x="162" y="-13" type="curve"/>
      <point x="159" y="-15" type="line"/>
      <point x="92" y="5"/>
      <point x="38" y="8"/>
      <point x="16" y="-7" type="curve" smooth="yes"/>
      <point x="-2" y="-20"/>
      <point x="-5" y="-49"/>
      <point x="12" y="-73" type="curve" smooth="yes"/>
      <point x="18" y="-81"/>
      <point x="45" y="-93"/>
      <point x="79" y="-90" type="curve"/>
      <point x="118" y="-104" type="line"/>
      <point x="117" y="-105" type="line"/>
      <point x="93" y="-167"/>
      <point x="92" y="-229"/>
      <point x="129" y="-282" type="curve" smooth="yes"/>
    </contour>
    <contour>
      <point x="402" y="-204"/>
      <point x="400" y="-264"/>
      <point x="372" y="-284" type="curve" smooth="yes"/>
      <point x="341" y="-306"/>
      <point x="286" y="-291"/>
      <point x="256" y="-248" type="curve" smooth="yes"/>
      <point x="231" y="-213"/>
      <point x="240" y="-161"/>
      <point x="257" y="-149" type="curve" smooth="yes"/>
      <point x="293" y="-123"/>
      <point x="354" y="-135"/>
      <point x="380" y="-173" type="curve" smooth="yes"/>
    </contour>
    <component base="ba-deva"/>
  </outline>
</glyph>
<glyph name="b_sa-deva" format="1">
  <advance width="2213"/>
  <outline>
    <contour>
      <point x="898" y="474" type="line"/>
      <point x="853" y="441" type="line"/>
      <point x="793" y="673"/>
      <point x="614" y="835"/>
      <point x="419" y="835" type="curve" smooth="yes"/>
      <point x="222" y="835"/>
      <point x="42" y="720"/>
      <point x="42" y="577" type="curve" smooth="yes"/>
      <point x="42" y="369"/>
      <point x="280" y="152"/>
      <point x="475" y="152" type="curve" smooth="yes"/>
      <point x="627" y="152"/>
      <point x="802" y="197"/>
      <point x="951" y="308" type="curve"/>
    </contour>
    <contour>
      <point x="459" y="317"/>
      <point x="419" y="308"/>
      <point x="362" y="308" type="curve" smooth="yes"/>
      <point x="246" y="308"/>
      <point x="170" y="371"/>
      <point x="170" y="451" type="curve" smooth="yes"/>
      <point x="170" y="528"/>
      <point x="255" y="642"/>
      <point x="394" y="662" type="curve"/>
      <point x="428" y="556"/>
      <point x="468" y="429"/>
      <point x="498" y="324" type="curve"/>
    </contour>
    <contour>
      <point x="466" y="683" type="line"/>
      <point x="498" y="690"/>
      <point x="521" y="695"/>
      <point x="540" y="695" type="curve" smooth="yes"/>
      <point x="635" y="695"/>
      <point x="747" y="575"/>
      <point x="807" y="421" type="curve"/>
      <point x="725" y="391"/>
      <point x="649" y="367"/>
      <point x="578" y="351" type="curve"/>
    </contour>
    <contour>
      <point x="605" y="1264" type="line"/>
      <point x="-31" y="1264" type="line"/>
      <point x="-31" y="1123" type="line"/>
      <point x="606" y="1123" type="line"/>
    </contour>
    <component base="sa-deva" xOffset="622"/>
  </outline>
</glyph>
<glyph name="bha_ra-deva" format="1">
  <advance width="1436"/>
  <outline>
    <contour>
      <point x="325" y="-11"/>
      <point x="299" y="-35"/>
      <point x="299" y="-65" type="curve" smooth="yes"/>
      <point x="299" y="-83"/>
      <point x="439" y="-182"/>
      <point x="471" y="-182" type="curve" smooth="yes"/>
      <point x="514" y="-182"/>
      <point x="587" y="-130"/>
      <point x="757" y="29" type="curve"/>
      <point x="864" y="141"/>
      <point x="1067" y="351"/>
      <point x="1095" y="390" type="curve"/>
      <point x="1031" y="457" type="line"/>
      <point x="768" y="231"/>
      <point x="524" y="-11"/>
      <point x="361" y="-11" type="curve" smooth="yes"/>
    </contour>
    <component base="bha-deva" xOffset="-69"/>
    <contour>
      <point x="506" y="1257" type="move" name="bin"/>
    </contour>
    <contour>
      <point x="1062" y="-65" type="move" name="bottom"/>
    </contour>
    <contour>
      <point x="1220" y="1257" type="move" name="top"/>
    </contour>
  </outline>
</glyph>
<glyph name="brevecomb_acutecomb" format="1">
  <advance width="625"/>
  <outline>
    <contour>
      <point x="315" y="1047" type="curve" smooth="yes"/>
      <point x="495" y="1047"/>
      <point x="616" y="1178"/>
      <point x="616" y="1332" type="curve" smooth="yes"/>
      <point x="616" y="1400"/>
      <point x="580" y="1431"/>
      <point x="550" y="1431" type="curve" smooth="yes"/>
      <point x="525" y="1431"/>
      <point x="476" y="1414"/>
      <point x="476" y="1341" type="curve" smooth="yes"/>
      <point x="476" y="1248"/>
      <point x="381" y="1223"/>
      <point x="307" y="1223" type="curve" smooth="yes"/>
      <point x="60" y="1223"/>
      <point x="205" y="1429"/>
      <point x="81" y="1429" type="curve" smooth="yes"/>
      <point x="57" y="1429"/>
      <point x="8" y="1410"/>
      <point x="8" y="1317" type="curve" smooth="yes"/>
      <point x="8" y="1107"/>
      <point x="159" y="1047"/>
    </contour>
    <contour>
      <point x="284" y="1499" type="curve"/>
      <point x="347" y="1499"/>
      <point x="621" y="1620"/>
      <point x="621" y="1745" type="curve" smooth="yes"/>
      <point x="621" y="1807"/>
      <point x="588" y="1829"/>
      <point x="547" y="1829" type="curve" smooth="yes"/>
      <point x="486" y="1829"/>
      <point x="406" y="1723"/>
      <point x="313" y="1669" type="curve" smooth="yes"/>
      <point x="279" y="1646"/>
      <point x="244" y="1615"/>
      <point x="244" y="1567" type="curve" smooth="yes"/>
      <point x="244" y="1504"/>
      <point x="284" y="1499"/>
    </contour>
    <contour>
      <point x="313" y="1515" type="move" name="_top"/>
    </contour>
  </outline>
</glyph>
<glyph name="brevecomb_gravecomb.cap" format="1">
  <advance width="625"/>
  <outline>
    <contour>
      <point x="315" y="1268" type="curve" smooth="yes"/>
      <point x="495" y="1268"/>
      <point x="616" y="1361"/>
      <point x="616" y="1515" type="curve" smooth="yes"/>
      <point x="616" y="1583"/>
      <point x="580" y="1614"/>
      <point x="550" y="1614" type="curve" smooth="yes"/>
      <point x="525" y="1614"/>
      <point x="476" y="1598"/>
      <point x="476" y="1525" type="curve" smooth="yes"/>
      <point x="476" y="1433"/>
      <point x="381" y="1426"/>
      <point x="307" y="1426" type="curve" smooth="yes"/>
      <point x="60" y="1426"/>
      <point x="205" y="1611"/>
      <point x="81" y="1611" type="curve" smooth="yes"/>
      <point x="57" y="1611"/>
      <point x="8" y="1594"/>
      <point x="8" y="1499" type="curve" smooth="yes"/>
      <point x="8" y="1328"/>
      <point x="159" y="1268"/>
    </contour>
    <contour>
      <point x="337" y="1646" type="curve"/>
      <point x="337" y="1646"/>
      <point x="377" y="1651"/>
      <point x="377" y="1713" type="curve" smooth="yes"/>
      <point x="377" y="1763"/>
      <point x="342" y="1793"/>
      <point x="307" y="1815" type="curve" smooth="yes"/>
      <point x="215" y="1869"/>
      <point x="175" y="1936"/>
      <point x="114" y="1936" type="curve" smooth="yes"/>
      <point x="74" y="1936"/>
      <point x="40" y="1912"/>
      <point x="40" y="1852" type="curve" smooth="yes"/>
      <point x="40" y="1767"/>
      <point x="273" y="1646"/>
    </contour>
    <contour>
      <point x="311" y="1515" type="move" name="_top"/>
    </contour>
  </outline>
</glyph>
<glyph name="brevecomb_gravecomb" format="1">
  <advance width="625"/>
  <outline>
    <contour>
      <point x="315" y="1047" type="curve" smooth="yes"/>
      <point x="495" y="1047"/>
      <point x="616" y="1178"/>
      <point x="616" y="1332" type="curve" smooth="yes"/>
      <point x="616" y="1400"/>
      <point x="580" y="1431"/>
      <point x="550" y="1431" type="curve" smooth="yes"/>
      <point x="525" y="1431"/>
      <point x="476" y="1414"/>
      <point x="476" y="1341" type="curve" smooth="yes"/>
      <point x="476" y="1248"/>
      <point x="381" y="1223"/>
      <point x="307" y="1223" type="curve" smooth="yes"/>
      <point x="60" y="1223"/>
      <point x="205" y="1429"/>
      <point x="81" y="1429" type="curve" smooth="yes"/>
      <point x="57" y="1429"/>
      <point x="8" y="1410"/>
      <point x="8" y="1317" type="curve" smooth="yes"/>
      <point x="8" y="1107"/>
      <point x="159" y="1047"/>
    </contour>
    <contour>
      <point x="356" y="1499" type="curve"/>
      <point x="356" y="1499"/>
      <point x="397" y="1504"/>
      <point x="397" y="1567" type="curve" smooth="yes"/>
      <point x="397" y="1615"/>
      <point x="363" y="1646"/>
      <point x="328" y="1669" type="curve" smooth="yes"/>
      <point x="237" y="1723"/>
      <point x="155" y="1829"/>
      <point x="94" y="1829" type="curve" smooth="yes"/>
      <point x="53" y="1829"/>
      <point x="20" y="1807"/>
      <point x="20" y="1745" type="curve" smooth="yes"/>
      <point x="20" y="1620"/>
      <point x="293" y="1499"/>
    </contour>
    <contour>
      <point x="311" y="1515" type="move" name="_top"/>
    </contour>
  </outline>
</glyph>
<glyph name="ca_ca-deva" format="1">
  <advance width="2755"/>
  <outline>
    <component base="c-deva"/>
    <component base="ca-deva" xOffset="1078"/>
    <contour>
      <point x="1274" y="1257" type="move" name="bin"/>
    </contour>
    <contour>
      <point x="2336" y="-42" type="move" name="bottom"/>
    </contour>
    <contour>
      <point x="2465" y="1257" type="move" name="top"/>
    </contour>
  </outline>
</glyph>
<glyph name="candraBindu-deva.imatra" format="1">
  <advance width="634"/>
  <outline>
    <contour>
      <point x="395" y="1901"/>
      <point x="314" y="1810"/>
      <point x="314" y="1785" type="curve" smooth="yes"/>
      <point x="314" y="1760"/>
      <point x="379" y="1669"/>
      <point x="413" y="1669" type="curve" smooth="yes"/>
      <point x="445" y="1669"/>
      <point x="508" y="1771"/>
      <point x="508" y="1785" type="curve" smooth="yes"/>
      <point x="508" y="1810"/>
      <point x="419" y="1901"/>
      <point x="413" y="1901" type="curve" smooth="yes"/>
    </contour>
    <contour>
      <point x="172" y="1715"/>
      <point x="140" y="1671"/>
      <point x="140" y="1650" type="curve" smooth="yes"/>
      <point x="140" y="1526"/>
      <point x="269" y="1402"/>
      <point x="411" y="1402" type="curve" smooth="yes"/>
      <point x="560" y="1402"/>
      <point x="674" y="1493"/>
      <point x="674" y="1608" type="curve" smooth="yes"/>
      <point x="674" y="1646"/>
      <point x="637" y="1733"/>
      <point x="610" y="1733" type="curve" smooth="yes"/>
      <point x="608" y="1733"/>
      <point x="602" y="1727"/>
      <point x="598" y="1714" type="curve"/>
      <point x="588" y="1636" type="line"/>
      <point x="573" y="1576"/>
      <point x="493" y="1531"/>
      <point x="411" y="1531" type="curve" smooth="yes"/>
      <point x="277" y="1531"/>
      <point x="220" y="1602"/>
      <point x="190" y="1700" type="curve"/>
      <point x="189" y="1710"/>
      <point x="190" y="1715"/>
      <point x="187" y="1715" type="curve" smooth="yes"/>
    </contour>
    <contour>
      <point x="315" y="1257" type="move" name="_top"/>
    </contour>
  </outline>
</glyph>
<glyph name="ch_la-deva.loclMAR" format="1">
  <advance width="1567"/>
  <outline>
    <contour>
      <point x="1317" y="-155"/>
      <point x="1182" y="76"/>
      <point x="965" y="76" type="curve" smooth="yes"/>
      <point x="885" y="76"/>
      <point x="782" y="-3"/>
      <point x="755" y="-31" type="curve"/>
      <point x="739" y="-47" type="line"/>
      <point x="665" y="38"/>
      <point x="564" y="89"/>
      <point x="514" y="89" type="curve" smooth="yes"/>
      <point x="362" y="89"/>
      <point x="237" y="-39"/>
      <point x="237" y="-203" type="curve" smooth="yes"/>
      <point x="237" y="-500"/>
      <point x="461" y="-765"/>
      <point x="694" y="-765" type="curve" smooth="yes"/>
      <point x="713" y="-765"/>
      <point x="724" y="-754"/>
      <point x="724" y="-731" type="curve"/>
      <point x="719" y="-676"/>
      <point x="679" y="-644"/>
      <point x="655" y="-644" type="curve" smooth="yes"/>
      <point x="490" y="-644"/>
      <point x="372" y="-477"/>
      <point x="372" y="-302" type="curve" smooth="yes"/>
      <point x="372" y="-162"/>
      <point x="466" y="-43"/>
      <point x="593" y="-43" type="curve" smooth="yes"/>
      <point x="620" y="-43"/>
      <point x="658" y="-69"/>
      <point x="692" y="-100" type="curve"/>
      <point x="669" y="-129"/>
      <point x="660" y="-172"/>
      <point x="660" y="-196" type="curve" smooth="yes"/>
      <point x="660" y="-234"/>
      <point x="721" y="-318"/>
      <point x="763" y="-318" type="curve" smooth="yes"/>
      <point x="841" y="-318"/>
      <point x="855" y="-117"/>
      <point x="1046" y="-117" type="curve" smooth="yes"/>
      <point x="1131" y="-117"/>
      <point x="1215" y="-206"/>
      <point x="1215" y="-332" type="curve" smooth="yes"/>
      <point x="1215" y="-452"/>
      <point x="1107" y="-557"/>
      <point x="991" y="-557" type="curve" smooth="yes"/>
      <point x="981" y="-557"/>
      <point x="919" y="-546"/>
      <point x="909" y="-546" type="curve" smooth="yes"/>
      <point x="892" y="-546"/>
      <point x="873" y="-557"/>
      <point x="873" y="-576" type="curve" smooth="yes"/>
      <point x="873" y="-629"/>
      <point x="977" y="-731"/>
      <point x="1011" y="-731" type="curve" smooth="yes"/>
      <point x="1182" y="-731"/>
      <point x="1317" y="-581"/>
      <point x="1317" y="-408" type="curve" smooth="yes"/>
    </contour>
    <contour>
      <point x="1055" y="177"/>
      <point x="1175" y="347"/>
      <point x="1310" y="436" type="curve"/>
      <point x="1345" y="429"/>
      <point x="1381" y="411"/>
      <point x="1402" y="411" type="curve" smooth="yes"/>
      <point x="1421" y="411"/>
      <point x="1439" y="426"/>
      <point x="1439" y="448" type="curve" smooth="yes"/>
      <point x="1439" y="466"/>
      <point x="1396" y="468"/>
      <point x="1367" y="505" type="curve"/>
      <point x="1396" y="540"/>
      <point x="1421" y="586"/>
      <point x="1421" y="626" type="curve" smooth="yes"/>
      <point x="1421" y="716"/>
      <point x="1351" y="753"/>
      <point x="1351" y="771" type="curve" smooth="yes"/>
      <point x="1351" y="796"/>
      <point x="1410" y="775"/>
      <point x="1410" y="860" type="curve" smooth="yes"/>
      <point x="1410" y="881"/>
      <point x="1398" y="963"/>
      <point x="1398" y="983" type="curve" smooth="yes"/>
      <point x="1398" y="1057"/>
      <point x="1402" y="1123"/>
      <point x="1425" y="1123" type="curve" smooth="yes"/>
      <point x="1587" y="1123" type="line"/>
      <point x="1587" y="1264" type="line"/>
      <point x="1412" y="1264" type="line"/>
      <point x="1372" y="1318"/>
      <point x="1302" y="1357"/>
      <point x="1273" y="1357" type="curve" smooth="yes"/>
      <point x="1236" y="1357"/>
      <point x="1221" y="1330"/>
      <point x="1221" y="1302" type="curve" smooth="yes"/>
      <point x="1221" y="1264" type="line"/>
      <point x="-8" y="1264" type="line"/>
      <point x="-8" y="1123" type="line"/>
      <point x="305" y="1123" type="line"/>
      <point x="220" y="1076"/>
      <point x="163" y="993"/>
      <point x="163" y="924" type="curve" smooth="yes"/>
      <point x="163" y="856"/>
      <point x="223" y="777"/>
      <point x="305" y="739" type="curve"/>
      <point x="210" y="706"/>
      <point x="119" y="639"/>
      <point x="119" y="563" type="curve" smooth="yes"/>
      <point x="119" y="384"/>
      <point x="450" y="177"/>
      <point x="686" y="177" type="curve" smooth="yes"/>
    </contour>
    <contour>
      <point x="674" y="346" type="line" smooth="yes"/>
      <point x="409" y="346"/>
      <point x="250" y="400"/>
      <point x="250" y="505" type="curve" smooth="yes"/>
      <point x="250" y="580"/>
      <point x="416" y="631"/>
      <point x="629" y="631" type="curve" smooth="yes"/>
      <point x="647" y="631"/>
      <point x="719" y="623"/>
      <point x="736" y="623" type="curve" smooth="yes"/>
      <point x="747" y="623"/>
      <point x="757" y="647"/>
      <point x="757" y="674" type="curve" smooth="yes"/>
      <point x="757" y="740"/>
      <point x="722" y="798"/>
      <point x="674" y="798" type="curve" smooth="yes"/>
      <point x="592" y="798" type="line" smooth="yes"/>
      <point x="550" y="798"/>
      <point x="491" y="788"/>
      <point x="382" y="771" type="curve"/>
      <point x="381" y="771" type="line"/>
      <point x="344" y="781"/>
      <point x="324" y="820"/>
      <point x="324" y="860" type="curve" smooth="yes"/>
      <point x="324" y="928"/>
      <point x="426" y="985"/>
      <point x="540" y="1002" type="curve" smooth="yes"/>
      <point x="588" y="1008"/>
      <point x="635" y="1054"/>
      <point x="635" y="1123" type="curve"/>
      <point x="1221" y="1123" type="line"/>
      <point x="1221" y="1097"/>
      <point x="1217" y="1080"/>
      <point x="1217" y="1050" type="curve" smooth="yes"/>
      <point x="1217" y="987"/>
      <point x="1231" y="924"/>
      <point x="1252" y="849" type="curve"/>
      <point x="1247" y="849" type="line" smooth="yes"/>
      <point x="1146" y="849"/>
      <point x="1064" y="781"/>
      <point x="1064" y="706" type="curve" smooth="yes"/>
      <point x="1064" y="633"/>
      <point x="1109" y="560"/>
      <point x="1174" y="517" type="curve"/>
      <point x="986" y="367"/>
      <point x="843" y="346"/>
      <point x="760" y="346" type="curve" smooth="yes"/>
    </contour>
    <contour>
      <point x="1327" y="616"/>
      <point x="1299" y="592"/>
      <point x="1272" y="592" type="curve" smooth="yes"/>
      <point x="1236" y="592"/>
      <point x="1188" y="615"/>
      <point x="1188" y="655" type="curve" smooth="yes"/>
      <point x="1188" y="691"/>
      <point x="1226" y="724"/>
      <point x="1257" y="724" type="curve" smooth="yes"/>
      <point x="1295" y="724"/>
      <point x="1327" y="686"/>
      <point x="1327" y="635" type="curve" smooth="yes"/>
    </contour>
    <contour>
      <point x="891" y="384"/>
      <point x="891" y="184"/>
      <point x="891" y="110" type="curve" smooth="yes"/>
      <point x="891" y="-14"/>
      <point x="909" y="-42"/>
      <point x="995" y="-42" type="curve" smooth="yes"/>
      <point x="1029" y="-42"/>
      <point x="1059" y="-21"/>
      <point x="1059" y="12" type="curve" smooth="yes"/>
      <point x="1059" y="61"/>
      <point x="1031" y="108"/>
      <point x="1031" y="157" type="curve" smooth="yes"/>
      <point x="1031" y="220"/>
      <point x="1051" y="281"/>
      <point x="1068" y="338" type="curve" smooth="yes"/>
      <point x="1068" y="341"/>
      <point x="1068" y="344"/>
      <point x="1068" y="346" type="curve" smooth="yes"/>
      <point x="1068" y="367"/>
      <point x="1041" y="384"/>
      <point x="1005" y="384" type="curve" smooth="yes"/>
    </contour>
    <contour>
      <point x="634" y="1257" type="move" name="bin"/>
    </contour>
    <contour>
      <point x="972" y="-644" type="move" name="bottom"/>
    </contour>
    <contour>
      <point x="1322" y="1257" type="move" name="top"/>
    </contour>
  </outline>
</glyph>
<glyph name="circumflexcomb_acutecomb" format="1">
  <advance width="0"/>
  <outline>
    <contour>
      <point x="4" y="1241" type="curve" name="hr00"/>
      <point x="94" y="1191"/>
      <point x="169" y="1035"/>
      <point x="223" y="1035" type="curve" smooth="yes"/>
      <point x="282" y="1035"/>
      <point x="326" y="1099"/>
      <point x="326" y="1146" type="curve" smooth="yes"/>
      <point x="326" y="1198"/>
      <point x="222" y="1252"/>
      <point x="175" y="1302" type="curve" smooth="yes"/>
      <point x="130" y="1350"/>
      <point x="74" y="1426"/>
      <point x="18" y="1426" type="curve" smooth="yes"/>
      <point x="-59" y="1426"/>
      <point x="-139" y="1353"/>
      <point x="-275" y="1243" type="curve"/>
      <point x="-295" y="1231"/>
      <point x="-324" y="1206"/>
      <point x="-324" y="1168" type="curve" smooth="yes"/>
      <point x="-324" y="1094"/>
      <point x="-287" y="1064"/>
      <point x="-254" y="1064" type="curve" smooth="yes"/>
      <point x="-169" y="1064"/>
      <point x="-74" y="1186"/>
    </contour>
    <contour>
      <point x="270" y="1332" type="curve"/>
      <point x="334" y="1332"/>
      <point x="565" y="1453"/>
      <point x="565" y="1579" type="curve" smooth="yes"/>
      <point x="565" y="1641"/>
      <point x="533" y="1662"/>
      <point x="492" y="1662" type="curve" smooth="yes"/>
      <point x="431" y="1662"/>
      <point x="349" y="1536"/>
      <point x="258" y="1481" type="curve" smooth="yes"/>
      <point x="223" y="1459"/>
      <point x="210" y="1429"/>
      <point x="210" y="1381" type="curve" smooth="yes"/>
      <point x="210" y="1317"/>
      <point x="270" y="1332"/>
    </contour>
    <contour>
      <point x="0" y="1515" type="move" name="_top"/>
    </contour>
  </outline>
</glyph>
<glyph name="circumflexcomb_gravecomb" format="1">
  <advance width="0"/>
  <outline>
    <contour>
      <point x="4" y="1241" type="curve" name="hr00"/>
      <point x="94" y="1191"/>
      <point x="169" y="1035"/>
      <point x="223" y="1035" type="curve" smooth="yes"/>
      <point x="282" y="1035"/>
      <point x="326" y="1099"/>
      <point x="326" y="1146" type="curve" smooth="yes"/>
      <point x="326" y="1198"/>
      <point x="222" y="1252"/>
      <point x="175" y="1302" type="curve" smooth="yes"/>
      <point x="130" y="1350"/>
      <point x="74" y="1426"/>
      <point x="18" y="1426" type="curve" smooth="yes"/>
      <point x="-59" y="1426"/>
      <point x="-139" y="1353"/>
      <point x="-275" y="1243" type="curve"/>
      <point x="-295" y="1231"/>
      <point x="-324" y="1206"/>
      <point x="-324" y="1168" type="curve" smooth="yes"/>
      <point x="-324" y="1094"/>
      <point x="-287" y="1064"/>
      <point x="-254" y="1064" type="curve" smooth="yes"/>
      <point x="-169" y="1064"/>
      <point x="-74" y="1186"/>
    </contour>
    <contour>
      <point x="463" y="1262" type="curve"/>
      <point x="463" y="1262"/>
      <point x="507" y="1252"/>
      <point x="526" y="1310" type="curve" smooth="yes"/>
      <point x="545" y="1357"/>
      <point x="523" y="1398"/>
      <point x="497" y="1431" type="curve" smooth="yes"/>
      <point x="429" y="1512"/>
      <point x="349" y="1654"/>
      <point x="293" y="1675" type="curve" smooth="yes"/>
      <point x="253" y="1689"/>
      <point x="215" y="1679"/>
      <point x="193" y="1621" type="curve" smooth="yes"/>
      <point x="150" y="1504"/>
      <point x="406" y="1283"/>
    </contour>
    <contour>
      <point x="0" y="1515" type="move" name="_top"/>
    </contour>
  </outline>
</glyph>
<glyph name="circumflexcomb_tildecomb.cap" format="1">
  <advance width="0"/>
  <outline>
    <contour>
      <point x="-79" y="1783" type="curve" name="hr00" smooth="yes"/>
      <point x="-5" y="1783"/>
      <point x="84" y="1681"/>
      <point x="177" y="1681" type="curve" smooth="yes"/>
      <point x="289" y="1681"/>
      <point x="347" y="1770"/>
      <point x="347" y="1862" type="curve" smooth="yes"/>
      <point x="347" y="1897"/>
      <point x="334" y="1927"/>
      <point x="301" y="1927" type="curve" smooth="yes"/>
      <point x="248" y="1927"/>
      <point x="253" y="1841"/>
      <point x="177" y="1841" type="curve" smooth="yes"/>
      <point x="105" y="1841"/>
      <point x="63" y="1938"/>
      <point x="-77" y="1938" type="curve" smooth="yes"/>
      <point x="-169" y="1938"/>
      <point x="-263" y="1872"/>
      <point x="-263" y="1758" type="curve" smooth="yes"/>
      <point x="-263" y="1709"/>
      <point x="-234" y="1678"/>
      <point x="-202" y="1678" type="curve" smooth="yes"/>
      <point x="-163" y="1678"/>
      <point x="-155" y="1783"/>
    </contour>
    <contour>
      <point x="4" y="1485" type="curve"/>
      <point x="94" y="1435"/>
      <point x="169" y="1300"/>
      <point x="223" y="1300" type="curve" smooth="yes"/>
      <point x="282" y="1300"/>
      <point x="326" y="1363"/>
      <point x="326" y="1410" type="curve" smooth="yes"/>
      <point x="326" y="1464"/>
      <point x="222" y="1496"/>
      <point x="175" y="1546" type="curve" smooth="yes"/>
      <point x="130" y="1594"/>
      <point x="74" y="1670"/>
      <point x="18" y="1670" type="curve" smooth="yes"/>
      <point x="-59" y="1670"/>
      <point x="-139" y="1598"/>
      <point x="-275" y="1508" type="curve" smooth="yes"/>
      <point x="-295" y="1496"/>
      <point x="-324" y="1471"/>
      <point x="-324" y="1433" type="curve" smooth="yes"/>
      <point x="-324" y="1360"/>
      <point x="-287" y="1328"/>
      <point x="-254" y="1328" type="curve" smooth="yes"/>
      <point x="-169" y="1328"/>
      <point x="-74" y="1431"/>
    </contour>
    <contour>
      <point x="12" y="1515" type="move" name="_top"/>
    </contour>
  </outline>
</glyph>
<glyph name="d_b_ra-deva" format="1">
  <advance width="1335"/>
  <outline>
    <contour>
      <point x="-5" y="1123" type="line"/>
      <point x="1002" y="1123" type="line"/>
      <point x="1002" y="990" type="line" smooth="yes"/>
      <point x="1002" y="874"/>
      <point x="993" y="843"/>
      <point x="802" y="843" type="curve" smooth="yes"/>
      <point x="661" y="843" type="line" smooth="yes"/>
      <point x="377" y="843"/>
      <point x="193" y="697"/>
      <point x="193" y="483" type="curve" smooth="yes"/>
      <point x="193" y="299"/>
      <point x="270" y="183"/>
      <point x="377" y="101" type="curve"/>
      <point x="232" y="71"/>
      <point x="116" y="-36"/>
      <point x="116" y="-149" type="curve" smooth="yes"/>
      <point x="116" y="-279"/>
      <point x="293" y="-441"/>
      <point x="426" y="-441" type="curve" smooth="yes"/>
      <point x="619" y="-441"/>
      <point x="798" y="-284"/>
      <point x="899" y="-43" type="curve"/>
      <point x="944" y="-98"/>
      <point x="1031" y="-342"/>
      <point x="1109" y="-342" type="curve" smooth="yes"/>
      <point x="1121" y="-342"/>
      <point x="1156" y="-322"/>
      <point x="1156" y="-284" type="curve" smooth="yes"/>
      <point x="1156" y="-240"/>
      <point x="1119" y="-257"/>
      <point x="1050" y="-76" type="curve"/>
      <point x="1009" y="14" type="line"/>
      <point x="1013" y="14" type="line"/>
      <point x="1112" y="60"/>
      <point x="1178" y="159"/>
      <point x="1178" y="273" type="curve" smooth="yes"/>
      <point x="1178" y="397"/>
      <point x="1084" y="517"/>
      <point x="978" y="517" type="curve" smooth="yes"/>
      <point x="885" y="517"/>
      <point x="798" y="421"/>
      <point x="798" y="307" type="curve" smooth="yes"/>
      <point x="798" y="260"/>
      <point x="805" y="208"/>
      <point x="829" y="155" type="curve"/>
      <point x="825" y="155" type="line"/>
      <point x="771" y="136"/>
      <point x="694" y="129"/>
      <point x="626" y="129" type="curve" smooth="yes"/>
      <point x="382" y="129"/>
      <point x="307" y="270"/>
      <point x="307" y="382" type="curve" smooth="yes"/>
      <point x="307" y="555"/>
      <point x="437" y="671"/>
      <point x="724" y="671" type="curve" smooth="yes"/>
      <point x="757" y="671" type="line" smooth="yes"/>
      <point x="1060" y="671"/>
      <point x="1132" y="769"/>
      <point x="1152" y="889" type="curve"/>
      <point x="1156" y="946"/>
      <point x="1152" y="1123"/>
      <point x="1162" y="1123" type="curve" smooth="yes"/>
      <point x="1355" y="1123" type="line"/>
      <point x="1355" y="1264" type="line"/>
      <point x="1192" y="1264" type="line"/>
      <point x="1139" y="1343"/>
      <point x="1084" y="1375"/>
      <point x="1057" y="1375" type="curve" smooth="yes"/>
      <point x="1020" y="1375"/>
      <point x="1003" y="1320"/>
      <point x="998" y="1264" type="curve"/>
      <point x="-5" y="1264" type="line"/>
    </contour>
    <contour>
      <point x="952" y="195" type="curve"/>
      <point x="936" y="223"/>
      <point x="932" y="270"/>
      <point x="932" y="322" type="curve" smooth="yes"/>
      <point x="932" y="368"/>
      <point x="960" y="406"/>
      <point x="994" y="406" type="curve" smooth="yes"/>
      <point x="1030" y="406"/>
      <point x="1060" y="367"/>
      <point x="1060" y="322" type="curve" smooth="yes"/>
      <point x="1060" y="263"/>
      <point x="1005" y="200"/>
    </contour>
    <contour>
      <point x="374" y="-303" type="curve" smooth="yes"/>
      <point x="319" y="-303"/>
      <point x="273" y="-258"/>
      <point x="273" y="-210" type="curve" smooth="yes"/>
      <point x="273" y="-139"/>
      <point x="311" y="-95"/>
      <point x="368" y="-68" type="curve"/>
      <point x="518" y="-275" type="line"/>
      <point x="468" y="-299"/>
      <point x="411" y="-303"/>
    </contour>
    <contour>
      <point x="437" y="-39" type="line"/>
      <point x="489" y="-5" type="line"/>
      <point x="553" y="-29"/>
      <point x="645" y="-43"/>
      <point x="694" y="-43" type="curve" smooth="yes"/>
      <point x="709" y="-43"/>
      <point x="719" y="-41"/>
      <point x="726" y="-39" type="curve"/>
      <point x="719" y="-99"/>
      <point x="661" y="-165"/>
      <point x="565" y="-239" type="curve"/>
    </contour>
    <contour>
      <point x="456" y="-737"/>
      <point x="437" y="-767"/>
      <point x="444" y="-796" type="curve" smooth="yes"/>
      <point x="448" y="-813"/>
      <point x="608" y="-875"/>
      <point x="639" y="-868" type="curve" smooth="yes"/>
      <point x="681" y="-857"/>
      <point x="810" y="-723"/>
      <point x="946" y="-525" type="curve"/>
      <point x="1025" y="-400"/>
      <point x="1082" y="-294"/>
      <point x="1100" y="-250" type="curve"/>
      <point x="1022" y="-200" type="line"/>
      <point x="792" y="-490"/>
      <point x="649" y="-689"/>
      <point x="491" y="-728" type="curve" smooth="yes"/>
    </contour>
  </outline>
</glyph>
<glyph name="d_dh_r_ya-deva" format="1">
  <advance width="2879"/>
  <outline>
    <contour>
      <point x="1262" y="1264" type="line"/>
      <point x="1202" y="1343"/>
      <point x="1156" y="1388"/>
      <point x="1123" y="1388" type="curve" smooth="yes"/>
      <point x="1094" y="1388"/>
      <point x="1062" y="1320"/>
      <point x="1058" y="1264" type="curve"/>
      <point x="-20" y="1264" type="line"/>
      <point x="-20" y="1123" type="line"/>
      <point x="1066" y="1123" type="line"/>
      <point x="1068" y="1111"/>
      <point x="1070" y="1092"/>
      <point x="1070" y="1068" type="curve" smooth="yes"/>
      <point x="1070" y="863"/>
      <point x="1084" y="860"/>
      <point x="724" y="839" type="curve" smooth="yes"/>
      <point x="448" y="820"/>
      <point x="258" y="743"/>
      <point x="258" y="526" type="curve" smooth="yes"/>
      <point x="258" y="441"/>
      <point x="268" y="377"/>
      <point x="282" y="352" type="curve"/>
      <point x="165" y="352"/>
      <point x="66" y="263"/>
      <point x="60" y="136" type="curve"/>
      <point x="60" y="-8"/>
      <point x="159" y="-119"/>
      <point x="282" y="-130" type="curve"/>
      <point x="282" y="-185" type="line" smooth="yes"/>
      <point x="282" y="-334"/>
      <point x="421" y="-446"/>
      <point x="580" y="-446" type="curve" smooth="yes"/>
      <point x="753" y="-446"/>
      <point x="920" y="-311"/>
      <point x="1015" y="-110" type="curve"/>
      <point x="1066" y="-253"/>
      <point x="1132" y="-342"/>
      <point x="1173" y="-342" type="curve" smooth="yes"/>
      <point x="1196" y="-342"/>
      <point x="1219" y="-320"/>
      <point x="1219" y="-287" type="curve" smooth="yes"/>
      <point x="1219" y="-232"/>
      <point x="1184" y="-268"/>
      <point x="1109" y="-76" type="curve"/>
      <point x="1078" y="14" type="line"/>
      <point x="1176" y="60"/>
      <point x="1241" y="159"/>
      <point x="1241" y="273" type="curve" smooth="yes"/>
      <point x="1241" y="397"/>
      <point x="1146" y="517"/>
      <point x="1048" y="517" type="curve" smooth="yes"/>
      <point x="944" y="517"/>
      <point x="868" y="421"/>
      <point x="868" y="307" type="curve" smooth="yes"/>
      <point x="868" y="260"/>
      <point x="879" y="208"/>
      <point x="895" y="155" type="curve"/>
      <point x="894" y="155" type="line"/>
      <point x="841" y="136"/>
      <point x="783" y="129"/>
      <point x="710" y="129" type="curve" smooth="yes"/>
      <point x="540" y="129"/>
      <point x="397" y="263"/>
      <point x="397" y="421" type="curve" smooth="yes"/>
      <point x="397" y="592"/>
      <point x="580" y="647"/>
      <point x="790" y="668" type="curve" smooth="yes"/>
      <point x="958" y="686" type="line" smooth="yes"/>
      <point x="1111" y="702"/>
      <point x="1213" y="781"/>
      <point x="1213" y="889" type="curve" smooth="yes"/>
      <point x="1213" y="960"/>
      <point x="1204" y="1123"/>
      <point x="1238" y="1123" type="curve" smooth="yes"/>
      <point x="2456" y="1123" type="line"/>
      <point x="2456" y="875"/>
      <point x="2468" y="686"/>
      <point x="2468" y="473" type="curve" smooth="yes"/>
      <point x="2468" y="448"/>
      <point x="2468" y="421"/>
      <point x="2466" y="374" type="curve"/>
      <point x="2387" y="439" type="line"/>
      <point x="2258" y="268"/>
      <point x="2086" y="167"/>
      <point x="1901" y="167" type="curve" smooth="yes"/>
      <point x="1726" y="167"/>
      <point x="1579" y="256"/>
      <point x="1579" y="364" type="curve" smooth="yes"/>
      <point x="1579" y="387"/>
      <point x="1630" y="418"/>
      <point x="1711" y="418" type="curve" smooth="yes"/>
      <point x="1939" y="418"/>
      <point x="2127" y="563"/>
      <point x="2127" y="753" type="curve" smooth="yes"/>
      <point x="2127" y="891"/>
      <point x="1919" y="1013"/>
      <point x="1672" y="1013" type="curve" smooth="yes"/>
      <point x="1416" y="1013"/>
      <point x="1237" y="994"/>
      <point x="1137" y="956" type="curve"/>
      <point x="1144" y="777" type="line"/>
      <point x="1208" y="829"/>
      <point x="1357" y="841"/>
      <point x="1672" y="841" type="curve" smooth="yes"/>
      <point x="1866" y="841"/>
      <point x="1965" y="808"/>
      <point x="1965" y="732" type="curve" smooth="yes"/>
      <point x="1965" y="651"/>
      <point x="1792" y="567"/>
      <point x="1642" y="567" type="curve" smooth="yes"/>
      <point x="1468" y="567" type="line" smooth="yes"/>
      <point x="1445" y="567"/>
      <point x="1416" y="552"/>
      <point x="1416" y="517" type="curve" smooth="yes"/>
      <point x="1416" y="268"/>
      <point x="1703" y="14"/>
      <point x="1961" y="14" type="curve" smooth="yes"/>
      <point x="2165" y="14"/>
      <point x="2354" y="89"/>
      <point x="2450" y="208" type="curve"/>
      <point x="2450" y="124"/>
      <point x="2416" y="49"/>
      <point x="2378" y="-2" type="curve"/>
      <point x="2377" y="-2" type="line"/>
      <point x="2356" y="-5"/>
      <point x="2332" y="-14"/>
      <point x="2332" y="-39" type="curve" smooth="yes"/>
      <point x="2332" y="-84"/>
      <point x="2429" y="-149"/>
      <point x="2492" y="-149" type="curve" smooth="yes"/>
      <point x="2582" y="-149"/>
      <point x="2624" y="53"/>
      <point x="2624" y="222" type="curve" smooth="yes"/>
      <point x="2624" y="354"/>
      <point x="2602" y="788"/>
      <point x="2602" y="916" type="curve" smooth="yes"/>
      <point x="2602" y="1028"/>
      <point x="2610" y="1123"/>
      <point x="2626" y="1123" type="curve" smooth="yes"/>
      <point x="2899" y="1123" type="line"/>
      <point x="2899" y="1264" type="line"/>
      <point x="2678" y="1264" type="line"/>
      <point x="2612" y="1335"/>
      <point x="2557" y="1412"/>
      <point x="2522" y="1412" type="curve" smooth="yes"/>
      <point x="2468" y="1412"/>
      <point x="2436" y="1340"/>
      <point x="2436" y="1264" type="curve"/>
    </contour>
    <contour>
      <point x="1009" y="195" type="line"/>
      <point x="999" y="223"/>
      <point x="993" y="270"/>
      <point x="993" y="322" type="curve" smooth="yes"/>
      <point x="993" y="368"/>
      <point x="1021" y="406"/>
      <point x="1058" y="406" type="curve" smooth="yes"/>
      <point x="1094" y="406"/>
      <point x="1119" y="367"/>
      <point x="1119" y="322" type="curve" smooth="yes"/>
      <point x="1119" y="263"/>
      <point x="1074" y="200"/>
      <point x="1015" y="195" type="curve" smooth="yes"/>
    </contour>
    <contour>
      <point x="334" y="225" type="line"/>
      <point x="364" y="183"/>
      <point x="418" y="129"/>
      <point x="481" y="71" type="curve"/>
      <point x="436" y="53"/>
      <point x="371" y="-5"/>
      <point x="307" y="-84" type="curve"/>
      <point x="232" y="-68"/>
      <point x="175" y="-2"/>
      <point x="175" y="74" type="curve" smooth="yes"/>
      <point x="175" y="139"/>
      <point x="244" y="205"/>
      <point x="329" y="225" type="curve" smooth="yes"/>
    </contour>
    <contour>
      <point x="804" y="-228"/>
      <point x="674" y="-339"/>
      <point x="532" y="-339" type="curve" smooth="yes"/>
      <point x="473" y="-339"/>
      <point x="416" y="-299"/>
      <point x="416" y="-243" type="curve" smooth="yes"/>
      <point x="416" y="-149"/>
      <point x="502" y="-59"/>
      <point x="643" y="-23" type="curve"/>
      <point x="689" y="-35"/>
      <point x="765" y="-45"/>
      <point x="863" y="-45" type="curve"/>
    </contour>
    <contour>
      <point x="556" y="-757"/>
      <point x="537" y="-787"/>
      <point x="544" y="-816" type="curve" smooth="yes"/>
      <point x="548" y="-833"/>
      <point x="708" y="-895"/>
      <point x="739" y="-888" type="curve" smooth="yes"/>
      <point x="781" y="-877"/>
      <point x="910" y="-743"/>
      <point x="1046" y="-545" type="curve"/>
      <point x="1125" y="-420"/>
      <point x="1182" y="-314"/>
      <point x="1200" y="-270" type="curve"/>
      <point x="1122" y="-220" type="line"/>
      <point x="892" y="-510"/>
      <point x="749" y="-709"/>
      <point x="591" y="-748" type="curve" smooth="yes"/>
    </contour>
    <contour>
      <point x="1801" y="987" type="move"/>
      <point x="1833" y="771" type="line"/>
    </contour>
    <contour>
      <point x="1812" y="1257" type="move" name="bin"/>
    </contour>
    <contour>
      <point x="2456" y="-84" type="move" name="bottom"/>
    </contour>
    <contour>
      <point x="2558" y="1257" type="move" name="top"/>
    </contour>
  </outline>
</glyph>
<glyph name="dd_na-deva" format="1">
  <advance width="1347"/>
  <outline>
    <contour>
      <point x="953" y="-9"/>
      <point x="951" y="-133"/>
      <point x="966" y="-210" type="curve"/>
      <point x="877" y="-123"/>
      <point x="748" y="-72"/>
      <point x="638" y="-72" type="curve" smooth="yes"/>
      <point x="552" y="-72"/>
      <point x="435" y="-91"/>
      <point x="319" y="-140" type="curve"/>
      <point x="316" y="-140" type="line"/>
      <point x="264" y="-72"/>
      <point x="209" y="-31"/>
      <point x="177" y="-31" type="curve" smooth="yes"/>
      <point x="147" y="-31"/>
      <point x="129" y="-58"/>
      <point x="129" y="-95" type="curve" smooth="yes"/>
      <point x="129" y="-107"/>
      <point x="145" y="-138"/>
      <point x="184" y="-160" type="curve"/>
      <point x="210" y="-201" type="line"/>
      <point x="209" y="-201" type="line"/>
      <point x="139" y="-247"/>
      <point x="88" y="-309"/>
      <point x="88" y="-389" type="curve" smooth="yes"/>
      <point x="88" y="-553"/>
      <point x="225" y="-695"/>
      <point x="380" y="-695" type="curve" smooth="yes"/>
      <point x="469" y="-695"/>
      <point x="525" y="-606"/>
      <point x="525" y="-498" type="curve" smooth="yes"/>
      <point x="525" y="-421"/>
      <point x="509" y="-337"/>
      <point x="489" y="-295" type="curve"/>
      <point x="490" y="-295" type="line"/>
      <point x="567" y="-257"/>
      <point x="608" y="-239"/>
      <point x="689" y="-239" type="curve" smooth="yes"/>
      <point x="781" y="-239"/>
      <point x="847" y="-266"/>
      <point x="968" y="-315" type="curve"/>
      <point x="968" y="-379"/>
      <point x="970" y="-406"/>
      <point x="970" y="-485" type="curve" smooth="yes"/>
      <point x="970" y="-639"/>
      <point x="912" y="-719"/>
      <point x="838" y="-719" type="curve" smooth="yes"/>
      <point x="818" y="-719"/>
      <point x="801" y="-737"/>
      <point x="801" y="-768" type="curve" smooth="yes"/>
      <point x="801" y="-827"/>
      <point x="912" y="-882"/>
      <point x="960" y="-882" type="curve" smooth="yes"/>
      <point x="1065" y="-882"/>
      <point x="1108" y="-729"/>
      <point x="1108" y="-584" type="curve" smooth="yes"/>
      <point x="1108" y="-450"/>
      <point x="1108" y="-232"/>
      <point x="1108" y="-98" type="curve" smooth="yes"/>
      <point x="1108" y="-99"/>
      <point x="1105" y="163"/>
      <point x="1105" y="162" type="curve"/>
      <point x="956" y="162" type="line"/>
    </contour>
    <contour>
      <point x="426" y="-503"/>
      <point x="381" y="-563"/>
      <point x="343" y="-563" type="curve" smooth="yes"/>
      <point x="285" y="-563"/>
      <point x="246" y="-510"/>
      <point x="246" y="-444" type="curve" smooth="yes"/>
      <point x="246" y="-391"/>
      <point x="285" y="-345"/>
      <point x="318" y="-345" type="curve" smooth="yes"/>
      <point x="378" y="-345"/>
      <point x="426" y="-399"/>
      <point x="426" y="-456" type="curve" smooth="yes"/>
    </contour>
    <contour>
      <point x="1193" y="105"/>
      <point x="1236" y="208"/>
      <point x="1236" y="347" type="curve" smooth="yes"/>
      <point x="1236" y="501"/>
      <point x="1094" y="626"/>
      <point x="955" y="626" type="curve" smooth="yes"/>
      <point x="877" y="626"/>
      <point x="607" y="571"/>
      <point x="528" y="571" type="curve" smooth="yes"/>
      <point x="463" y="571"/>
      <point x="400" y="605"/>
      <point x="400" y="649" type="curve" smooth="yes"/>
      <point x="400" y="705"/>
      <point x="491" y="775"/>
      <point x="602" y="775" type="curve" smooth="yes"/>
      <point x="1050" y="775" type="line" smooth="yes"/>
      <point x="1064" y="775"/>
      <point x="1083" y="792"/>
      <point x="1083" y="818" type="curve" smooth="yes"/>
      <point x="1083" y="859"/>
      <point x="1054" y="907"/>
      <point x="1054" y="930" type="curve" smooth="yes"/>
      <point x="1054" y="1064"/>
      <point x="1057" y="1123"/>
      <point x="1064" y="1123" type="curve" smooth="yes"/>
      <point x="1367" y="1123" type="line"/>
      <point x="1367" y="1264" type="line"/>
      <point x="1080" y="1264" type="line"/>
      <point x="994" y="1361"/>
      <point x="978" y="1360"/>
      <point x="955" y="1360" type="curve" smooth="yes"/>
      <point x="922" y="1360"/>
      <point x="894" y="1341"/>
      <point x="894" y="1264" type="curve"/>
      <point x="-20" y="1264" type="line"/>
      <point x="-20" y="1123" type="line"/>
      <point x="913" y="1123" type="line"/>
      <point x="913" y="1002"/>
      <point x="904" y="946"/>
      <point x="877" y="946" type="curve" smooth="yes"/>
      <point x="592" y="946" type="line" smooth="yes"/>
      <point x="429" y="946"/>
      <point x="287" y="850"/>
      <point x="287" y="747" type="curve" smooth="yes"/>
      <point x="287" y="600"/>
      <point x="462" y="427"/>
      <point x="626" y="427" type="curve" smooth="yes"/>
      <point x="697" y="427"/>
      <point x="944" y="492"/>
      <point x="1028" y="492" type="curve" smooth="yes"/>
      <point x="1068" y="492"/>
      <point x="1111" y="462"/>
      <point x="1111" y="427" type="curve" smooth="yes"/>
      <point x="1111" y="332"/>
      <point x="967" y="248"/>
      <point x="777" y="248" type="curve" smooth="yes"/>
      <point x="523" y="248"/>
      <point x="297" y="344"/>
      <point x="136" y="505" type="curve"/>
      <point x="134" y="505" type="line"/>
      <point x="116" y="532"/>
      <point x="85" y="550"/>
      <point x="79" y="550" type="curve" smooth="yes"/>
      <point x="66" y="550"/>
      <point x="55" y="511"/>
      <point x="55" y="478" type="curve"/>
      <point x="220" y="254"/>
      <point x="599" y="105"/>
      <point x="809" y="105" type="curve" smooth="yes"/>
    </contour>
    <contour>
      <point x="675" y="1257" type="move" name="bin"/>
    </contour>
    <contour>
      <point x="895" y="-830" type="move" name="bottom"/>
    </contour>
    <contour>
      <point x="991" y="1257" type="move" name="top"/>
    </contour>
  </outline>
</glyph>
<glyph name="ddh_ya-deva" format="1">
  <advance width="2618"/>
  <outline>
    <contour>
      <point x="-20" y="1123" type="line"/>
      <point x="868" y="1123" type="line"/>
      <point x="875" y="1078"/>
      <point x="879" y="1031"/>
      <point x="879" y="977" type="curve" smooth="yes"/>
      <point x="879" y="897"/>
      <point x="875" y="818"/>
      <point x="691" y="818" type="curve"/>
      <point x="523" y="805" type="line"/>
      <point x="263" y="802"/>
      <point x="79" y="655"/>
      <point x="79" y="439" type="curve" smooth="yes"/>
      <point x="79" y="132"/>
      <point x="313" y="-122"/>
      <point x="610" y="-122" type="curve" smooth="yes"/>
      <point x="623" y="-122"/>
      <point x="686" y="-110"/>
      <point x="753" y="-98" type="curve"/>
      <point x="755" y="-98" type="line"/>
      <point x="834" y="-244"/>
      <point x="913" y="-342"/>
      <point x="968" y="-342" type="curve" smooth="yes"/>
      <point x="987" y="-342"/>
      <point x="1020" y="-322"/>
      <point x="1020" y="-284" type="curve" smooth="yes"/>
      <point x="1020" y="-258"/>
      <point x="904" y="-129"/>
      <point x="875" y="-68" type="curve"/>
      <point x="877" y="-68" type="line"/>
      <point x="975" y="-26"/>
      <point x="1044" y="88"/>
      <point x="1044" y="189" type="curve" smooth="yes"/>
      <point x="1044" y="315"/>
      <point x="942" y="431"/>
      <point x="841" y="431" type="curve" smooth="yes"/>
      <point x="740" y="431"/>
      <point x="661" y="339"/>
      <point x="661" y="215" type="curve" smooth="yes"/>
      <point x="661" y="177"/>
      <point x="668" y="129"/>
      <point x="691" y="76" type="curve"/>
      <point x="645" y="57"/>
      <point x="586" y="49"/>
      <point x="508" y="49" type="curve" smooth="yes"/>
      <point x="342" y="49"/>
      <point x="200" y="153"/>
      <point x="200" y="311" type="curve" smooth="yes"/>
      <point x="200" y="483"/>
      <point x="258" y="619"/>
      <point x="590" y="619" type="curve"/>
      <point x="860" y="626"/>
      <point x="1015" y="676"/>
      <point x="1015" y="841" type="curve" smooth="yes"/>
      <point x="1015" y="970"/>
      <point x="1021" y="1052"/>
      <point x="1021" y="1123" type="curve"/>
      <point x="1089" y="1123" type="line"/>
      <point x="1089" y="1264" type="line"/>
      <point x="1047" y="1264" type="line"/>
      <point x="1020" y="1315"/>
      <point x="958" y="1388"/>
      <point x="922" y="1388" type="curve" smooth="yes"/>
      <point x="897" y="1388"/>
      <point x="863" y="1320"/>
      <point x="856" y="1264" type="curve"/>
      <point x="-20" y="1264" type="line"/>
    </contour>
    <contour>
      <point x="805" y="116" type="line"/>
      <point x="790" y="144"/>
      <point x="781" y="187"/>
      <point x="781" y="232" type="curve" smooth="yes"/>
      <point x="781" y="287"/>
      <point x="818" y="322"/>
      <point x="859" y="322" type="curve" smooth="yes"/>
      <point x="897" y="322"/>
      <point x="920" y="284"/>
      <point x="920" y="232" type="curve" smooth="yes"/>
      <point x="920" y="179"/>
      <point x="877" y="122"/>
      <point x="810" y="116" type="curve" smooth="yes"/>
    </contour>
    <component base="ya-deva.post" xOffset="1191"/>
    <contour>
      <point x="1440" y="1257" type="move" name="bin"/>
    </contour>
    <contour>
      <point x="2214" y="-78" type="move" name="bottom"/>
    </contour>
    <contour>
      <point x="2321" y="1257" type="move" name="top"/>
    </contour>
  </outline>
</glyph>
<glyph name="dieresiscomb_gravecomb.cap" format="1">
  <advance width="0"/>
  <outline>
    <contour>
      <point x="-114" y="1421" type="curve" name="hr00" smooth="yes"/>
      <point x="-114" y="1510"/>
      <point x="-159" y="1557"/>
      <point x="-173" y="1557" type="curve" smooth="yes"/>
      <point x="-218" y="1557"/>
      <point x="-289" y="1499"/>
      <point x="-289" y="1426" type="curve" smooth="yes"/>
      <point x="-289" y="1328"/>
      <point x="-253" y="1291"/>
      <point x="-181" y="1291" type="curve" smooth="yes"/>
      <point x="-146" y="1291"/>
      <point x="-114" y="1337"/>
    </contour>
    <contour>
      <point x="167" y="1546" type="curve" smooth="yes"/>
      <point x="103" y="1546"/>
      <point x="81" y="1480"/>
      <point x="81" y="1404" type="curve" smooth="yes"/>
      <point x="81" y="1327"/>
      <point x="105" y="1291"/>
      <point x="163" y="1291" type="curve" smooth="yes"/>
      <point x="203" y="1291"/>
      <point x="256" y="1353"/>
      <point x="256" y="1414" type="curve" smooth="yes"/>
      <point x="256" y="1470"/>
      <point x="210" y="1546"/>
    </contour>
    <contour>
      <point x="8" y="1615" type="curve"/>
      <point x="8" y="1615"/>
      <point x="50" y="1620"/>
      <point x="50" y="1683" type="curve" smooth="yes"/>
      <point x="50" y="1732"/>
      <point x="15" y="1763"/>
      <point x="-18" y="1785" type="curve" smooth="yes"/>
      <point x="-110" y="1839"/>
      <point x="-181" y="1946"/>
      <point x="-243" y="1946" type="curve" smooth="yes"/>
      <point x="-284" y="1946"/>
      <point x="-317" y="1922"/>
      <point x="-317" y="1862" type="curve" smooth="yes"/>
      <point x="-317" y="1735"/>
      <point x="-55" y="1615"/>
    </contour>
    <contour>
      <point x="-31" y="1515" type="move" name="_top"/>
    </contour>
  </outline>
</glyph>
<glyph name="dieresiscomb_gravecomb" format="1">
  <advance width="0"/>
  <outline>
    <contour>
      <point x="-114" y="1278" type="curve" name="hr00" smooth="yes"/>
      <point x="-114" y="1367"/>
      <point x="-159" y="1414"/>
      <point x="-173" y="1414" type="curve" smooth="yes"/>
      <point x="-218" y="1414"/>
      <point x="-289" y="1357"/>
      <point x="-289" y="1283" type="curve" smooth="yes"/>
      <point x="-289" y="1186"/>
      <point x="-253" y="1149"/>
      <point x="-181" y="1149" type="curve" smooth="yes"/>
      <point x="-146" y="1149"/>
      <point x="-114" y="1194"/>
    </contour>
    <contour>
      <point x="167" y="1404" type="curve" smooth="yes"/>
      <point x="103" y="1404"/>
      <point x="81" y="1337"/>
      <point x="81" y="1262" type="curve" smooth="yes"/>
      <point x="81" y="1184"/>
      <point x="105" y="1149"/>
      <point x="163" y="1149" type="curve" smooth="yes"/>
      <point x="203" y="1149"/>
      <point x="256" y="1211"/>
      <point x="256" y="1272" type="curve" smooth="yes"/>
      <point x="256" y="1327"/>
      <point x="210" y="1404"/>
    </contour>
    <contour>
      <point x="8" y="1465" type="curve"/>
      <point x="8" y="1465"/>
      <point x="50" y="1470"/>
      <point x="50" y="1532" type="curve" smooth="yes"/>
      <point x="50" y="1580"/>
      <point x="15" y="1611"/>
      <point x="-18" y="1634" type="curve" smooth="yes"/>
      <point x="-110" y="1689"/>
      <point x="-181" y="1795"/>
      <point x="-243" y="1795" type="curve" smooth="yes"/>
      <point x="-284" y="1795"/>
      <point x="-317" y="1773"/>
      <point x="-317" y="1711" type="curve" smooth="yes"/>
      <point x="-317" y="1585"/>
      <point x="-55" y="1465"/>
    </contour>
    <contour>
      <point x="-31" y="1515" type="move" name="_top"/>
    </contour>
  </outline>
</glyph>
<glyph name="h_la-deva" format="1">
  <advance width="1376"/>
  <outline>
    <contour>
      <point x="-5" y="1123" type="line"/>
      <point x="822" y="1123" type="line"/>
      <point x="833" y="1093"/>
      <point x="836" y="1060"/>
      <point x="836" y="1028" type="curve" smooth="yes"/>
      <point x="836" y="987"/>
      <point x="802" y="955"/>
      <point x="765" y="955" type="curve" smooth="yes"/>
      <point x="710" y="955"/>
      <point x="505" y="987"/>
      <point x="448" y="987" type="curve" smooth="yes"/>
      <point x="315" y="987"/>
      <point x="200" y="904"/>
      <point x="200" y="805" type="curve" smooth="yes"/>
      <point x="200" y="705"/>
      <point x="292" y="595"/>
      <point x="409" y="557" type="curve"/>
      <point x="250" y="481"/>
      <point x="129" y="324"/>
      <point x="129" y="167" type="curve" smooth="yes"/>
      <point x="129" y="-179"/>
      <point x="446" y="-468"/>
      <point x="802" y="-468" type="curve" smooth="yes"/>
      <point x="904" y="-468"/>
      <point x="987" y="-409"/>
      <point x="987" y="-332" type="curve" smooth="yes"/>
      <point x="987" y="-302"/>
      <point x="960" y="-275"/>
      <point x="930" y="-275" type="curve" smooth="yes"/>
      <point x="889" y="-275"/>
      <point x="786" y="-342"/>
      <point x="747" y="-342" type="curve" smooth="yes"/>
      <point x="497" y="-342"/>
      <point x="287" y="-130"/>
      <point x="287" y="116" type="curve" smooth="yes"/>
      <point x="287" y="303"/>
      <point x="505" y="473"/>
      <point x="734" y="473" type="curve" smooth="yes"/>
      <point x="895" y="473"/>
      <point x="1035" y="382"/>
      <point x="1078" y="268" type="curve"/>
      <point x="1074" y="268" type="line" smooth="yes"/>
      <point x="1002" y="268"/>
      <point x="928" y="228"/>
      <point x="844" y="167" type="curve"/>
      <point x="841" y="167" type="line"/>
      <point x="783" y="225"/>
      <point x="736" y="268"/>
      <point x="679" y="268" type="curve" smooth="yes"/>
      <point x="580" y="268"/>
      <point x="501" y="195"/>
      <point x="501" y="101" type="curve" smooth="yes"/>
      <point x="501" y="-66"/>
      <point x="657" y="-187"/>
      <point x="856" y="-187" type="curve" smooth="yes"/>
      <point x="885" y="-187"/>
      <point x="926" y="-160"/>
      <point x="926" y="-130" type="curve" smooth="yes"/>
      <point x="926" y="-119"/>
      <point x="905" y="-110"/>
      <point x="889" y="-110" type="curve" smooth="yes"/>
      <point x="751" y="-110"/>
      <point x="639" y="-43"/>
      <point x="639" y="49" type="curve" smooth="yes"/>
      <point x="639" y="109"/>
      <point x="691" y="155"/>
      <point x="747" y="155" type="curve" smooth="yes"/>
      <point x="767" y="155"/>
      <point x="792" y="129"/>
      <point x="792" y="101" type="curve" smooth="yes"/>
      <point x="792" y="95"/>
      <point x="790" y="85"/>
      <point x="783" y="63" type="curve"/>
      <point x="783" y="20"/>
      <point x="831" y="-10"/>
      <point x="895" y="-25" type="curve"/>
      <point x="942" y="84"/>
      <point x="999" y="142"/>
      <point x="1074" y="142" type="curve" smooth="yes"/>
      <point x="1102" y="142"/>
      <point x="1123" y="101"/>
      <point x="1123" y="63" type="curve" smooth="yes"/>
      <point x="1123" y="-39"/>
      <point x="1008" y="-12"/>
      <point x="1008" y="-68" type="curve"/>
      <point x="1025" y="-126"/>
      <point x="1064" y="-173"/>
      <point x="1099" y="-173" type="curve" smooth="yes"/>
      <point x="1162" y="-173"/>
      <point x="1219" y="-20"/>
      <point x="1219" y="101" type="curve" smooth="yes"/>
      <point x="1219" y="413"/>
      <point x="1015" y="610"/>
      <point x="705" y="610" type="curve" smooth="yes"/>
      <point x="605" y="610"/>
      <point x="540" y="605"/>
      <point x="497" y="596" type="curve"/>
      <point x="495" y="596" type="line"/>
      <point x="421" y="616"/>
      <point x="363" y="661"/>
      <point x="363" y="710" type="curve" smooth="yes"/>
      <point x="363" y="769"/>
      <point x="439" y="818"/>
      <point x="523" y="818" type="curve" smooth="yes"/>
      <point x="585" y="818"/>
      <point x="815" y="790"/>
      <point x="889" y="790" type="curve" smooth="yes"/>
      <point x="952" y="790"/>
      <point x="1003" y="836"/>
      <point x="1003" y="899" type="curve" smooth="yes"/>
      <point x="1003" y="936"/>
      <point x="975" y="1035"/>
      <point x="975" y="1066" type="curve" smooth="yes"/>
      <point x="975" y="1092"/>
      <point x="1003" y="1123"/>
      <point x="1031" y="1123" type="curve" smooth="yes"/>
      <point x="1396" y="1123" type="line"/>
      <point x="1396" y="1264" type="line"/>
      <point x="1015" y="1264" type="line"/>
      <point x="942" y="1337"/>
      <point x="913" y="1372"/>
      <point x="877" y="1372" type="curve" smooth="yes"/>
      <point x="846" y="1372"/>
      <point x="822" y="1320"/>
      <point x="822" y="1264" type="curve"/>
      <point x="-5" y="1264" type="line"/>
    </contour>
    <contour>
      <point x="430" y="1257" type="move" name="bin"/>
    </contour>
    <contour>
      <point x="759" y="-450" type="move" name="bottom"/>
    </contour>
    <contour>
      <point x="939" y="1257" type="move" name="top"/>
    </contour>
  </outline>
</glyph>
<glyph name="iMatra-deva.01" format="1">
  <advance width="557"/>
  <outline>
    <contour>
      <point x="-20" y="1123" type="line"/>
      <point x="287" y="1123" type="line"/>
      <point x="287" y="283" type="line" smooth="yes"/>
      <point x="287" y="157"/>
      <point x="243" y="49"/>
      <point x="169" y="49" type="curve" smooth="yes"/>
      <point x="149" y="49"/>
      <point x="122" y="36"/>
      <point x="122" y="14" type="curve" smooth="yes"/>
      <point x="122" y="-29"/>
      <point x="240" y="-120"/>
      <point x="283" y="-120" type="curve" smooth="yes"/>
      <point x="363" y="-120"/>
      <point x="441" y="-2"/>
      <point x="441" y="142" type="curve" smooth="yes"/>
      <point x="441" y="955" type="line" smooth="yes"/>
      <point x="441" y="1050"/>
      <point x="481" y="1123"/>
      <point x="521" y="1123" type="curve" smooth="yes"/>
      <point x="678" y="1123" type="line"/>
      <point x="678" y="1264" type="line"/>
      <point x="450" y="1264" type="line"/>
      <point x="354" y="1286"/>
      <point x="299" y="1404"/>
      <point x="299" y="1520" type="curve" smooth="yes"/>
      <point x="299" y="1666"/>
      <point x="429" y="1785"/>
      <point x="558" y="1785" type="curve" smooth="yes"/>
      <point x="934" y="1785"/>
      <point x="1198" y="1609"/>
      <point x="1312" y="1355" type="curve"/>
      <point x="1320" y="1335"/>
      <point x="1343" y="1325"/>
      <point x="1363" y="1325" type="curve" smooth="yes"/>
      <point x="1368" y="1325"/>
      <point x="1373" y="1343"/>
      <point x="1373" y="1386" type="curve"/>
      <point x="1333" y="1624"/>
      <point x="1015" y="1948"/>
      <point x="555" y="1948" type="curve" smooth="yes"/>
      <point x="317" y="1948"/>
      <point x="149" y="1783"/>
      <point x="149" y="1565" type="curve" smooth="yes"/>
      <point x="149" y="1449"/>
      <point x="198" y="1328"/>
      <point x="284" y="1264" type="curve"/>
      <point x="-20" y="1264" type="line"/>
    </contour>
    <contour>
      <point x="1477" y="1332" type="move" name="bin"/>
    </contour>
    <contour>
      <point x="1339" y="1384" type="move" name="imatra"/>
    </contour>
    <contour>
      <point x="1436" y="1281" type="move" name="top"/>
    </contour>
  </outline>
</glyph>
<glyph name="iMatra-deva.30" format="1">
  <advance width="556"/>
  <outline>
    <contour>
      <point x="-20" y="1123" type="line"/>
      <point x="287" y="1123" type="line"/>
      <point x="287" y="283" type="line" smooth="yes"/>
      <point x="287" y="157"/>
      <point x="243" y="49"/>
      <point x="169" y="49" type="curve" smooth="yes"/>
      <point x="149" y="49"/>
      <point x="122" y="36"/>
      <point x="122" y="14" type="curve" smooth="yes"/>
      <point x="122" y="-29"/>
      <point x="240" y="-120"/>
      <point x="283" y="-120" type="curve" smooth="yes"/>
      <point x="363" y="-120"/>
      <point x="441" y="-2"/>
      <point x="441" y="142" type="curve" smooth="yes"/>
      <point x="441" y="955" type="line" smooth="yes"/>
      <point x="441" y="1050"/>
      <point x="481" y="1123"/>
      <point x="521" y="1123" type="curve" smooth="yes"/>
      <point x="678" y="1123" type="line"/>
      <point x="678" y="1264" type="line"/>
      <point x="450" y="1264" type="line"/>
      <point x="354" y="1286"/>
      <point x="299" y="1404"/>
      <point x="299" y="1520" type="curve" smooth="yes"/>
      <point x="299" y="1666"/>
      <point x="449" y="1785"/>
      <point x="678" y="1785" type="curve" smooth="yes"/>
      <point x="1353" y="1785"/>
      <point x="2260" y="1553"/>
      <point x="2420" y="1355" type="curve"/>
      <point x="2428" y="1335"/>
      <point x="2451" y="1325"/>
      <point x="2471" y="1325" type="curve" smooth="yes"/>
      <point x="2476" y="1325"/>
      <point x="2481" y="1343"/>
      <point x="2481" y="1386" type="curve"/>
      <point x="2448" y="1567"/>
      <point x="1484" y="1948"/>
      <point x="655" y="1948" type="curve" smooth="yes"/>
      <point x="364" y="1948"/>
      <point x="149" y="1783"/>
      <point x="149" y="1565" type="curve" smooth="yes"/>
      <point x="149" y="1449"/>
      <point x="198" y="1328"/>
      <point x="284" y="1264" type="curve"/>
      <point x="-20" y="1264" type="line"/>
    </contour>
    <contour>
      <point x="2492" y="1332" type="move" name="bin"/>
    </contour>
    <contour>
      <point x="2439" y="1383" type="move" name="imatra"/>
    </contour>
    <contour>
      <point x="2533" y="1368" type="move" name="top"/>
    </contour>
  </outline>
</glyph>
<glyph name="j_ny_ya-deva" format="1">
  <advance width="3769"/>
  <outline>
    <contour>
      <point x="2366" y="1123" type="line"/>
      <point x="2366" y="1264" type="line"/>
      <point x="-18" y="1264" type="line"/>
      <point x="-18" y="1123" type="line"/>
    </contour>
    <contour>
      <point x="120" y="448"/>
      <point x="454" y="35"/>
      <point x="739" y="35" type="curve" smooth="yes"/>
      <point x="940" y="35"/>
      <point x="1111" y="175"/>
      <point x="1111" y="364" type="curve" smooth="yes"/>
      <point x="1111" y="448"/>
      <point x="1057" y="567"/>
      <point x="977" y="625" type="curve"/>
      <point x="1020" y="643"/>
      <point x="1121" y="652"/>
      <point x="1216" y="652" type="curve" smooth="yes"/>
      <point x="1262" y="652"/>
      <point x="1289" y="645"/>
      <point x="1311" y="629" type="curve"/>
      <point x="1292" y="818" type="line"/>
      <point x="740" y="818" type="line" smooth="yes"/>
      <point x="732" y="818"/>
      <point x="661" y="831"/>
      <point x="649" y="831" type="curve" smooth="yes"/>
      <point x="633" y="831"/>
      <point x="607" y="814"/>
      <point x="607" y="790" type="curve" smooth="yes"/>
      <point x="607" y="739"/>
      <point x="666" y="598"/>
      <point x="724" y="598" type="curve" smooth="yes"/>
      <point x="740" y="598"/>
      <point x="783" y="639"/>
      <point x="810" y="639" type="curve" smooth="yes"/>
      <point x="881" y="639"/>
      <point x="949" y="582"/>
      <point x="949" y="502" type="curve" smooth="yes"/>
      <point x="949" y="284"/>
      <point x="800" y="198"/>
      <point x="647" y="198" type="curve" smooth="yes"/>
      <point x="443" y="198"/>
      <point x="270" y="409"/>
      <point x="270" y="639" type="curve" smooth="yes"/>
      <point x="270" y="661"/>
      <point x="309" y="739"/>
      <point x="309" y="767" type="curve" smooth="yes"/>
      <point x="309" y="798"/>
      <point x="212" y="860"/>
      <point x="155" y="860" type="curve" smooth="yes"/>
      <point x="132" y="860"/>
      <point x="120" y="839"/>
      <point x="120" y="818" type="curve" smooth="yes"/>
    </contour>
    <contour>
      <point x="2581" y="631" type="line"/>
      <point x="2536" y="681"/>
      <point x="2516" y="701"/>
      <point x="2467" y="701" type="curve" smooth="yes"/>
      <point x="2410" y="701"/>
      <point x="2388" y="641"/>
      <point x="2316" y="616" type="curve"/>
      <point x="2310" y="616" type="line"/>
      <point x="2246" y="837"/>
      <point x="2074" y="953"/>
      <point x="1893" y="953" type="curve" smooth="yes"/>
      <point x="1754" y="953"/>
      <point x="1632" y="903"/>
      <point x="1497" y="807" type="curve"/>
      <point x="1650" y="640" type="line"/>
      <point x="1742" y="720"/>
      <point x="1840" y="776"/>
      <point x="1946" y="776" type="curve" smooth="yes"/>
      <point x="2117" y="776"/>
      <point x="2254" y="691"/>
      <point x="2254" y="557" type="curve" smooth="yes"/>
      <point x="2254" y="395"/>
      <point x="2115" y="279"/>
      <point x="1893" y="279" type="curve" smooth="yes"/>
      <point x="1644" y="279"/>
      <point x="1353" y="523"/>
      <point x="1353" y="737" type="curve" smooth="yes"/>
      <point x="1353" y="780"/>
      <point x="1345" y="836"/>
      <point x="1325" y="836" type="curve" smooth="yes"/>
      <point x="1241" y="836"/>
      <point x="1202" y="819"/>
      <point x="1202" y="775" type="curve" smooth="yes"/>
      <point x="1202" y="656"/>
      <point x="1290" y="462"/>
      <point x="1471" y="309" type="curve"/>
      <point x="1652" y="153"/>
      <point x="1837" y="72"/>
      <point x="1978" y="72" type="curve" smooth="yes"/>
      <point x="2161" y="72"/>
      <point x="2308" y="218"/>
      <point x="2323" y="406" type="curve"/>
      <point x="2324" y="406" type="line"/>
      <point x="2399" y="436"/>
      <point x="2471" y="501"/>
      <point x="2552" y="501" type="curve" smooth="yes"/>
      <point x="2569" y="501"/>
      <point x="2589" y="499"/>
      <point x="2612" y="496" type="curve"/>
    </contour>
    <component base="ya-deva" xOffset="2375"/>
    <contour>
      <point x="246" y="0" type="move" name="nukta"/>
    </contour>
    <contour>
      <point x="3511" y="1257" type="move" name="top"/>
    </contour>
    <contour>
      <point x="1946" y="1257" type="move" name="bin"/>
    </contour>
    <contour>
      <point x="3368" y="-51" type="move" name="bottom"/>
    </contour>
  </outline>
</glyph>
<glyph name="jh-deva.np" format="1">
  <advance width="1631"/>
  <outline>
    <contour>
      <point x="282" y="1388"/>
      <point x="193" y="1286"/>
      <point x="193" y="1164" type="curve" smooth="yes"/>
      <point x="193" y="1013"/>
      <point x="329" y="875"/>
      <point x="481" y="841" type="curve"/>
      <point x="481" y="563" type="line"/>
      <point x="406" y="518"/>
      <point x="367" y="491"/>
      <point x="367" y="439" type="curve" smooth="yes"/>
      <point x="367" y="368"/>
      <point x="461" y="228"/>
      <point x="544" y="228" type="curve" smooth="yes"/>
      <point x="615" y="228"/>
      <point x="629" y="299"/>
      <point x="629" y="416" type="curve"/>
      <point x="666" y="436"/>
      <point x="724" y="431"/>
      <point x="874" y="431" type="curve" smooth="yes"/>
      <point x="1066" y="431"/>
      <point x="1168" y="381"/>
      <point x="1168" y="322" type="curve" smooth="yes"/>
      <point x="1168" y="187"/>
      <point x="1097" y="63"/>
      <point x="1030" y="63" type="curve"/>
      <point x="999" y="36" type="line"/>
      <point x="999" y="-29"/>
      <point x="1102" y="-120"/>
      <point x="1174" y="-120" type="curve" smooth="yes"/>
      <point x="1256" y="-120"/>
      <point x="1315" y="88"/>
      <point x="1315" y="311" type="curve" smooth="yes"/>
      <point x="1315" y="403"/>
      <point x="1295" y="724"/>
      <point x="1295" y="818" type="curve" smooth="yes"/>
      <point x="1295" y="967"/>
      <point x="1307" y="1078"/>
      <point x="1345" y="1123" type="curve"/>
      <point x="1651" y="1123" type="line"/>
      <point x="1651" y="1264" type="line"/>
      <point x="1386" y="1264" type="line"/>
      <point x="1343" y="1337"/>
      <point x="1291" y="1400"/>
      <point x="1256" y="1400" type="curve" smooth="yes"/>
      <point x="1213" y="1400"/>
      <point x="1178" y="1341"/>
      <point x="1178" y="1264" type="curve"/>
      <point x="985" y="1264" type="line" smooth="yes"/>
      <point x="949" y="1264"/>
      <point x="850" y="1302"/>
      <point x="822" y="1302" type="curve" smooth="yes"/>
      <point x="765" y="1302"/>
      <point x="732" y="1268"/>
      <point x="732" y="1233" type="curve" smooth="yes"/>
      <point x="732" y="1162"/>
      <point x="833" y="1070"/>
      <point x="875" y="1070" type="curve" smooth="yes"/>
      <point x="926" y="1070"/>
      <point x="973" y="1123"/>
      <point x="1068" y="1123" type="curve" smooth="yes"/>
      <point x="1157" y="1123" type="line"/>
      <point x="1146" y="1070"/>
      <point x="1142" y="987"/>
      <point x="1142" y="860" type="curve" smooth="yes"/>
      <point x="1142" y="771"/>
      <point x="1157" y="666"/>
      <point x="1178" y="567" type="curve"/>
      <point x="1102" y="596"/>
      <point x="1023" y="610"/>
      <point x="833" y="610" type="curve" smooth="yes"/>
      <point x="724" y="610"/>
      <point x="649" y="602"/>
      <point x="629" y="596" type="curve"/>
      <point x="629" y="818" type="line"/>
      <point x="645" y="810"/>
      <point x="666" y="805"/>
      <point x="676" y="805" type="curve" smooth="yes"/>
      <point x="697" y="805"/>
      <point x="709" y="833"/>
      <point x="709" y="874" type="curve" smooth="yes"/>
      <point x="709" y="879"/>
      <point x="705" y="885"/>
      <point x="694" y="895" type="curve" smooth="yes"/>
      <point x="651" y="932" type="line" smooth="yes"/>
      <point x="643" y="940"/>
      <point x="629" y="958"/>
      <point x="629" y="973" type="curve" smooth="yes"/>
      <point x="629" y="1109" type="line" smooth="yes"/>
      <point x="629" y="1264"/>
      <point x="528" y="1388"/>
      <point x="400" y="1388" type="curve" smooth="yes"/>
    </contour>
    <contour>
      <point x="478" y="1050"/>
      <point x="478" y="1009"/>
      <point x="472" y="987" type="curve"/>
      <point x="391" y="987"/>
      <point x="282" y="1047"/>
      <point x="282" y="1123" type="curve" smooth="yes"/>
      <point x="282" y="1178"/>
      <point x="329" y="1206"/>
      <point x="356" y="1206" type="curve" smooth="yes"/>
      <point x="426" y="1206"/>
      <point x="478" y="1157"/>
      <point x="478" y="1092" type="curve" smooth="yes"/>
    </contour>
    <contour>
      <point x="1260" y="545"/>
      <point x="1330" y="457"/>
      <point x="1323" y="483" type="curve"/>
      <point x="1415" y="419" type="line"/>
      <point x="1443" y="492"/>
      <point x="1511" y="533"/>
      <point x="1565" y="533" type="curve" smooth="yes"/>
      <point x="1651" y="533" type="line"/>
      <point x="1651" y="664" type="line"/>
      <point x="1628" y="679"/>
      <point x="1552" y="693"/>
      <point x="1480" y="693" type="curve" smooth="yes"/>
      <point x="1380" y="693"/>
      <point x="1307" y="669"/>
      <point x="1260" y="619" type="curve"/>
    </contour>
    <contour>
      <point x="948" y="1168" type="move" name="bin"/>
    </contour>
    <contour>
      <point x="1141" y="-29" type="move" name="bottom"/>
    </contour>
    <contour>
      <point x="1285" y="1257" type="move" name="top"/>
    </contour>
  </outline>
</glyph>
<glyph name="k_ssa-deva" format="1">
  <advance width="1665"/>
  <outline>
    <contour>
      <point x="198" y="397" type="curve" smooth="yes"/>
      <point x="198" y="274"/>
      <point x="279" y="167"/>
      <point x="381" y="167" type="curve" smooth="yes"/>
      <point x="406" y="167"/>
      <point x="433" y="183"/>
      <point x="481" y="183" type="curve"/>
      <point x="580" y="98"/>
      <point x="712" y="-60"/>
      <point x="820" y="-222" type="curve" smooth="yes"/>
      <point x="846" y="-258"/>
      <point x="881" y="-275"/>
      <point x="905" y="-275" type="curve" smooth="yes"/>
      <point x="965" y="-275"/>
      <point x="993" y="-257"/>
      <point x="993" y="-232" type="curve" smooth="yes"/>
      <point x="993" y="-181"/>
      <point x="864" y="8"/>
      <point x="570" y="256" type="curve"/>
      <point x="668" y="346"/>
      <point x="751" y="489"/>
      <point x="808" y="678" type="curve"/>
      <point x="874" y="686"/>
      <point x="934" y="716"/>
      <point x="934" y="753" type="curve" smooth="yes"/>
      <point x="934" y="796"/>
      <point x="924" y="831"/>
      <point x="895" y="831" type="curve" smooth="yes"/>
      <point x="885" y="831"/>
      <point x="836" y="805"/>
      <point x="829" y="805" type="curve"/>
      <point x="829" y="1146"/>
      <point x="633" y="1400"/>
      <point x="433" y="1400" type="curve" smooth="yes"/>
      <point x="315" y="1400"/>
      <point x="205" y="1282"/>
      <point x="205" y="1139" type="curve" smooth="yes"/>
      <point x="205" y="940"/>
      <point x="384" y="760"/>
      <point x="641" y="710" type="curve"/>
      <point x="615" y="605"/>
      <point x="565" y="505"/>
      <point x="473" y="406" type="curve"/>
      <point x="391" y="489"/>
      <point x="346" y="499"/>
      <point x="287" y="499" type="curve" smooth="yes"/>
      <point x="225" y="499"/>
      <point x="198" y="454"/>
    </contour>
    <contour>
      <point x="661" y="796" type="curve"/>
      <point x="495" y="829"/>
      <point x="356" y="944"/>
      <point x="356" y="1066" type="curve" smooth="yes"/>
      <point x="356" y="1162"/>
      <point x="433" y="1233"/>
      <point x="525" y="1233" type="curve" smooth="yes"/>
      <point x="610" y="1233"/>
      <point x="684" y="1139"/>
      <point x="684" y="1028" type="curve" smooth="yes"/>
      <point x="684" y="909"/>
      <point x="676" y="825"/>
    </contour>
    <contour>
      <point x="1257" y="-120" type="curve" smooth="yes"/>
      <point x="1340" y="-120"/>
      <point x="1394" y="89"/>
      <point x="1394" y="322" type="curve" smooth="yes"/>
      <point x="1394" y="860" type="line" smooth="yes"/>
      <point x="1394" y="987"/>
      <point x="1408" y="1076"/>
      <point x="1435" y="1123" type="curve"/>
      <point x="1685" y="1123" type="line"/>
      <point x="1685" y="1264" type="line"/>
      <point x="1470" y="1264" type="line"/>
      <point x="1435" y="1309" type="line" smooth="yes"/>
      <point x="1386" y="1372"/>
      <point x="1360" y="1400"/>
      <point x="1347" y="1400" type="curve" smooth="yes"/>
      <point x="1309" y="1400"/>
      <point x="1278" y="1343"/>
      <point x="1264" y="1264" type="curve"/>
      <point x="1133" y="1264" type="line" smooth="yes"/>
      <point x="1094" y="1264"/>
      <point x="999" y="1286"/>
      <point x="965" y="1286" type="curve" smooth="yes"/>
      <point x="938" y="1286"/>
      <point x="904" y="1266"/>
      <point x="904" y="1233" type="curve" smooth="yes"/>
      <point x="904" y="1168"/>
      <point x="977" y="1052"/>
      <point x="1028" y="1052" type="curve" smooth="yes"/>
      <point x="1066" y="1052"/>
      <point x="1149" y="1123"/>
      <point x="1184" y="1123" type="curve" smooth="yes"/>
      <point x="1252" y="1123" type="line"/>
      <point x="1236" y="1076"/>
      <point x="1227" y="973"/>
      <point x="1227" y="818" type="curve" smooth="yes"/>
      <point x="1227" y="751"/>
      <point x="1243" y="497"/>
      <point x="1243" y="431" type="curve" smooth="yes"/>
      <point x="1243" y="228"/>
      <point x="1178" y="63"/>
      <point x="1117" y="63" type="curve" smooth="yes"/>
      <point x="1102" y="63"/>
      <point x="1083" y="60"/>
      <point x="1083" y="49" type="curve" smooth="yes"/>
      <point x="1083" y="-10"/>
      <point x="1211" y="-120"/>
    </contour>
    <contour>
      <point x="846" y="1257" type="move" name="bin"/>
    </contour>
    <contour>
      <point x="1221" y="-60" type="move" name="bottom"/>
    </contour>
    <contour>
      <point x="1365" y="1257" type="move" name="top"/>
    </contour>
  </outline>
</glyph>
<glyph name="ka_ra-deva" format="1">
  <advance width="1853"/>
  <outline>
    <contour>
      <point x="148" y="-48" type="curve" smooth="yes"/>
      <point x="148" y="-66"/>
      <point x="288" y="-165"/>
      <point x="320" y="-165" type="curve" smooth="yes"/>
      <point x="363" y="-165"/>
      <point x="492" y="-66"/>
      <point x="701" y="93" type="curve"/>
      <point x="903" y="261"/>
      <point x="914" y="292"/>
      <point x="959" y="371" type="curve"/>
      <point x="959" y="483" type="line"/>
      <point x="958" y="478"/>
      <point x="933" y="454"/>
      <point x="917" y="431" type="curve" smooth="yes"/>
      <point x="624" y="205"/>
      <point x="373" y="6"/>
      <point x="210" y="6" type="curve" smooth="yes"/>
      <point x="174" y="6"/>
      <point x="148" y="-18"/>
    </contour>
    <component base="ka-deva" xOffset="36"/>
    <contour>
      <point x="473" y="1257" type="move" name="bin"/>
    </contour>
    <contour>
      <point x="960" y="-66" type="move" name="bottom"/>
    </contour>
    <contour>
      <point x="1105" y="1257" type="move" name="top"/>
    </contour>
  </outline>
</glyph>
<glyph name="kh_la-deva.loclMAR" format="1">
  <advance width="2060"/>
  <outline>
    <contour>
      <point x="1878" y="-411"/>
      <point x="1743" y="-180"/>
      <point x="1526" y="-180" type="curve" smooth="yes"/>
      <point x="1446" y="-180"/>
      <point x="1343" y="-259"/>
      <point x="1316" y="-287" type="curve"/>
      <point x="1300" y="-303" type="line"/>
      <point x="1226" y="-218"/>
      <point x="1125" y="-167"/>
      <point x="1075" y="-167" type="curve" smooth="yes"/>
      <point x="923" y="-167"/>
      <point x="798" y="-295"/>
      <point x="798" y="-459" type="curve" smooth="yes"/>
      <point x="798" y="-756"/>
      <point x="1022" y="-1021"/>
      <point x="1255" y="-1021" type="curve" smooth="yes"/>
      <point x="1274" y="-1021"/>
      <point x="1285" y="-1010"/>
      <point x="1285" y="-987" type="curve"/>
      <point x="1280" y="-932"/>
      <point x="1240" y="-900"/>
      <point x="1216" y="-900" type="curve" smooth="yes"/>
      <point x="1051" y="-900"/>
      <point x="933" y="-733"/>
      <point x="933" y="-558" type="curve" smooth="yes"/>
      <point x="933" y="-418"/>
      <point x="1027" y="-299"/>
      <point x="1154" y="-299" type="curve" smooth="yes"/>
      <point x="1181" y="-299"/>
      <point x="1219" y="-325"/>
      <point x="1253" y="-356" type="curve"/>
      <point x="1230" y="-385"/>
      <point x="1221" y="-428"/>
      <point x="1221" y="-452" type="curve" smooth="yes"/>
      <point x="1221" y="-490"/>
      <point x="1282" y="-574"/>
      <point x="1324" y="-574" type="curve" smooth="yes"/>
      <point x="1402" y="-574"/>
      <point x="1416" y="-373"/>
      <point x="1607" y="-373" type="curve" smooth="yes"/>
      <point x="1692" y="-373"/>
      <point x="1776" y="-462"/>
      <point x="1776" y="-588" type="curve" smooth="yes"/>
      <point x="1776" y="-708"/>
      <point x="1668" y="-813"/>
      <point x="1552" y="-813" type="curve" smooth="yes"/>
      <point x="1542" y="-813"/>
      <point x="1480" y="-802"/>
      <point x="1470" y="-802" type="curve" smooth="yes"/>
      <point x="1453" y="-802"/>
      <point x="1434" y="-813"/>
      <point x="1434" y="-832" type="curve" smooth="yes"/>
      <point x="1434" y="-885"/>
      <point x="1538" y="-987"/>
      <point x="1572" y="-987" type="curve" smooth="yes"/>
      <point x="1743" y="-987"/>
      <point x="1878" y="-837"/>
      <point x="1878" y="-664" type="curve" smooth="yes"/>
    </contour>
    <contour>
      <point x="1060" y="74"/>
      <point x="901" y="14"/>
      <point x="745" y="14" type="curve" smooth="yes"/>
      <point x="625" y="14"/>
      <point x="491" y="109"/>
      <point x="391" y="268" type="curve"/>
      <point x="437" y="268" type="line" smooth="yes"/>
      <point x="563" y="268"/>
      <point x="647" y="418"/>
      <point x="647" y="652" type="curve" smooth="yes"/>
      <point x="647" y="706"/>
      <point x="639" y="866"/>
      <point x="639" y="916" type="curve" smooth="yes"/>
      <point x="639" y="1020"/>
      <point x="643" y="1084"/>
      <point x="664" y="1123" type="curve"/>
      <point x="1628" y="1123" type="line"/>
      <point x="1628" y="955" type="line" smooth="yes"/>
      <point x="1628" y="875"/>
      <point x="1656" y="596"/>
      <point x="1656" y="517" type="curve"/>
      <point x="1649" y="517" type="line"/>
      <point x="1557" y="724"/>
      <point x="1402" y="860"/>
      <point x="1243" y="860" type="curve" smooth="yes"/>
      <point x="1025" y="860"/>
      <point x="849" y="722"/>
      <point x="849" y="557" type="curve" smooth="yes"/>
      <point x="849" y="406"/>
      <point x="999" y="238"/>
      <point x="1183" y="155" type="curve"/>
    </contour>
    <contour>
      <point x="1494" y="371"/>
      <point x="1340" y="322"/>
      <point x="1157" y="322" type="curve" smooth="yes"/>
      <point x="1060" y="322"/>
      <point x="967" y="382"/>
      <point x="967" y="473" type="curve" smooth="yes"/>
      <point x="967" y="592"/>
      <point x="1133" y="694"/>
      <point x="1337" y="694" type="curve" smooth="yes"/>
      <point x="1470" y="694"/>
      <point x="1573" y="598"/>
      <point x="1588" y="473" type="curve"/>
      <point x="1587" y="473" type="line"/>
    </contour>
    <contour>
      <point x="476" y="497"/>
      <point x="387" y="406"/>
      <point x="293" y="406" type="curve" smooth="yes"/>
      <point x="254" y="406"/>
      <point x="218" y="448"/>
      <point x="218" y="517" type="curve" smooth="yes"/>
      <point x="218" y="612"/>
      <point x="289" y="694"/>
      <point x="371" y="694" type="curve" smooth="yes"/>
      <point x="408" y="694"/>
      <point x="454" y="661"/>
      <point x="489" y="623" type="curve"/>
      <point x="491" y="623" type="line"/>
    </contour>
    <contour>
      <point x="1819" y="1264" type="line"/>
      <point x="1775" y="1355"/>
      <point x="1714" y="1400"/>
      <point x="1675" y="1400" type="curve" smooth="yes"/>
      <point x="1649" y="1400"/>
      <point x="1628" y="1372"/>
      <point x="1628" y="1264" type="curve"/>
      <point x="655" y="1264" type="line"/>
      <point x="610" y="1355"/>
      <point x="562" y="1400"/>
      <point x="521" y="1400" type="curve" smooth="yes"/>
      <point x="495" y="1400"/>
      <point x="473" y="1372"/>
      <point x="473" y="1264" type="curve"/>
      <point x="-18" y="1264" type="line"/>
      <point x="-18" y="1123" type="line"/>
      <point x="473" y="1123" type="line"/>
      <point x="473" y="942"/>
      <point x="478" y="829"/>
      <point x="491" y="777" type="curve"/>
      <point x="483" y="777" type="line"/>
      <point x="416" y="805"/>
      <point x="349" y="818"/>
      <point x="317" y="818" type="curve" smooth="yes"/>
      <point x="210" y="818"/>
      <point x="114" y="726"/>
      <point x="114" y="610" type="curve" smooth="yes"/>
      <point x="114" y="481"/>
      <point x="205" y="334"/>
      <point x="378" y="149" type="curve" smooth="yes"/>
      <point x="557" y="-43"/>
      <point x="715" y="-130"/>
      <point x="831" y="-130" type="curve" smooth="yes"/>
      <point x="1025" y="-130"/>
      <point x="1318" y="12"/>
      <point x="1651" y="299" type="curve"/>
      <point x="1656" y="299" type="line"/>
      <point x="1659" y="279"/>
      <point x="1659" y="36"/>
      <point x="1659" y="17" type="curve" smooth="yes"/>
      <point x="1659" y="-88"/>
      <point x="1587" y="-218"/>
      <point x="1512" y="-218" type="curve" smooth="yes"/>
      <point x="1494" y="-218"/>
      <point x="1487" y="-194"/>
      <point x="1487" y="-229" type="curve" smooth="yes"/>
      <point x="1487" y="-270"/>
      <point x="1587" y="-357"/>
      <point x="1652" y="-357" type="curve" smooth="yes"/>
      <point x="1760" y="-357"/>
      <point x="1812" y="-156"/>
      <point x="1812" y="84" type="curve" smooth="yes"/>
      <point x="1812" y="186"/>
      <point x="1783" y="773"/>
      <point x="1783" y="874" type="curve" smooth="yes"/>
      <point x="1783" y="983"/>
      <point x="1786" y="1123"/>
      <point x="1804" y="1123" type="curve" smooth="yes"/>
      <point x="2080" y="1123" type="line"/>
      <point x="2080" y="1264" type="line"/>
    </contour>
    <contour>
      <point x="950" y="1257" type="move" name="bin"/>
    </contour>
    <contour>
      <point x="267" y="-156" type="move" name="bottom"/>
    </contour>
    <contour>
      <point x="1731" y="1257" type="move" name="top"/>
    </contour>
  </outline>
</glyph>
<glyph name="kh_na-deva" format="1">
  <advance width="2863"/>
  <outline>
    <contour>
      <point x="1673" y="1123" type="line"/>
      <point x="2469" y="1123" type="line"/>
      <point x="2469" y="925"/>
      <point x="2469" y="772"/>
      <point x="2483" y="702" type="curve"/>
      <point x="2394" y="789"/>
      <point x="2265" y="824"/>
      <point x="2115" y="824" type="curve" smooth="yes"/>
      <point x="2032" y="824"/>
      <point x="1915" y="805"/>
      <point x="1799" y="756" type="curve"/>
      <point x="1796" y="756" type="line"/>
      <point x="1744" y="824"/>
      <point x="1689" y="865"/>
      <point x="1657" y="865" type="curve" smooth="yes"/>
      <point x="1627" y="865"/>
      <point x="1609" y="838"/>
      <point x="1609" y="801" type="curve" smooth="yes"/>
      <point x="1609" y="789"/>
      <point x="1625" y="758"/>
      <point x="1664" y="736" type="curve"/>
      <point x="1690" y="695" type="line"/>
      <point x="1689" y="695" type="line"/>
      <point x="1619" y="649"/>
      <point x="1568" y="587"/>
      <point x="1568" y="507" type="curve" smooth="yes"/>
      <point x="1568" y="343"/>
      <point x="1705" y="201"/>
      <point x="1860" y="201" type="curve" smooth="yes"/>
      <point x="1949" y="201"/>
      <point x="2005" y="290"/>
      <point x="2005" y="398" type="curve" smooth="yes"/>
      <point x="2005" y="475"/>
      <point x="1989" y="559"/>
      <point x="1969" y="601" type="curve"/>
      <point x="1970" y="601" type="line"/>
      <point x="2047" y="639"/>
      <point x="2098" y="657"/>
      <point x="2166" y="657" type="curve" smooth="yes"/>
      <point x="2258" y="657"/>
      <point x="2364" y="646"/>
      <point x="2485" y="597" type="curve"/>
      <point x="2485" y="533"/>
      <point x="2487" y="476"/>
      <point x="2487" y="397" type="curve" smooth="yes"/>
      <point x="2487" y="243"/>
      <point x="2429" y="53"/>
      <point x="2355" y="53" type="curve" smooth="yes"/>
      <point x="2335" y="53"/>
      <point x="2318" y="35"/>
      <point x="2318" y="4" type="curve" smooth="yes"/>
      <point x="2318" y="-55"/>
      <point x="2429" y="-110"/>
      <point x="2477" y="-110" type="curve" smooth="yes"/>
      <point x="2582" y="-110"/>
      <point x="2625" y="13"/>
      <point x="2625" y="218" type="curve" smooth="yes"/>
      <point x="2625" y="352"/>
      <point x="2625" y="830"/>
      <point x="2625" y="994" type="curve" smooth="yes"/>
      <point x="2625" y="1107"/>
      <point x="2642" y="1123"/>
      <point x="2666" y="1123" type="curve" smooth="yes"/>
      <point x="2883" y="1123" type="line"/>
      <point x="2883" y="1264" type="line"/>
      <point x="2681" y="1264" type="line"/>
      <point x="2636" y="1325"/>
      <point x="2580" y="1400"/>
      <point x="2537" y="1400" type="curve" smooth="yes"/>
      <point x="2496" y="1400"/>
      <point x="2473" y="1341"/>
      <point x="2473" y="1264" type="curve"/>
      <point x="1673" y="1264" type="line"/>
    </contour>
    <contour>
      <point x="1956" y="393"/>
      <point x="1911" y="333"/>
      <point x="1873" y="333" type="curve" smooth="yes"/>
      <point x="1815" y="333"/>
      <point x="1776" y="386"/>
      <point x="1776" y="452" type="curve" smooth="yes"/>
      <point x="1776" y="505"/>
      <point x="1815" y="551"/>
      <point x="1848" y="551" type="curve" smooth="yes"/>
      <point x="1908" y="551"/>
      <point x="1956" y="497"/>
      <point x="1956" y="440" type="curve" smooth="yes"/>
    </contour>
    <component base="kh-deva"/>
    <contour>
      <point x="227" y="-112" type="move" name="nukta"/>
    </contour>
    <contour>
      <point x="2558" y="1257" type="move" name="top"/>
    </contour>
    <contour>
      <point x="1648" y="1257" type="move" name="bin"/>
    </contour>
    <contour>
      <point x="2429" y="-50" type="move" name="bottom"/>
    </contour>
  </outline>
</glyph>
<glyph name="l_la-deva" format="1">
  <advance width="2454"/>
  <outline>
    <component base="l-deva"/>
    <component base="la-deva" xOffset="994"/>
    <contour>
      <point x="1163" y="1257" type="move" name="bin"/>
    </contour>
    <contour>
      <point x="2094" y="-39" type="move" name="bottom"/>
    </contour>
    <contour>
      <point x="2211" y="1257" type="move" name="top"/>
    </contour>
  </outline>
</glyph>
<glyph name="macron.cap" format="1">
  <advance width="899"/>
  <outline>
    <contour>
      <point x="184" y="1544" type="line" smooth="yes"/>
      <point x="153" y="1544"/>
      <point x="122" y="1497"/>
      <point x="122" y="1451" type="curve" smooth="yes"/>
      <point x="122" y="1406"/>
      <point x="144" y="1345"/>
      <point x="193" y="1345" type="curve" smooth="yes"/>
      <point x="686" y="1345" type="line" smooth="yes"/>
      <point x="722" y="1345"/>
      <point x="757" y="1345"/>
      <point x="757" y="1449" type="curve" smooth="yes"/>
      <point x="757" y="1526"/>
      <point x="736" y="1534"/>
      <point x="696" y="1534" type="curve" smooth="yes"/>
    </contour>
    <contour>
      <point x="439" y="1429" type="move" name="_top"/>
    </contour>
  </outline>
</glyph>
<glyph name="n-deva" format="1">
  <advance width="882"/>
  <outline>
    <contour>
      <point x="1172" y="1123" type="line"/>
      <point x="1172" y="1264" type="line"/>
      <point x="-20" y="1264" type="line"/>
      <point x="-20" y="1123" type="line"/>
    </contour>
    <contour>
      <point x="403" y="207" type="curve" smooth="yes"/>
      <point x="491" y="207"/>
      <point x="550" y="296"/>
      <point x="550" y="404" type="curve" smooth="yes"/>
      <point x="550" y="481"/>
      <point x="537" y="565"/>
      <point x="513" y="607" type="curve"/>
      <point x="515" y="607" type="line"/>
      <point x="596" y="645"/>
      <point x="689" y="663"/>
      <point x="778" y="663" type="curve" smooth="yes"/>
      <point x="875" y="663"/>
      <point x="1030" y="636"/>
      <point x="1154" y="587" type="curve"/>
      <point x="1154" y="695" type="line"/>
      <point x="1070" y="779"/>
      <point x="869" y="830"/>
      <point x="700" y="830" type="curve" smooth="yes"/>
      <point x="572" y="830"/>
      <point x="461" y="811"/>
      <point x="344" y="762" type="curve"/>
      <point x="339" y="762" type="line"/>
      <point x="285" y="830"/>
      <point x="233" y="871"/>
      <point x="200" y="871" type="curve" smooth="yes"/>
      <point x="172" y="871"/>
      <point x="149" y="844"/>
      <point x="149" y="807" type="curve" smooth="yes"/>
      <point x="149" y="795"/>
      <point x="169" y="764"/>
      <point x="205" y="742" type="curve"/>
      <point x="234" y="701" type="line"/>
      <point x="233" y="701" type="line"/>
      <point x="164" y="655"/>
      <point x="119" y="593"/>
      <point x="119" y="513" type="curve" smooth="yes"/>
      <point x="119" y="349"/>
      <point x="250" y="207"/>
    </contour>
    <contour>
      <point x="364" y="339" type="curve" smooth="yes"/>
      <point x="317" y="339"/>
      <point x="272" y="392"/>
      <point x="272" y="458" type="curve" smooth="yes"/>
      <point x="272" y="511"/>
      <point x="317" y="557"/>
      <point x="343" y="557" type="curve" smooth="yes"/>
      <point x="398" y="557"/>
      <point x="451" y="503"/>
      <point x="451" y="446" type="curve" smooth="yes"/>
      <point x="451" y="399"/>
      <point x="406" y="339"/>
    </contour>
  </outline>
</glyph>
<glyph name="n_ra-deva" format="1">
  <advance width="1826"/>
  <outline>
    <contour>
      <point x="89" y="309"/>
      <point x="220" y="167"/>
      <point x="373" y="167" type="curve" smooth="yes"/>
      <point x="461" y="167"/>
      <point x="520" y="256"/>
      <point x="520" y="364" type="curve" smooth="yes"/>
      <point x="520" y="441"/>
      <point x="507" y="525"/>
      <point x="483" y="567" type="curve"/>
      <point x="485" y="567" type="line"/>
      <point x="566" y="605"/>
      <point x="659" y="623"/>
      <point x="748" y="623" type="curve" smooth="yes"/>
      <point x="845" y="623"/>
      <point x="990" y="596"/>
      <point x="1114" y="547" type="curve"/>
      <point x="1114" y="655" type="line"/>
      <point x="1030" y="739"/>
      <point x="839" y="790"/>
      <point x="670" y="790" type="curve" smooth="yes"/>
      <point x="542" y="790"/>
      <point x="431" y="771"/>
      <point x="314" y="722" type="curve"/>
      <point x="309" y="722" type="line"/>
      <point x="255" y="790"/>
      <point x="203" y="831"/>
      <point x="170" y="831" type="curve" smooth="yes"/>
      <point x="142" y="831"/>
      <point x="119" y="804"/>
      <point x="119" y="767" type="curve" smooth="yes"/>
      <point x="119" y="755"/>
      <point x="139" y="724"/>
      <point x="175" y="702" type="curve"/>
      <point x="204" y="661" type="line"/>
      <point x="203" y="661" type="line"/>
      <point x="134" y="615"/>
      <point x="89" y="553"/>
      <point x="89" y="473" type="curve" smooth="yes"/>
    </contour>
    <contour>
      <point x="421" y="359"/>
      <point x="376" y="299"/>
      <point x="334" y="299" type="curve" smooth="yes"/>
      <point x="287" y="299"/>
      <point x="242" y="352"/>
      <point x="242" y="418" type="curve" smooth="yes"/>
      <point x="242" y="471"/>
      <point x="287" y="517"/>
      <point x="313" y="517" type="curve" smooth="yes"/>
      <point x="368" y="517"/>
      <point x="421" y="463"/>
      <point x="421" y="406" type="curve" smooth="yes"/>
    </contour>
    <contour>
      <point x="-23" y="1123" type="line"/>
      <point x="1434" y="1123" type="line"/>
      <point x="1434" y="1008"/>
      <point x="1438" y="930"/>
      <point x="1439" y="874" type="curve"/>
      <point x="1395" y="899"/>
      <point x="1329" y="916"/>
      <point x="1258" y="916" type="curve" smooth="yes"/>
      <point x="1146" y="916"/>
      <point x="1040" y="812"/>
      <point x="1040" y="678" type="curve" smooth="yes"/>
      <point x="1040" y="532"/>
      <point x="1118" y="392"/>
      <point x="1288" y="155" type="curve" smooth="yes"/>
      <point x="1463" y="-88"/>
      <point x="1621" y="-213"/>
      <point x="1692" y="-213" type="curve" smooth="yes"/>
      <point x="1711" y="-213"/>
      <point x="1756" y="-183"/>
      <point x="1756" y="-153" type="curve" smooth="yes"/>
      <point x="1756" y="-136"/>
      <point x="1752" y="-130"/>
      <point x="1740" y="-126" type="curve"/>
      <point x="1694" y="-95" type="line" smooth="yes"/>
      <point x="1563" y="-8"/>
      <point x="1427" y="132"/>
      <point x="1305" y="329" type="curve"/>
      <point x="1327" y="324"/>
      <point x="1345" y="324"/>
      <point x="1367" y="324" type="curve" smooth="yes"/>
      <point x="1553" y="324"/>
      <point x="1585" y="478"/>
      <point x="1585" y="697" type="curve" smooth="yes"/>
      <point x="1585" y="1013" type="line" smooth="yes"/>
      <point x="1585" y="1078"/>
      <point x="1590" y="1123"/>
      <point x="1618" y="1123" type="curve" smooth="yes"/>
      <point x="1846" y="1123" type="line"/>
      <point x="1846" y="1264" type="line"/>
      <point x="1608" y="1264" type="line"/>
      <point x="1541" y="1360"/>
      <point x="1513" y="1388"/>
      <point x="1480" y="1388" type="curve" smooth="yes"/>
      <point x="1456" y="1388"/>
      <point x="1427" y="1370"/>
      <point x="1427" y="1264" type="curve"/>
      <point x="-23" y="1264" type="line"/>
    </contour>
    <contour>
      <point x="1443" y="525"/>
      <point x="1349" y="450"/>
      <point x="1248" y="450" type="curve" smooth="yes"/>
      <point x="1215" y="450"/>
      <point x="1179" y="515"/>
      <point x="1179" y="565" type="curve" smooth="yes"/>
      <point x="1179" y="671"/>
      <point x="1260" y="753"/>
      <point x="1339" y="753" type="curve" smooth="yes"/>
      <point x="1362" y="753"/>
      <point x="1407" y="739"/>
      <point x="1443" y="710" type="curve"/>
    </contour>
    <contour>
      <point x="334" y="-82" type="move" name="nukta"/>
    </contour>
    <contour>
      <point x="1533" y="1257" type="move" name="top"/>
    </contour>
    <contour>
      <point x="863" y="1257" type="move" name="bin"/>
    </contour>
    <contour>
      <point x="1042" y="-48" type="move" name="bottom"/>
    </contour>
  </outline>
</glyph>
<glyph name="n_t_sa-deva" format="1">
  <advance width="3251"/>
  <outline>
    <contour>
      <point x="1898" y="1123" type="line"/>
      <point x="1898" y="1264" type="line"/>
      <point x="765" y="1264" type="line"/>
      <point x="765" y="1123" type="line"/>
    </contour>
    <contour>
      <point x="935" y="215"/>
      <point x="1258" y="-222"/>
      <point x="1421" y="-222" type="curve" smooth="yes"/>
      <point x="1443" y="-222"/>
      <point x="1451" y="-205"/>
      <point x="1451" y="-173" type="curve" smooth="yes"/>
      <point x="1451" y="-134"/>
      <point x="1431" y="-95"/>
      <point x="1391" y="-68" type="curve"/>
      <point x="1229" y="-26"/>
      <point x="1103" y="136"/>
      <point x="1103" y="337" type="curve" smooth="yes"/>
      <point x="1103" y="525"/>
      <point x="1246" y="639"/>
      <point x="1456" y="639" type="curve" smooth="yes"/>
      <point x="1601" y="639"/>
      <point x="1769" y="602"/>
      <point x="1872" y="535" type="curve"/>
      <point x="1872" y="641" type="line"/>
      <point x="1754" y="767"/>
      <point x="1556" y="831"/>
      <point x="1412" y="831" type="curve" smooth="yes"/>
      <point x="1125" y="831"/>
      <point x="935" y="684"/>
      <point x="935" y="443" type="curve" smooth="yes"/>
    </contour>
    <component base="sa-deva" xOffset="1660"/>
    <component base="n-deva" xOffset="-7"/>
  </outline>
</glyph>
<glyph name="nna_ra-deva" format="1">
  <advance width="1490"/>
  <outline>
    <contour>
      <point x="489" y="19"/>
      <point x="463" y="-5"/>
      <point x="463" y="-35" type="curve" smooth="yes"/>
      <point x="463" y="-53"/>
      <point x="603" y="-152"/>
      <point x="635" y="-152" type="curve" smooth="yes"/>
      <point x="678" y="-152"/>
      <point x="719" y="-118"/>
      <point x="966" y="79" type="curve"/>
      <point x="1049" y="152"/>
      <point x="1209" y="335"/>
      <point x="1237" y="374" type="curve"/>
      <point x="1173" y="471" type="line"/>
      <point x="945" y="273"/>
      <point x="688" y="19"/>
      <point x="525" y="19" type="curve" smooth="yes"/>
    </contour>
    <contour>
      <point x="483" y="449" type="curve" smooth="yes"/>
      <point x="368" y="449"/>
      <point x="311" y="539"/>
      <point x="311" y="667" type="curve" smooth="yes"/>
      <point x="311" y="867"/>
      <point x="313" y="946"/>
      <point x="406" y="1123" type="curve"/>
      <point x="691" y="1123" type="line"/>
      <point x="755" y="1052"/>
      <point x="792" y="950"/>
      <point x="792" y="878" type="curve" smooth="yes"/>
      <point x="792" y="623"/>
      <point x="647" y="449"/>
    </contour>
    <contour>
      <point x="483" y="1264" type="line"/>
      <point x="431" y="1337"/>
      <point x="368" y="1412"/>
      <point x="334" y="1412" type="curve" smooth="yes"/>
      <point x="283" y="1412"/>
      <point x="248" y="1341"/>
      <point x="248" y="1264" type="curve"/>
      <point x="-29" y="1264" type="line"/>
      <point x="-29" y="1123" type="line"/>
      <point x="212" y="1123" type="line"/>
      <point x="169" y="993"/>
      <point x="149" y="934"/>
      <point x="149" y="752" type="curve" smooth="yes"/>
      <point x="149" y="568"/>
      <point x="427" y="267"/>
      <point x="590" y="267" type="curve" smooth="yes"/>
      <point x="765" y="267"/>
      <point x="907" y="478"/>
      <point x="907" y="770" type="curve" smooth="yes"/>
      <point x="907" y="916"/>
      <point x="876" y="1003"/>
      <point x="783" y="1123" type="curve"/>
      <point x="1142" y="1123" type="line"/>
      <point x="1142" y="453"/>
      <point x="1181" y="-104"/>
      <point x="1028" y="-104" type="curve" smooth="yes"/>
      <point x="1004" y="-104"/>
      <point x="987" y="-114"/>
      <point x="987" y="-131" type="curve" smooth="yes"/>
      <point x="987" y="-192"/>
      <point x="1083" y="-300"/>
      <point x="1139" y="-300" type="curve" smooth="yes"/>
      <point x="1226" y="-300"/>
      <point x="1292" y="-144"/>
      <point x="1291" y="42" type="curve" smooth="yes"/>
      <point x="1288" y="1028" type="line" smooth="yes"/>
      <point x="1288" y="1033"/>
      <point x="1288" y="1040"/>
      <point x="1288" y="1048" type="curve" smooth="yes"/>
      <point x="1288" y="1089"/>
      <point x="1297" y="1123"/>
      <point x="1327" y="1123" type="curve" smooth="yes"/>
      <point x="1510" y="1123" type="line"/>
      <point x="1510" y="1264" type="line"/>
      <point x="1345" y="1264" type="line"/>
      <point x="1295" y="1337"/>
      <point x="1246" y="1412"/>
      <point x="1211" y="1412" type="curve" smooth="yes"/>
      <point x="1159" y="1412"/>
      <point x="1126" y="1341"/>
      <point x="1126" y="1264" type="curve"/>
    </contour>
    <contour>
      <point x="148" y="193" type="move" name="nukta"/>
    </contour>
    <contour>
      <point x="1235" y="1267" type="move" name="top"/>
    </contour>
    <contour>
      <point x="737" y="1267" type="move" name="bin"/>
    </contour>
    <contour>
      <point x="1082" y="-231" type="move" name="bottom"/>
    </contour>
  </outline>
</glyph>
<glyph name="p_tta-deva" format="1">
  <advance width="1341"/>
  <outline>
    <contour>
      <point x="765" y="293" type="line"/>
      <point x="652" y="293" type="line" smooth="yes"/>
      <point x="440" y="293"/>
      <point x="300" y="176"/>
      <point x="300" y="-4" type="curve" smooth="yes"/>
      <point x="300" y="-243"/>
      <point x="535" y="-447"/>
      <point x="829" y="-447" type="curve" smooth="yes"/>
      <point x="1040" y="-447"/>
      <point x="1208" y="-377"/>
      <point x="1208" y="-280" type="curve" smooth="yes"/>
      <point x="1208" y="-218"/>
      <point x="1163" y="-153"/>
      <point x="1121" y="-153" type="curve" smooth="yes"/>
      <point x="1119" y="-153"/>
      <point x="1101" y="-159"/>
      <point x="1066" y="-177" type="curve"/>
      <point x="1050" y="-194" type="line"/>
      <point x="944" y="-249"/>
      <point x="832" y="-280"/>
      <point x="726" y="-280" type="curve" smooth="yes"/>
      <point x="498" y="-280"/>
      <point x="419" y="-181"/>
      <point x="419" y="-59" type="curve" smooth="yes"/>
      <point x="419" y="50"/>
      <point x="485" y="106"/>
      <point x="623" y="182" type="curve" smooth="yes"/>
      <point x="828" y="295" type="line"/>
    </contour>
    <contour>
      <point x="-35" y="1123" type="line"/>
      <point x="307" y="1123" type="line"/>
      <point x="215" y="990"/>
      <point x="163" y="822"/>
      <point x="163" y="639" type="curve" smooth="yes"/>
      <point x="163" y="423"/>
      <point x="377" y="195"/>
      <point x="592" y="195" type="curve" smooth="yes"/>
      <point x="694" y="195"/>
      <point x="815" y="240"/>
      <point x="968" y="337" type="curve"/>
      <point x="968" y="183"/>
      <point x="923" y="159"/>
      <point x="896" y="159" type="curve" smooth="yes"/>
      <point x="868" y="159"/>
      <point x="843" y="146"/>
      <point x="843" y="124" type="curve" smooth="yes"/>
      <point x="843" y="65"/>
      <point x="881" y="-39"/>
      <point x="946" y="-39" type="curve" smooth="yes"/>
      <point x="1058" y="-39"/>
      <point x="1133" y="71"/>
      <point x="1133" y="311" type="curve" smooth="yes"/>
      <point x="1133" y="437"/>
      <point x="1123" y="864"/>
      <point x="1123" y="987" type="curve" smooth="yes"/>
      <point x="1123" y="1060"/>
      <point x="1128" y="1123"/>
      <point x="1164" y="1123" type="curve" smooth="yes"/>
      <point x="1361" y="1123" type="line"/>
      <point x="1361" y="1264" type="line"/>
      <point x="1181" y="1264" type="line"/>
      <point x="1132" y="1345"/>
      <point x="1078" y="1400"/>
      <point x="1057" y="1400" type="curve" smooth="yes"/>
      <point x="1005" y="1400"/>
      <point x="978" y="1337"/>
      <point x="978" y="1264" type="curve"/>
      <point x="-35" y="1264" type="line"/>
    </contour>
    <contour>
      <point x="429" y="347" type="curve" smooth="yes"/>
      <point x="359" y="347"/>
      <point x="299" y="421"/>
      <point x="299" y="517" type="curve" smooth="yes"/>
      <point x="299" y="726"/>
      <point x="391" y="952"/>
      <point x="570" y="1123" type="curve"/>
      <point x="970" y="1123" type="line"/>
      <point x="965" y="1057"/>
      <point x="960" y="940"/>
      <point x="960" y="767" type="curve" smooth="yes"/>
      <point x="960" y="706"/>
      <point x="968" y="489"/>
      <point x="968" y="431" type="curve"/>
      <point x="875" y="542" type="line"/>
      <point x="755" y="416"/>
      <point x="590" y="347"/>
    </contour>
    <contour>
      <point x="103" y="-159" type="move" name="nukta"/>
    </contour>
    <contour>
      <point x="1088" y="1257" type="move" name="top"/>
    </contour>
    <contour>
      <point x="632" y="1257" type="move" name="bin"/>
    </contour>
    <contour>
      <point x="841" y="-399" type="move" name="bottom"/>
    </contour>
  </outline>
</glyph>
<glyph name="reph-deva" format="1">
  <advance width="540"/>
  <outline>
    <contour>
      <point x="233" y="1754"/>
      <point x="294" y="1883"/>
      <point x="419" y="1883" type="curve" smooth="yes"/>
      <point x="479" y="1883"/>
      <point x="498" y="1843"/>
      <point x="526" y="1843" type="curve" smooth="yes"/>
      <point x="547" y="1843"/>
      <point x="578" y="1878"/>
      <point x="578" y="1907" type="curve" smooth="yes"/>
      <point x="578" y="2005"/>
      <point x="502" y="2044"/>
      <point x="422" y="2044" type="curve" smooth="yes"/>
      <point x="319" y="2044"/>
      <point x="138" y="1920"/>
      <point x="138" y="1669" type="curve"/>
      <point x="138" y="1522"/>
      <point x="137" y="1346"/>
      <point x="140" y="1263" type="curve"/>
      <point x="191" y="1263" type="line"/>
      <point x="199" y="1356"/>
      <point x="226" y="1593"/>
      <point x="226" y="1664" type="curve"/>
    </contour>
    <contour>
      <point x="626" y="1340" type="move" name="bin"/>
    </contour>
    <contour>
      <point x="168" y="1257" type="move" name="_top"/>
    </contour>
  </outline>
</glyph>
<glyph name="sha_matra_vocalicR-deva" format="1">
  <advance width="1652"/>
  <outline>
    <contour>
      <point x="109" y="649"/>
      <point x="84" y="625"/>
      <point x="84" y="610" type="curve" smooth="yes"/>
      <point x="84" y="553"/>
      <point x="169" y="454"/>
      <point x="220" y="454" type="curve" smooth="yes"/>
      <point x="342" y="454"/>
      <point x="521" y="540"/>
      <point x="686" y="678" type="curve"/>
      <point x="689" y="678" type="line"/>
      <point x="914" y="586"/>
      <point x="1093" y="533"/>
      <point x="1268" y="517" type="curve" smooth="yes"/>
      <point x="1272" y="517" type="line"/>
      <point x="1268" y="443" type="line"/>
      <point x="1271" y="343"/>
      <point x="1241" y="253"/>
      <point x="1186" y="207" type="curve"/>
      <point x="1176" y="207"/>
      <point x="1157" y="194"/>
      <point x="1157" y="179" type="curve" smooth="yes"/>
      <point x="1157" y="134"/>
      <point x="1286" y="50"/>
      <point x="1357" y="50" type="curve" smooth="yes"/>
      <point x="1410" y="50"/>
      <point x="1433" y="179"/>
      <point x="1433" y="323" type="curve"/>
      <point x="1421" y="916" type="line" smooth="yes"/>
      <point x="1419" y="1020"/>
      <point x="1417" y="1097"/>
      <point x="1435" y="1123" type="curve"/>
      <point x="1672" y="1123" type="line"/>
      <point x="1672" y="1264" type="line"/>
      <point x="1456" y="1264" type="line"/>
      <point x="1398" y="1345"/>
      <point x="1360" y="1400"/>
      <point x="1312" y="1400" type="curve" smooth="yes"/>
      <point x="1262" y="1400"/>
      <point x="1256" y="1340"/>
      <point x="1256" y="1264" type="curve"/>
      <point x="1178" y="1264" type="line" smooth="yes"/>
      <point x="1149" y="1264"/>
      <point x="1074" y="1286"/>
      <point x="1047" y="1286" type="curve" smooth="yes"/>
      <point x="998" y="1286"/>
      <point x="963" y="1264"/>
      <point x="963" y="1221" type="curve" smooth="yes"/>
      <point x="963" y="1109"/>
      <point x="1058" y="973"/>
      <point x="1123" y="973" type="curve" smooth="yes"/>
      <point x="1162" y="973"/>
      <point x="1162" y="1123"/>
      <point x="1213" y="1123" type="curve" smooth="yes"/>
      <point x="1256" y="1123" type="line"/>
      <point x="1256" y="1054"/>
      <point x="1272" y="829"/>
      <point x="1272" y="767" type="curve" smooth="yes"/>
      <point x="1272" y="652" type="line"/>
      <point x="1268" y="652" type="line" smooth="yes"/>
      <point x="1083" y="652"/>
      <point x="907" y="689"/>
      <point x="753" y="753" type="curve"/>
      <point x="831" y="831"/>
      <point x="884" y="967"/>
      <point x="884" y="1109" type="curve" smooth="yes"/>
      <point x="884" y="1299"/>
      <point x="736" y="1454"/>
      <point x="565" y="1454" type="curve" smooth="yes"/>
      <point x="427" y="1454"/>
      <point x="307" y="1330"/>
      <point x="307" y="1194" type="curve" smooth="yes"/>
      <point x="307" y="1078"/>
      <point x="373" y="930"/>
      <point x="495" y="790" type="curve"/>
      <point x="492" y="790" type="line"/>
      <point x="411" y="719"/>
      <point x="299" y="664"/>
      <point x="149" y="652" type="curve"/>
    </contour>
    <contour>
      <point x="582" y="860" type="line"/>
      <point x="518" y="909"/>
      <point x="466" y="988"/>
      <point x="466" y="1083" type="curve" smooth="yes"/>
      <point x="466" y="1174"/>
      <point x="557" y="1286"/>
      <point x="643" y="1286" type="curve" smooth="yes"/>
      <point x="705" y="1286"/>
      <point x="750" y="1252"/>
      <point x="750" y="1206" type="curve" smooth="yes"/>
      <point x="750" y="1080"/>
      <point x="688" y="942"/>
      <point x="586" y="860" type="curve"/>
    </contour>
    <component base="rVocalicMatra-deva" xOffset="823" yOffset="193"/>
    <contour>
      <point x="359" y="1257" type="move" name="bin"/>
    </contour>
    <contour>
      <point x="1321" y="-52" type="move" name="bottom"/>
    </contour>
    <contour>
      <point x="1367" y="1257" type="move" name="top"/>
    </contour>
  </outline>
</glyph>
<glyph name="ss_ttha-deva" format="1">
  <advance width="1295"/>
  <outline>
    <contour>
      <point x="-20" y="1123" type="line"/>
      <point x="238" y="1123" type="line"/>
      <point x="184" y="1076"/>
      <point x="150" y="975"/>
      <point x="150" y="860" type="curve" smooth="yes"/>
      <point x="150" y="726"/>
      <point x="205" y="598"/>
      <point x="293" y="517" type="curve"/>
      <point x="297" y="517" type="line"/>
      <point x="240" y="448"/>
      <point x="200" y="377"/>
      <point x="200" y="311" type="curve" smooth="yes"/>
      <point x="200" y="74"/>
      <point x="443" y="-173"/>
      <point x="666" y="-173" type="curve" smooth="yes"/>
      <point x="856" y="-173" type="line" smooth="yes"/>
      <point x="1015" y="-173"/>
      <point x="1142" y="-43"/>
      <point x="1142" y="116" type="curve" smooth="yes"/>
      <point x="1142" y="225"/>
      <point x="1078" y="347"/>
      <point x="973" y="418" type="curve"/>
      <point x="975" y="418" type="line"/>
      <point x="1054" y="436"/>
      <point x="1084" y="578"/>
      <point x="1084" y="732" type="curve" smooth="yes"/>
      <point x="1084" y="796"/>
      <point x="1060" y="990"/>
      <point x="1060" y="1052" type="curve" smooth="yes"/>
      <point x="1060" y="1092"/>
      <point x="1062" y="1123"/>
      <point x="1094" y="1123" type="curve" smooth="yes"/>
      <point x="1315" y="1123" type="line"/>
      <point x="1315" y="1264" type="line"/>
      <point x="1093" y="1264" type="line"/>
      <point x="1030" y="1361"/>
      <point x="1002" y="1400"/>
      <point x="978" y="1400" type="curve" smooth="yes"/>
      <point x="922" y="1400"/>
      <point x="875" y="1340"/>
      <point x="875" y="1264" type="curve"/>
      <point x="-20" y="1264" type="line"/>
    </contour>
    <contour>
      <point x="666" y="-25" type="line" smooth="yes"/>
      <point x="473" y="-25"/>
      <point x="337" y="71"/>
      <point x="337" y="183" type="curve" smooth="yes"/>
      <point x="337" y="322"/>
      <point x="489" y="418"/>
      <point x="678" y="418" type="curve" smooth="yes"/>
      <point x="884" y="418" type="line"/>
      <point x="958" y="373"/>
      <point x="987" y="283"/>
      <point x="987" y="183" type="curve" smooth="yes"/>
      <point x="987" y="74"/>
      <point x="905" y="-25"/>
      <point x="802" y="-25" type="curve" smooth="yes"/>
    </contour>
    <contour>
      <point x="373" y="557" type="line"/>
      <point x="342" y="621"/>
      <point x="326" y="686"/>
      <point x="326" y="753" type="curve" smooth="yes"/>
      <point x="326" y="879"/>
      <point x="347" y="1003"/>
      <point x="413" y="1109" type="curve"/>
      <point x="423" y="1109" type="line"/>
      <point x="696" y="585" type="line"/>
      <point x="560" y="585" type="line" smooth="yes"/>
      <point x="495" y="585"/>
      <point x="427" y="578"/>
      <point x="378" y="557" type="curve"/>
    </contour>
    <contour>
      <point x="542" y="1123" type="line"/>
      <point x="889" y="1123" type="line"/>
      <point x="916" y="1044"/>
      <point x="920" y="942"/>
      <point x="920" y="818" type="curve" smooth="yes"/>
      <point x="920" y="694"/>
      <point x="877" y="595"/>
      <point x="814" y="585" type="curve" smooth="yes"/>
      <point x="810" y="585" type="line"/>
    </contour>
    <contour>
      <point x="471" y="1257" type="move" name="bin"/>
    </contour>
    <contour>
      <point x="767" y="-168" type="move" name="bottom"/>
    </contour>
    <contour>
      <point x="968" y="1257" type="move" name="top"/>
    </contour>
  </outline>
</glyph>
<glyph name="t_r-deva" format="1">
  <advance width="770"/>
  <outline>
    <contour>
      <point x="21" y="387" type="line"/>
      <point x="21" y="575"/>
      <point x="164" y="639"/>
      <point x="374" y="639" type="curve" smooth="yes"/>
      <point x="539" y="639"/>
      <point x="687" y="492"/>
      <point x="790" y="425" type="curve"/>
      <point x="790" y="531" type="line"/>
      <point x="672" y="657"/>
      <point x="474" y="831"/>
      <point x="290" y="831" type="curve" smooth="yes"/>
      <point x="53" y="831"/>
      <point x="-147" y="734"/>
      <point x="-147" y="493" type="curve"/>
    </contour>
    <contour>
      <point x="111" y="97"/>
      <point x="85" y="73"/>
      <point x="85" y="43" type="curve" smooth="yes"/>
      <point x="85" y="25"/>
      <point x="225" y="-74"/>
      <point x="257" y="-74" type="curve" smooth="yes"/>
      <point x="300" y="-74"/>
      <point x="438" y="25"/>
      <point x="618" y="184" type="curve"/>
      <point x="725" y="286"/>
      <point x="762" y="325"/>
      <point x="790" y="364" type="curve"/>
      <point x="790" y="531" type="line"/>
      <point x="497" y="305"/>
      <point x="310" y="97"/>
      <point x="147" y="97" type="curve" smooth="yes"/>
    </contour>
    <contour>
      <point x="-23" y="1264" type="line"/>
      <point x="-23" y="1123" type="line"/>
      <point x="781" y="1123" type="line"/>
      <point x="776" y="1264" type="line"/>
    </contour>
  </outline>
</glyph>
<glyph name="t_t_va-deva" format="1">
  <advance width="3024"/>
  <outline>
    <contour>
      <point x="872" y="1123" type="line"/>
      <point x="872" y="1264" type="line"/>
      <point x="-31" y="1264" type="line"/>
      <point x="-31" y="1123" type="line"/>
    </contour>
    <contour>
      <point x="139" y="215"/>
      <point x="462" y="-222"/>
      <point x="625" y="-222" type="curve" smooth="yes"/>
      <point x="647" y="-222"/>
      <point x="655" y="-205"/>
      <point x="655" y="-173" type="curve" smooth="yes"/>
      <point x="655" y="-134"/>
      <point x="635" y="-95"/>
      <point x="595" y="-68" type="curve"/>
      <point x="433" y="-26"/>
      <point x="307" y="136"/>
      <point x="307" y="337" type="curve" smooth="yes"/>
      <point x="307" y="525"/>
      <point x="450" y="639"/>
      <point x="660" y="639" type="curve" smooth="yes"/>
      <point x="805" y="639"/>
      <point x="973" y="602"/>
      <point x="1076" y="535" type="curve"/>
      <point x="1076" y="641" type="line"/>
      <point x="958" y="767"/>
      <point x="760" y="831"/>
      <point x="616" y="831" type="curve" smooth="yes"/>
      <point x="329" y="831"/>
      <point x="139" y="684"/>
      <point x="139" y="443" type="curve" smooth="yes"/>
    </contour>
    <contour>
      <point x="1712" y="1123" type="line"/>
      <point x="1712" y="1264" type="line"/>
      <point x="809" y="1264" type="line"/>
      <point x="809" y="1123" type="line"/>
    </contour>
    <contour>
      <point x="979" y="215"/>
      <point x="1302" y="-222"/>
      <point x="1465" y="-222" type="curve" smooth="yes"/>
      <point x="1487" y="-222"/>
      <point x="1495" y="-205"/>
      <point x="1495" y="-173" type="curve" smooth="yes"/>
      <point x="1495" y="-134"/>
      <point x="1475" y="-95"/>
      <point x="1435" y="-68" type="curve"/>
      <point x="1273" y="-26"/>
      <point x="1147" y="136"/>
      <point x="1147" y="337" type="curve" smooth="yes"/>
      <point x="1147" y="525"/>
      <point x="1260" y="639"/>
      <point x="1470" y="639" type="curve" smooth="yes"/>
      <point x="1615" y="639"/>
      <point x="1733" y="602"/>
      <point x="1836" y="535" type="curve"/>
      <point x="1836" y="641" type="line"/>
      <point x="1738" y="757"/>
      <point x="1570" y="831"/>
      <point x="1426" y="831" type="curve" smooth="yes"/>
      <point x="1139" y="831"/>
      <point x="979" y="684"/>
      <point x="979" y="443" type="curve" smooth="yes"/>
    </contour>
    <component base="va-deva" xOffset="1683"/>
  </outline>
</glyph>
<glyph name="th-deva" format="1">
  <advance width="993"/>
  <outline>
    <contour>
      <point x="134" y="678" type="curve" smooth="yes"/>
      <point x="134" y="374"/>
      <point x="426" y="129"/>
      <point x="765" y="129" type="curve" smooth="yes"/>
      <point x="913" y="129"/>
      <point x="1102" y="215"/>
      <point x="1233" y="374" type="curve"/>
      <point x="1233" y="491" type="line"/>
      <point x="1133" y="580" type="line"/>
      <point x="1008" y="399"/>
      <point x="798" y="299"/>
      <point x="651" y="299" type="curve" smooth="yes"/>
      <point x="481" y="299"/>
      <point x="313" y="399"/>
      <point x="248" y="567" type="curve"/>
      <point x="253" y="567" type="line" smooth="yes"/>
      <point x="588" y="607"/>
      <point x="804" y="779"/>
      <point x="804" y="1013" type="curve" smooth="yes"/>
      <point x="804" y="1171"/>
      <point x="616" y="1441"/>
      <point x="505" y="1441" type="curve" smooth="yes"/>
      <point x="382" y="1441"/>
      <point x="225" y="1266"/>
      <point x="225" y="1139" type="curve" smooth="yes"/>
      <point x="225" y="1023"/>
      <point x="313" y="881"/>
      <point x="443" y="818" type="curve"/>
      <point x="403" y="805"/>
      <point x="334" y="781"/>
      <point x="232" y="767" type="curve" smooth="yes"/>
      <point x="169" y="755"/>
      <point x="134" y="719"/>
    </contour>
    <contour>
      <point x="535" y="841" type="line"/>
      <point x="535" y="859" type="line" smooth="yes"/>
      <point x="535" y="932"/>
      <point x="486" y="946"/>
      <point x="436" y="960" type="curve"/>
      <point x="433" y="960" type="line"/>
      <point x="382" y="973"/>
      <point x="342" y="987"/>
      <point x="342" y="1052" type="curve" smooth="yes"/>
      <point x="342" y="1162"/>
      <point x="423" y="1248"/>
      <point x="526" y="1248" type="curve" smooth="yes"/>
      <point x="619" y="1248"/>
      <point x="689" y="1164"/>
      <point x="689" y="1066" type="curve" smooth="yes"/>
      <point x="689" y="967"/>
      <point x="625" y="874"/>
      <point x="542" y="841" type="curve"/>
    </contour>
    <contour>
      <point x="978" y="1013" type="curve" smooth="yes"/>
      <point x="1013" y="1013"/>
      <point x="1080" y="1123"/>
      <point x="1119" y="1123" type="curve" smooth="yes"/>
      <point x="1257" y="1123" type="line"/>
      <point x="1257" y="1264" type="line"/>
      <point x="1052" y="1264" type="line" smooth="yes"/>
      <point x="1021" y="1264"/>
      <point x="949" y="1286"/>
      <point x="924" y="1286" type="curve" smooth="yes"/>
      <point x="889" y="1286"/>
      <point x="853" y="1257"/>
      <point x="853" y="1221" type="curve" smooth="yes"/>
      <point x="853" y="1157"/>
      <point x="938" y="1013"/>
    </contour>
  </outline>
</glyph>
